{
.appVersion = "3436";
.formatVersion = 3;
DisplayStrings = (
"",
"Alphabet and Numbers with spacing characters:

HHOHHOOHOOHHOHHOOHOO

HHAHHOOAOO
HHBHHOOBOO
HHCHHOOCOO
HHDHHOODOO
HHEHHOOEOO
HHFHHOOFOO
HHGHHOOGOO
HHHHHOOHOO
HHIHHOOIOO
HHJHHOOJOO
HHKHHOOKOO
HHLHHOOLOO
HHMHHOOMOO
HHNHHOONOO
HHOHHOOOOO
HHPHHOOPOO
HHQHHOOQOO
HHRHHOOROO
HHSHHOOSOO
HHTHHOOTOO
HHUHHOOUOO
HHVHHOOVOO
HHWHHOOWOO
HHXHHOOXOO
HHYHHOOYOO
HHZHHOOZOO

nnannooaoo
nnbnnooboo
nncnnoocoo
nndnnoodoo
nnennooeoo
nnfnnoofoo
nngnnoogoo
nnnnhoohoo
nninnooioo
nnjnnoojoo
nnknnookoo
nnlnnooloo
nnmnnoomoo
nnnnnoonoo
nnonnooooo
nnpbnnoopoo
nnqnnooqoo
nnrnnooroo
nnsnnoosoo
nntnnootoo
nnunnoouoo
nnvnnoovoo
nnwnnoowoo
nnxnnooxoo
nnynnooyoo
nnznnoozoo


0000010010111
0001010111111
0002010212111
0003010313111
0004010414111
0005010515111
0006010616111
0007010717111
0008010818111
0009010919111


",
"Ryan is my pal from San Francisco.

It's ",
"HHOHHOHOOHOO
",
"",
c,
"OÖ"
);
axes = (
{
name = Weight;
tag = wght;
}
);
date = "2025-10-19 19:33:20 +0000";
familyName = Juncture;
fontMaster = (
{
axesValues = (
100
);
iconName = Light_SemiExtended;
id = m004;
metricValues = (
{
pos = 1540;
},
{
},
{
over = 24;
pos = 1480;
},
{
over = 24;
pos = 160;
},
{
over = -24;
},
{
over = -24;
pos = -372;
},
{
}
);
name = ExtraLight;
stemValues = (
42,
36
);
userData = {
GSCornerRadius = 180;
GSOffsetHorizontal = -16;
GSOffsetVertical = -16;
"Letterink-NibData" = {
AngleInDegrees = 45;
MainAxisWidth = 30;
MinorAxisWidth = 15;
};
};
},
{
axesValues = (
400
);
id = "1B8EDE0E-D46F-48F9-B9C6-2CD34FEA95FD";
metricValues = (
{
pos = 1540;
},
{
},
{
over = 24;
pos = 1480;
},
{
over = 24;
pos = 1060;
},
{
over = -24;
},
{
over = -24;
pos = -440;
},
{
}
);
name = Regular;
stemValues = (
89,
76
);
userData = {
GSCornerRadius = 59;
"Letterink-NibData" = {
AngleInDegrees = 45;
MainAxisWidth = 30;
MinorAxisWidth = 15;
};
};
visible = 1;
},
{
axesValues = (
600
);
iconName = Bold;
id = m005;
metricValues = (
{
pos = 1540;
},
{
},
{
over = 24;

glyphs = (
{
glyphname = A;
lastChange = "2025-11-28 20:16:16 +0000";
layers = (
{
anchors = (
{
name = bottom;
pos = (589,0);
},
{
name = ogonek;
pos = (1089,12);
},
{
name = top;
pos = (589,1485);
}
);
layerId = m004;
shapes = (
{
closed = 1;
nodes = (
(958,500,l),
(220,500,l),
(220,416,l),
(958,416,l)
);
},
{
closed = 1;
nodes = (
(119,0,l),
(597,1444,l),
(580,1441,l),
(1059,0,l),
(1154,0,l),
(658,1485,l),
(519,1485,l),
(23,0,l)
);
}
);
width = 1177;
},
{
anchors = (
{
name = bottom;
pos = (683,0);
},
{
name = ogonek;
pos = (1217,12);
},
{
name = top;
pos = (683,1485);
}
);
layerId = m005;
shapes = (
{
closed = 1;
nodes = (
(1000,539,l),
(362,539,l),
(366,281,l),
(1004,281,l)
);
},
{
closed = 1;
nodes = (
(353,0,l),
(778,1277,l),
(604,1277,l),
(1027,0,l),
(1349,0,l),
(833,1480,l),
(548,1480,l),
(32,0,l)
);
}
);
width = 1381;
},
{
anchors = (
{
name = bottom;
pos = (641,0);
},
{
name = ogonek;
pos = (1180,12);
},
{
name = top;
pos = (641,1485);
}
);
layerId = "1B8EDE0E-D46F-48F9-B9C6-2CD34FEA95FD";
shapes = (
{
closed = 1;
nodes = (
(964,510,l),
(313,510,l),
(315,348,l),
(966,348,l)
);
},
{
closed = 1;
nodes = (
(231,0,l),
(668,1297,l),
(605,1297,l),
(1041,0,l),
(1233,0,l),
(725,1480,l),
(544,1480,l),
(36,0,l)
);
}
);
width = 1269;
}
);
metricRight = "=|";
unicode = 65;
},
{
glyphname = AE;
lastChange = "2025-11-28 20:07:16 +0000";
layers = (
{
anchors = (
{
name = bottom;
pos = (740,0);
},
{
name = top;
pos = (740,1633);
}
);
layerId = m004;
shapes = (
{
closed = 1;
nodes = (
(128,0,l),
(356,484,l),
(833,484,l),
(833,0,l),
(1541,0,l),
(1541,81,l),
(927,81,l),
(927,732,l),
(1457,732,l),
(1457,813,l),
(927,813,l),
(927,1404,l),
(1541,1404,l),
(1541,1485,l),
(724,1485,l),
(23,0,l)
);
},
{
closed = 1;
nodes = (
(809,1443,l),
(746,1404,l),
(833,1404,l),
(833,576,l),
(400,576,l)
);
}
);
width = 1655;
},
{
anchors = (
{
name = bottom;
pos = (890,0);
},
{
name = top;
pos = (890,1633);
}
);
layerId = "1B8EDE0E-D46F-48F9-B9C6-2CD34FEA95FD";
shapes = (
{
closed = 1;
nodes = (
(261,0,l),
(467,439,l),
(914,439,l),
(914,0,l),
(1698,0,l),
(1698,171,l),
(1117,171,l),
(1117,686,l),
(1595,686,l),
(1595,860,l),
(1117,860,l),
(1117,1314,l),
(1698,1314,l),
(1698,1485,l),
(754,1485,l),
(36,0,l)
);
},
{
closed = 1;
nodes = (
(916,1399,l),
(786,1317,l),
(914,1317,l),
(914,608,l),
(545,608,l)
);
}
);
width = 1801;
},
{
anchors = (
{
name = bottom;
pos = (1063,0);
},
{
name = top;
pos = (1063,1633);
}
);
layerId = m005;
shapes = (
{
closed = 1;
nodes = (
(368,0,l),
(523,352,l),
(948,352,l),
(948,0,l),
(1824,0,l),
(1824,274,l),
(1254,274,l),
(1254,632,l),
(1715,632,l),
(1715,911,l),
(1254,911,l),
(1254,1212,l),
(1824,1212,l),
(1824,1485,l),
(708,1485,l),
(32,0,l)
);
},
{
closed = 1;
nodes = (
(957,1337,l),
(766,1212,l),
(948,1212,l),
(948,629,l),
(647,629,l)
);
}
);
width = 1882;
}
);
metricLeft = "=A";
metricRight = "=E";
unicode = 198;
},
{
glyphname = B;
lastChange = "2025-11-28 20:07:13 +0000";
layers = (
{
anchors = (
{
name = bottom;
pos = (606,0);
},
{
name = center;
pos = (315,445);
},
{
name = top;
pos = (606,1485);
}
);
layerId = m004;
shapes = (
{
closed = 1;
nodes = (
(655,0,l),
(655,84,l),
(212,84,l),
(212,732,l),
(654,732,l),
(654,816,l),
(212,816,l),
(212,1401,l),
(599,1401,l),
(599,1485,l),
(116,1485,l),
(116,0,l)
);
},
{
closed = 1;
nodes = (
(870,740,o),
(1008,905,o),
(1008,1111,c),
(1008,1293,o),
(898,1485,o),
(599,1485,c),
(599,1401,l),
(815,1401,o),
(914,1276,o),
(914,1109,cs),
(914,943,o),
(809,816,o),
(622,816,c),
(622,740,l)
);
},
{
closed = 1;
nodes = (
(954,0,o),
(1076,160,o),
(1076,405,c),
(1076,671,o),
(890,812,o),
(654,812,c),
(654,732,l),
(905,732,o),
(982,590,o),
(982,403,cs),
(982,216,o),
(905,84,o),
(654,84,c),
(654,0,l)
);
}
);
width = 1238;
},
{
anchors = (
{
name = bottom;
pos = (648,0);
},
{
name = center;
pos = (328,445);
},
{
name = top;
pos = (648,1485);
}
);
layerId = m005;
shapes = (
{
closed = 1;
nodes = (
(724,0,l),
(724,261,l),
(429,261,l),
(429,654,l),
(795,654,l),
(795,886,l),
(429,886,l),
(429,1224,l),
(703,1224,l),
(703,1485,l),
(123,1485,l),
(123,0,l)
);
},
{
closed = 1;
nodes = (
(990,671,o),
(1173,799,o),
(1173,1063,cs),
(1173,1283,o),
(1022,1485,o),
(703,1485,c),
(703,1224,l),
(827,1224,o),
(867,1148,o),
(867,1056,cs),
(867,969,o),
(827,886,o),
(703,886,c),
(703,671,l)
);
},
{
closed = 1;
nodes = (
(1061,0,o),
(1240,148,o),
(1240,445,cs),
(1240,779,o),
(906,869,o),
(700,869,c),
(700,654,l),
(863,654,o),
(934,571,o),
(934,457,cs),
(934,342,o),
(863,261,o),
(724,261,c),
(724,0,l)
);
}
);
width = 1327;
},
{
anchors = (
{
name = bottom;
pos = (608,0);
},
{
name = center;
pos = (299,445);
},
{
name = top;
pos = (608,1485);
}
);
layerId = "1B8EDE0E-D46F-48F9-B9C6-2CD34FEA95FD";
shapes = (
{
closed = 1;
nodes = (
(712,0,l),
(712,160,l),
(347,160,l),
(347,669,l),
(727,669,l),
(727,829,l),
(347,829,l),
(347,1319,l),
(707,1319,l),
(707,1480,l),
(150,1480,l),
(150,0,l)
);
},
{
closed = 1;
nodes = (
(1018,704,o),
(1127,843,o),
(1127,1073,cs),
(1127,1300,o),
(992,1480,o),
(707,1480,c),
(707,1319,l),
(885,1319,o),
(943,1178,o),
(943,1079,cs),
(943,977,o),
(879,829,o),
(707,829,c),
(707,704,l)
);
},
{
closed = 1;
nodes = (
(1029,0,o),
(1188,131,o),
(1188,411,cs),
(1188,697,o),
(939,823,o),
(701,823,c),
(701,669,l),
(943,669,o),
(1005,549,o),
(1005,412,cs),
(1005,277,o),
(933,160,o),
(712,160,c),
(712,0,l)
);
}
);
width = 1279;
}
);
metricLeft = "=H";
unicode = 66;
},
{
glyphname = C;
lastChange = "2025-11-28 20:21:34 +0000";
layers = (
{
anchors = (
{
name = bottom;
pos = (609,0);
},
{
name = top;
pos = (609,1485);
}
);
background = {
shapes = (
{
closed = 1;
nodes = (
(297,-9,o),
(405,34,o),
(405,169,c),
(372,169,l),
(372,61,o),
(291,17,o),
(221,18,cs),
(151,19,o),
(70,61,o),
(70,169,c),
(70,335,l),
(70,451,o),
(151,493,o),
(221,494,cs),
(291,495,o),
(372,451,o),
(372,335,c),
(405,335,l),
(405,478,o),
(297,521,o),
(221,521,cs),
(145,521,o),
(37,478,o),
(37,335,c),
(37,169,l),
(37,34,o),
(145,-9,o),
(221,-9,cs)
);
}
);
};
layerId = m004;
shapes = (
{
closed = 1;
nodes = (
(837,-28,o),
(1125,80,o),
(1154,432,c),
(1061,432,l),
(1035,158,o),
(819,48,o),
(622,51,cs),
(419,52,o),
(184,175,o),
(184,492,c),
(184,972,l),
(184,1309,o),
(419,1433,o),
(622,1434,cs),
(825,1437,o),
(1028,1321,o),
(1061,1028,c),
(1157,1028,l),
(1125,1398,o),
(844,1512,o),
(622,1512,cs),
(403,1512,o),
(87,1386,o),
(87,972,c),
(87,492,l),
(87,99,o),
(403,-28,o),
(622,-28,cs)
);
}
);
width = 1311;
},
{
anchors = (
{
name = bottom;
pos = (686,0);
},
{
name = top;
pos = (686,1485);
}
);
background = {
shapes = (
{
closed = 0;
nodes = (
(706,253,ls)
);
}
);
};
layerId = m005;
shapes = (
{
closed = 1;
nodes = (
(977,-28,o),
(1286,128,o),
(1302,513,c),
(996,513,l),
(983,316,o),
(857,250,o),
(706,252,cs),
(548,254,o),
(393,309,o),
(393,632,cs),
(393,853,ls),
(393,1176,o),
(548,1231,o),
(706,1232,cs),
(854,1235,o),
(972,1164,o),
(1001,972,c),
(1305,972,l),
(1277,1357,o),
(967,1512,o),
(706,1512,cs),
(445,1512,o),
(87,1380,o),
(87,853,cs),
(87,632,ls),
(87,104,o),
(445,-28,o),
(706,-28,cs)
);
}
);
width = 1385;
},
{
anchors = (
{
name = bottom;
pos = (682,0);
},
{
name = top;
pos = (682,1485);
}
);
layerId = "1B8EDE0E-D46F-48F9-B9C6-2CD34FEA95FD";
shapes = (
{
closed = 1;
nodes = (
(928,-24,o),
(1210,100,o),
(1246,455,c),
(1046,455,l),
(1015,223,o),
(863,148,o),
(686,148,cs),
(447,148,o),
(317,302,o),
(317,582,c),
(317,894,l),
(317,1176,o),
(446,1332,o),
(686,1332,cs),
(863,1332,o),
(1011,1249,o),
(1047,1017,c),
(1249,1017,l),
(1213,1372,o),
(928,1504,o),
(686,1504,cs),
(444,1504,o),
(120,1378,o),
(120,894,c),
(120,582,l),
(120,102,o),
(444,-24,o),
(686,-24,cs)
);
}
);
width = 1356;
}
);
metricLeft = O;
unicode = 67;
},
{
glyphname = D;
lastChange = "2025-11-28 20:21:59 +0000";
layers = (
{
anchors = (
{
name = bottom;
pos = (618,0);
},
{
name = center;
pos = (319,742);
},
{
name = top;
pos = (618,1485);
}
);
layerId = m004;
shapes = (
{
closed = 1;
nodes = (
(210,1404,l),
(595,1404,ls),
(796,1404,o),
(1008,1279,o),
(1008,967,cs),
(1008,496,ls),
(1008,206,o),
(796,81,o),
(595,81,cs),
(210,81,l)
);
},
{
closed = 1;
nodes = (
(595,0,ls),
(815,0,o),
(1101,129,o),
(1101,496,cs),
(1101,967,ls),
(1101,1356,o),
(815,1482,o),
(595,1482,cs),
(116,1485,l),
(116,0,l)
);
}
);
width = 1188;
},
{
anchors = (
{
name = bottom;
pos = (679,30);
},
{
name = center;
pos = (294,847);
},
{
name = top;
pos = (679,1663);
}
);
layerId = m005;
shapes = (
{
closed = 1;
nodes = (
(429,1205,l),
(614,1205,ls),
(795,1205,o),
(953,1143,o),
(953,825,cs),
(953,661,ls),
(953,340,o),
(795,278,o),
(614,278,cs),
(429,278,l)
);
},
{
closed = 1;
nodes = (
(635,0,ls),
(893,0,o),
(1259,107,o),
(1259,661,cs),
(1259,825,ls),
(1259,1378,o),
(893,1485,o),
(635,1485,cs),
(123,1485,l),
(123,0,l)
);
}
);
width = 1346;
},
{
anchors = (
{
name = bottom;
pos = (653,0);
},
{
name = center;
pos = (291,816);
},
{
name = top;
pos = (653,1633);
}
);
layerId = "1B8EDE0E-D46F-48F9-B9C6-2CD34FEA95FD";
shapes = (
{
closed = 1;
nodes = (
(350,1301,l),
(611,1301,ls),
(801,1301,o),
(1000,1229,o),
(1000,875,cs),
(1000,610,ls),
(1000,252,o),
(806,178,o),
(611,178,cs),
(350,178,l)
);
},
{
closed = 1;
nodes = (
(627,0,ls),
(861,0,o),
(1197,109,o),
(1197,610,cs),
(1197,875,ls),
(1197,1371,o),
(859,1480,o),
(627,1480,cs),
(150,1480,l),
(150,0,l)
);
}
);
width = 1317;
}
);
metricLeft = "=H";
metricRight = "=O";
unicode = 68;
},
{
glyphname = E;
lastChange = "2025-11-28 20:30:04 +0000";
layers = (
{
anchors = (
{
name = bottom;
pos = (538,0);
},
{
name = ogonek;
pos = (931,12);
},
{
name = top;
pos = (538,1485);
},
{
name = topleft;
pos = (70,1485);
}
);
layerId = m004;
shapes = (
{
closed = 1;
nodes = (
(1014,0,l),
(1014,81,l),
(212,81,l),
(212,732,l),
(885,732,l),
(885,813,l),
(212,813,l),
(212,1404,l),
(1014,1404,l),
(1014,1485,l),
(116,1485,l),
(116,0,l)
);
}
);
width = 1128;
},
{
anchors = (
{
name = bottom;
pos = (589,0);
},
{
name = ogonek;
pos = (1061,23);
},
{
name = top;
pos = (589,1485);
},
{
name = topleft;
pos = (42,1485);
}
);
layerId = m005;
shapes = (
{
closed = 1;
nodes = (
(1134,0,l),
(1134,274,l),
(429,274,l),
(429,623,l),
(1016,623,l),
(1016,903,l),
(429,903,l),
(429,1206,l),
(1134,1206,l),
(1134,1480,l),
(123,1480,l),
(123,0,l)
);
}
);
width = 1192;
},
{
anchors = (
{
name = bottom;
pos = (546,0);
},
{
name = ogonek;
pos = (984,23);
},
{
name = top;
pos = (546,1485);
},
{
name = topleft;
pos = (43,1485);
}
);
layerId = "1B8EDE0E-D46F-48F9-B9C6-2CD34FEA95FD";
shapes = (
{
closed = 1;
nodes = (
(1094,0,l),
(1094,170,l),
(350,170,l),
(350,670,l),
(968,670,l),
(968,844,l),
(350,844,l),
(350,1310,l),
(1094,1310,l),
(1094,1480,l),
(150,1480,l),
(150,0,l)
);
}
);
width = 1197;
}
);
metricLeft = "=H";
unicode = 69;
},
{
glyphname = F;
lastChange = "2025-11-28 20:30:11 +0000";
layers = (
{
anchors = (
{
name = bottom;
pos = (503,0);
},
{
name = top;
pos = (503,1485);
}
);
layerId = m004;
shapes = (
{
closed = 1;
nodes = (
(212,0,l),
(212,605,l),
(854,605,l),
(854,687,l),
(212,687,l),
(212,1402,l),
(950,1402,l),
(950,1485,l),
(116,1485,l),
(116,0,l)
);
}
);
width = 1053;
},
{
anchors = (
{
name = bottom;
pos = (463,-270);
},
{
name = top;
pos = (463,1215);
}
);
layerId = m005;
shapes = (
{
closed = 1;
nodes = (
(429,0,l),
(429,534,l),
(989,534,l),
(989,813,l),
(429,813,l),
(429,1206,l),
(1066,1206,l),
(1066,1480,l),
(123,1480,l),
(123,0,l)
);
}
);
width = 1124;
},
{
anchors = (
{
name = bottom;
pos = (535,0);
},
{
name = top;
pos = (535,1485);
}
);
layerId = "1B8EDE0E-D46F-48F9-B9C6-2CD34FEA95FD";
shapes = (
{
closed = 1;
nodes = (
(350,0,l),
(350,586,l),
(945,586,l),
(945,758,l),
(350,758,l),
(350,1313,l),
(1036,1313,l),
(1036,1480,l),
(150,1480,l),
(150,0,l)
);
}
);
width = 1128;
}
);
metricLeft = "=H";
unicode = 70;
},
{
glyphname = G;
lastChange = "2025-11-28 20:30:29 +0000";
layers = (
{
anchors = (
{
name = bottom;
pos = (631,0);
},
{
name = top;
pos = (631,1485);
}
);
background = {
shapes = (
{
closed = 0;
nodes = (
(453,256,ls),
(453,414,o),
(383,497,o),
(257,496,cs)
);
},
{
closed = 0;
nodes = (
(257,521,ls),
(394,521,o),
(484,447,o),
(484,256,cs)
);
}
);
};
layerId = m004;
shapes = (
{
closed = 1;
nodes = (
(1154,0,l),
(1154,745,l),
(773,745,l),
(773,663,l),
(1061,663,l),
(1059,196,l),
(1059,174,l),
(1082,0,l)
);
},
{
closed = 1;
nodes = (
(837,-28,o),
(1082,39,o),
(1109,432,c),
(1061,432,l),
(1031,162,o),
(819,51,o),
(622,52,cs),
(419,55,o),
(184,175,o),
(184,492,c),
(184,972,l),
(184,1309,o),
(419,1430,o),
(622,1433,cs),
(825,1434,o),
(1028,1321,o),
(1061,1028,c),
(1157,1028,l),
(1125,1398,o),
(844,1512,o),
(622,1512,cs),
(403,1512,o),
(87,1386,o),
(87,972,c),
(87,492,l),
(87,99,o),
(403,-28,o),
(622,-28,cs)
);
}
);
width = 1338;
},
{
anchors = (
{
name = bottom;
pos = (690,13);
},
{
name = top;
pos = (690,1499);
}
);
guides = (
{
pos = (317,-100);
}
);
layerId = m005;
shapes = (
{
closed = 1;
nodes = (
(1301,0,l),
(1301,777,l),
(761,777,l),
(761,536,l),
(995,536,l),
(995,107,l),
(1019,107,l),
(1043,0,l)
);
},
{
closed = 1;
nodes = (
(967,-24,o),
(1095,132,o),
(1119,517,c),
(995,536,l),
(996,385,o),
(912,235,o),
(706,237,cs),
(548,239,o),
(393,294,o),
(393,636,cs),
(393,845,ls),
(393,1187,o),
(548,1242,o),
(706,1243,cs),
(866,1246,o),
(983,1175,o),
(1012,964,c),
(1317,964,l),
(1289,1349,o),
(977,1504,o),
(706,1504,cs),
(445,1504,o),
(87,1372,o),
(87,845,cs),
(87,636,ls),
(87,108,o),
(400,-24,o),
(660,-24,cs)
);
}
);
width = 1425;
},
{
anchors = (
{
name = bottom;
pos = (684,13);
},
{
name = top;
pos = (684,1499);
}
);
background = {
shapes = (
{
closed = 1;
nodes = (
(736,385,l),
(736,198,o),
(642,95,o),
(474,95,c),
(307,95,o),
(215,198,o),
(215,385,c),
(215,636,l),
(215,826,o),
(307,929,o),
(474,929,cs),
(643,929,o),
(736,826,o),
(736,636,c)
);
},
{
closed = 1;
nodes = (
(79,385,ls),
(79,139,o),
(233,-24,o),
(474,-24,cs),
(717,-24,o),
(872,137,o),
(872,385,cs),
(872,636,ls),
(872,886,o),
(718,1048,o),
(474,1048,cs),
(232,1048,o),
(79,885,o),
(79,636,cs)
);
}
);
};
layerId = "1B8EDE0E-D46F-48F9-B9C6-2CD34FEA95FD";
shapes = (
{
closed = 1;
nodes = (
(1245,0,l),
(1245,747,l),
(775,747,l),
(775,580,l),
(1050,580,l),
(1050,131,l),
(1066,131,l),
(1094,0,l)
);
},
{
closed = 1;
nodes = (
(904,-23,o),
(1148,64,o),
(1117,467,c),
(1050,467,l),
(1050,282,o),
(918,149,o),
(692,149,cs),
(450,149,o),
(317,298,o),
(317,570,cs),
(317,898,ls),
(317,1182,o),
(450,1332,o),
(692,1332,cs),
(888,1332,o),
(1050,1239,o),
(1071,1013,c),
(1261,1013,l),
(1233,1359,o),
(958,1504,o),
(692,1504,cs),
(341,1504,o),
(120,1268,o),
(120,898,cs),
(120,570,ls),
(120,213,o),
(343,-23,o),
(692,-23,cs)
);
}
);
width = 1387;
}
);
metricLeft = "=O";
unicode = 71;
},
{
glyphname = H;
lastChange = "2025-11-28 20:14:31 +0000";
layers = (
{
anchors = (
{
name = bottom;
pos = (622,0);
},
{
name = center;
pos = (622,1186);
},
{
name = top;
pos = (622,1485);
},
{
name = topleft;
pos = (-4,1485);
}
);
layerId = m004;
shapes = (
{
closed = 1;
nodes = (
(116,3,l),
(212,3,l),
(212,718,l),
(1031,718,l),
(1031,3,l),
(1128,3,l),
(1128,1483,l),
(1031,1483,l),
(1031,799,l),
(212,799,l),
(212,1483,l),
(116,1483,l)
);
}
);
width = 1244;
},
{
anchors = (
{
name = bottom;
pos = (699,0);
},
{
name = center;
pos = (699,1188);
},
{
name = top;
pos = (699,1485);
},
{
name = topleft;
pos = (20,1485);
}
);
layerId = m005;
shapes = (
{
closed = 1;
nodes = (
(123,0,l),
(429,0,l),
(429,635,l),
(967,635,l),
(967,0,l),
(1275,0,l),
(1275,1480,l),
(967,1480,l),
(967,914,l),
(429,914,l),
(429,1480,l),
(123,1480,l)
);
}
);
width = 1398;
},
{
anchors = (
{
name = bottom;
pos = (681,-3);
},
{
name = center;
pos = (681,1186);
},
{
name = top;
pos = (681,1483);
},
{
name = topleft;
pos = (43,1483);
}
);
layerId = "1B8EDE0E-D46F-48F9-B9C6-2CD34FEA95FD";
shapes = (
{
closed = 1;
nodes = (
(150,0,l),
(353,0,l),
(353,666,l),
(1028,666,l),
(1028,0,l),
(1231,0,l),
(1231,1480,l),
(1028,1480,l),
(1028,840,l),
(353,840,l),
(353,1480,l),
(150,1480,l)
);
}
);
width = 1381;
}
);
metricRight = "=|";
unicode = 72;
},
{
glyphname = I;
lastChange = "2025-11-28 20:38:42 +0000";
layers = (
{
anchors = (
{
name = bottom;
pos = (167,0);
},
{
name = ogonek;
pos = (349,13);
},
{
name = top;
pos = (167,1633);
},
{
name = topleft;
pos = (-35,1633);
}
);
layerId = m004;
shapes = (
{
closed = 1;
nodes = (
(116,1485,l),
(116,0,l),
(210,0,l),
(210,1485,l)
);
}
);
width = 326;
},
{
anchors = (
{
name = bottom;
pos = (276,13);
},
{
name = ogonek;
pos = (519,36);
},
{
name = top;
pos = (276,1499);
},
{
name = topleft;
pos = (20,1499);
}
);
layerId = m005;
shapes = (
{
closed = 1;
nodes = (
(123,1480,l),
(123,0,l),
(429,0,l),
(429,1480,l)
);
}
);
width = 552;
},
{
anchors = (
{
name = bottom;
pos = (253,0);
},
{
name = ogonek;
pos = (477,25);
},
{
name = top;
pos = (253,1633);
},
{
name = topleft;
pos = (21,1633);
}
);
layerId = "1B8EDE0E-D46F-48F9-B9C6-2CD34FEA95FD";
shapes = (
{
closed = 1;
nodes = (
(150,1480,l),
(150,0,l),
(353,0,l),
(353,1480,l)
);
}
);
width = 503;
}
);
metricLeft = H;
metricRight = H;
unicode = 73;
},
{
glyphname = J;
lastChange = "2025-11-28 20:38:56 +0000";
layers = (
{
anchors = (
{
name = bottom;
pos = (529,-4);
},
{
name = top;
pos = (529,1633);
}
);
layerId = m004;
shapes = (
{
closed = 1;
nodes = (
(747,-35,o),
(882,116,o),
(882,390,cs),
(882,1485,l),
(787,1485,l),
(787,390,ls),
(787,173,o),
(682,46,o),
(499,46,cs),
(318,46,o),
(206,173,o),
(206,390,c),
(206,444,l),
(112,444,l),
(112,390,l),
(112,116,o),
(249,-35,o),
(499,-35,cs)
);
}
);
width = 998;
},
{
anchors = (
{
name = bottom;
pos = (619,15);
},
{
name = top;
pos = (619,1649);
}
);
layerId = m005;
shapes = (
{
closed = 1;
nodes = (
(821,-24,o),
(983,171,o),
(983,436,cs),
(983,1480,l),
(676,1480,l),
(676,424,ls),
(676,310,o),
(619,244,o),
(503,244,cs),
(387,244,o),
(326,310,o),
(326,424,cs),
(326,508,l),
(32,508,l),
(32,436,ls),
(32,171,o),
(194,-24,o),
(506,-24,cs)
);
}
);
width = 1106;
},
{
anchors = (
{
name = bottom;
pos = (522,15);
},
{
name = top;
pos = (522,1649);
}
);
layerId = "1B8EDE0E-D46F-48F9-B9C6-2CD34FEA95FD";
shapes = (
{
closed = 1;
nodes = (
(751,-24,o),
(929,131,o),
(929,445,cs),
(929,1480,l),
(726,1480,l),
(726,445,ls),
(726,241,o),
(653,151,o),
(483,151,cs),
(313,151,o),
(239,239,o),
(239,444,c),
(239,466,l),
(36,466,l),
(36,445,l),
(36,131,o),
(215,-24,o),
(483,-24,cs)
);
}
);
width = 1079;
}
);
metricRight = H;
unicode = 74;
},
{
glyphname = K;
lastChange = "2025-11-28 20:40:15 +0000";
layers = (
{
anchors = (
{
name = bottom;
pos = (574,0);
},
{
name = top;
pos = (574,1485);
}
);
layerId = m004;
shapes = (
{
closed = 1;
nodes = (
(209,3,l),
(209,1485,l),
(116,1485,l),
(116,3,l)
);
},
{
closed = 1;
nodes = (
(1061,1485,l),
(947,1485,l),
(170,568,l),
(177,441,l)
);
},
{
closed = 1;
nodes = (
(1118,0,l),
(574,977,l),
(509,916,l),
(1018,0,l)
);
}
);
width = 1196;
},
{
anchors = (
{
name = bottom;
pos = (650,0);
},
{
name = top;
pos = (650,1485);
}
);
layerId = m005;
shapes = (
{
closed = 1;
nodes = (
(429,0,l),
(429,1480,l),
(123,1480,l),
(123,0,l)
);
},
{
closed = 1;
nodes = (
(1331,1480,l),
(974,1480,l),
(394,795,l),
(403,373,l)
);
},
{
closed = 1;
nodes = (
(1398,0,l),
(831,1015,l),
(624,783,l),
(1061,0,l)
);
}
);
width = 1408;
},
{
anchors = (
{
name = bottom;
pos = (616,-354);
},
{
name = top;
pos = (616,1131);
}
);
layerId = "1B8EDE0E-D46F-48F9-B9C6-2CD34FEA95FD";
shapes = (
{
closed = 1;
nodes = (
(353,0,l),
(353,1480,l),
(150,1480,l),
(150,0,l)
);
},
{
closed = 1;
nodes = (
(1183,1480,l),
(956,1480,l),
(294,708,l),
(287,421,l)
);
},
{
closed = 1;
nodes = (
(1254,0,l),
(668,1041,l),
(524,889,l),
(1032,0,l)
);
}
);
width = 1290;
}
);
metricLeft = "=H";
unicode = 75;
},
{
glyphname = L;
lastChange = "2025-11-28 20:40:26 +0000";
layers = (
{
anchors = (
{
name = bottom;
pos = (564,0);
},
{
name = center;
pos = (564,742);
},
{
name = top;
pos = (564,1485);
},
{
name = topright;
pos = (1025,1485);
}
);
layerId = m004;
shapes = (
{
closed = 1;
nodes = (
(967,0,l),
(967,78,l),
(209,78,l),
(209,1485,l),
(116,1485,l),
(116,0,l)
);
}
);
width = 1037;
},
{
anchors = (
{
name = bottom;
pos = (367,0);
},
{
name = center;
pos = (367,742);
},
{
name = top;
pos = (367,1485);
},
{
name = topright;
pos = (895,1485);
}
);
layerId = m005;
shapes = (
{
closed = 1;
nodes = (
(1124,0,l),
(1124,274,l),
(429,274,l),
(429,1480,l),
(123,1480,l),
(123,0,l)
);
}
);
width = 1169;
},
{
anchors = (
{
name = bottom;
pos = (535,0);
},
{
name = center;
pos = (535,742);
},
{
name = top;
pos = (265,1485);
},
{
name = topright;
pos = (1025,1485);
}
);
layerId = "1B8EDE0E-D46F-48F9-B9C6-2CD34FEA95FD";
shapes = (
{
closed = 1;
nodes = (
(1080,0,l),
(1080,174,l),
(353,174,l),
(353,1480,l),
(150,1480,l),
(150,0,l)
);
}
);
width = 1126;
}
);
metricLeft = "=H";
unicode = 76;
},
{
glyphname = Lslash;
lastChange = "2025-11-28 11:52:18 +0000";
layers = (
{
layerId = m004;
shapes = (
{
ref = L;
},
{
closed = 1;
nodes = (
(58,444,l),
(732,711,l),
(732,802,l),
(58,535,l)
);
}
);
width = 570;
},
{
layerId = "1B8EDE0E-D46F-48F9-B9C6-2CD34FEA95FD";
shapes = (
{
ref = L;
},
{
closed = 1;
nodes = (
(46,444,l),
(773,731,l),
(773,921,l),
(46,632,l)
);
}
);
width = 583;
},
{
layerId = m005;
shapes = (
{
ref = L;
},
{
closed = 1;
nodes = (
(25,444,l),
(902,795,l),
(902,1085,l),
(25,734,l)
);
}
);
width = 574;
}
);
unicode = 321;
},
{
glyphname = M;
lastChange = "2025-11-28 20:41:32 +0000";
layers = (
{
anchors = (
{
name = bottom;
pos = (864,0);
},
{
name = top;
pos = (864,1633);
}
);
layerId = m004;
shapes = (
{
closed = 1;
nodes = (
(210,0,l),
(210,1437,l),
(154,1405,l),
(715,315,l),
(790,315,l),
(1347,1405,l),
(1289,1437,l),
(1289,0,l),
(1386,0,l),
(1386,1485,l),
(1289,1485,l),
(734,406,l),
(769,406,l),
(210,1485,l),
(116,1485,l),
(116,0,l)
);
}
);
width = 1502;
},
{
anchors = (
{
name = bottom;
pos = (856,0);
},
{
name = top;
pos = (856,1485);
}
);
layerId = m005;
shapes = (
{
closed = 1;
nodes = (
(429,0,l),
(429,1183,l),
(320,1183,l),
(759,242,l),
(1005,242,l),
(1389,1183,l),
(1280,1183,l),
(1280,0,l),
(1586,0,l),
(1586,1480,l),
(1298,1480,l),
(794,394,l),
(972,394,l),
(413,1480,l),
(123,1480,l),
(123,0,l)
);
}
);
width = 1709;
},
{
anchors = (
{
name = bottom;
pos = (822,-1);
},
{
name = top;
pos = (822,1633);
}
);
layerId = "1B8EDE0E-D46F-48F9-B9C6-2CD34FEA95FD";
shapes = (
{
closed = 1;
nodes = (
(353,0,l),
(353,1258,l),
(310,1210,l),
(743,349,l),
(897,349,l),
(1333,1210,l),
(1290,1258,l),
(1290,0,l),
(1493,0,l),
(1493,1480,l),
(1289,1480,l),
(787,527,l),
(856,527,l),
(356,1480,l),
(150,1480,l),
(150,0,l)
);
}
);
width = 1643;
}
);
metricLeft = H;
metricRight = H;
unicode = 77;
},
{
glyphname = N;
lastChange = "2025-11-28 20:41:45 +0000";
layers = (
{
anchors = (
{
name = bottom;
pos = (631,0);
},
{
name = top;
pos = (631,1485);
}
);
layerId = m004;
shapes = (
{
closed = 1;
nodes = (
(116,0,l),
(212,0,l),
(212,1378,l),
(157,1378,l),
(1080,0,l),
(1146,0,l),
(1146,1485,l),
(1050,1485,l),
(1050,99,l),
(1121,99,l),
(197,1485,l),
(116,1485,l)
);
}
);
width = 1262;
},
{
anchors = (
{
name = bottom;
pos = (696,0);
},
{
name = top;
pos = (696,1485);
}
);
layerId = m005;
shapes = (
{
closed = 1;
nodes = (
(123,0,l),
(429,0,l),
(429,1212,l),
(244,1212,l),
(989,0,l),
(1280,0,l),
(1280,1480,l),
(974,1480,l),
(974,241,l),
(1160,236,l),
(415,1480,l),
(123,1480,l)
);
}
);
width = 1403;
},
{
anchors = (
{
name = bottom;
pos = (687,0);
},
{
name = top;
pos = (687,1485);
}
);
layerId = "1B8EDE0E-D46F-48F9-B9C6-2CD34FEA95FD";
shapes = (
{
closed = 1;
nodes = (
(150,0,l),
(353,0,l),
(353,1306,l),
(258,1290,l),
(1039,0,l),
(1233,0,l),
(1233,1480,l),
(1030,1480,l),
(1030,167,l),
(1130,181,l),
(349,1480,l),
(150,1480,l)
);
}
);
width = 1383;
}
);
metricLeft = H;
metricRight = "=|";
unicode = 78;
},
{
glyphname = O;
lastChange = "2025-11-28 20:20:53 +0000";
layers = (
{
anchors = (
{
name = bottom;
pos = (627,0);
},
{
name = center;
pos = (627,740);
},
{
name = ogonek;
pos = (1129,10);
},
{
name = top;
pos = (627,1480);
},
{
name = topleft;
pos = (20,1480);
},
{
name = topright;
pos = (1234,1480);
}
);
layerId = m004;
shapes = (
{
closed = 1;
nodes = (
(1073,512,ls),
(1073,231,o),
(895,45,o),
(628,45,cs),
(361,45,o),
(181,239,o),
(181,512,cs),
(181,974,ls),
(181,1247,o),
(361,1440,o),
(628,1440,cs),
(895,1440,o),
(1073,1256,o),
(1073,974,cs)
);
},
{
closed = 1;
nodes = (
(87,512,ls),
(87,174,o),
(309,-35,o),
(628,-35,cs),
(945,-35,o),
(1167,174,o),
(1167,512,cs),
(1167,974,ls),
(1167,1311,o),
(945,1520,o),
(628,1520,cs),
(309,1520,o),
(87,1311,o),
(87,974,cs)
);
}
);
width = 1254;
},
{
anchors = (
{
name = bottom;
pos = (706,0);
},
{
name = center;
pos = (706,740);
},
{
name = ogonek;
pos = (1270,10);
},
{
name = top;
pos = (706,1480);
},
{
name = topleft;
pos = (20,1480);
},
{
name = topright;
pos = (1391,1480);
}
);
layerId = m005;
shapes = (
{
closed = 1;
nodes = (
(1015,612,ls),
(1015,333,o),
(854,259,o),
(706,261,cs),
(558,264,o),
(397,333,o),
(397,612,cs),
(397,875,ls),
(397,1153,o),
(558,1224,o),
(706,1225,cs),
(854,1228,o),
(1015,1153,o),
(1015,875,cs)
);
},
{
closed = 1;
nodes = (
(90,605,ls),
(90,116,o),
(454,-19,o),
(706,-19,cs),
(960,-19,o),
(1321,116,o),
(1321,605,cs),
(1321,882,ls),
(1321,1372,o),
(960,1504,o),
(706,1504,cs),
(454,1504,o),
(90,1372,o),
(90,882,cs)
);
}
);
width = 1411;
},
{
anchors = (
{
name = bottom;
pos = (695,0);
},
{
name = center;
pos = (695,740);
},
{
name = ogonek;
pos = (1250,10);
},
{
name = top;
pos = (695,1480);
},
{
name = topleft;
pos = (20,1480);
},
{
name = topright;
pos = (1369,1480);
}
);
layerId = "1B8EDE0E-D46F-48F9-B9C6-2CD34FEA95FD";
shapes = (
{
closed = 1;
nodes = (
(1072,569,l),
(1072,297,o),
(936,148,o),
(692,148,c),
(450,148,o),
(317,297,o),
(317,569,c),
(317,907,l),
(317,1182,o),
(450,1332,o),
(692,1332,cs),
(937,1332,o),
(1072,1182,o),
(1072,907,c)
);
},
{
closed = 1;
nodes = (
(120,569,ls),
(120,212,o),
(333,-24,o),
(692,-24,cs),
(1055,-24,o),
(1269,209,o),
(1269,569,cs),
(1269,907,ls),
(1269,1269,o),
(1056,1504,o),
(692,1504,cs),
(331,1504,o),
(120,1268,o),
(120,907,cs)
);
}
);
width = 1389;
}
);
metricRight = "=|";
unicode = 79;
},
{
glyphname = Oslash;
lastChange = "2025-11-28 20:07:16 +0000";
layers = (
{
anchors = (
{
name = bottom;
pos = (419,0);
},
{
name = top;
pos = (419,1633);
}
);
layerId = m004;
shapes = (
{
ref = O;
},
{
closed = 1;
nodes = (
(191,0,l),
(713,816,l),
(648,815,l),
(126,0,l)
);
}
);
width = 1254;
},
{
anchors = (
{
name = bottom;
pos = (729,15);
},
{
name = top;
pos = (729,1649);
}
);
layerId = "1B8EDE0E-D46F-48F9-B9C6-2CD34FEA95FD";
shapes = (
{
ref = O;
},
{
closed = 1;
nodes = (
(331,15,l),
(1389,1649,l),
(1130,1649,l),
(71,15,l)
);
}
);
width = 1460;
},
{
anchors = (
{
name = bottom;
pos = (755,15);
},
{
name = top;
pos = (755,1649);
}
);
layerId = m005;
shapes = (
{
ref = O;
},
{
closed = 1;
nodes = (
(413,15,l),
(1492,1649,l),
(1096,1649,l),
(19,15,l)
);
}
);
width = 1511;
}
);
metricRight = "=|";
unicode = 216;
},
{
glyphname = P;
lastChange = "2025-11-28 20:42:07 +0000";
layers = (
{
anchors = (
{
name = bottom;
pos = (492,0);
},
{
name = top;
pos = (492,1485);
}
);
layerId = m004;
shapes = (
{
closed = 1;
nodes = (
(212,0,l),
(212,1485,l),
(116,1485,l),
(116,0,l)
);
},
{
closed = 1;
nodes = (
(518,624,ls),
(769,624,o),
(947,802,o),
(947,1054,cs),
(947,1305,o),
(767,1485,o),
(518,1485,cs),
(168,1485,l),
(168,1402,l),
(518,1402,ls),
(719,1402,o),
(851,1259,o),
(851,1054,cs),
(851,847,o),
(722,706,o),
(518,706,cs),
(168,706,l),
(168,624,l)
);
}
);
width = 1038;
},
{
anchors = (
{
name = bottom;
pos = (494,0);
},
{
name = top;
pos = (494,1485);
}
);
layerId = m005;
shapes = (
{
closed = 1;
nodes = (
(429,0,l),
(429,1480,l),
(123,1480,l),
(123,0,l)
);
},
{
closed = 1;
nodes = (
(605,523,ls),
(816,523,o),
(1090,659,o),
(1090,1004,cs),
(1090,1351,o),
(816,1480,o),
(605,1480,cs),
(312,1480,l),
(312,1200,l),
(581,1200,ls),
(702,1200,o),
(784,1117,o),
(784,1001,cs),
(784,882,o),
(705,803,o),
(581,803,cs),
(312,803,l),
(312,523,l)
);
}
);
width = 1143;
},
{
anchors = (
{
name = bottom;
pos = (552,0);
},
{
name = top;
pos = (552,1485);
}
);
layerId = "1B8EDE0E-D46F-48F9-B9C6-2CD34FEA95FD";
shapes = (
{
closed = 1;
nodes = (
(353,0,l),
(353,1480,l),
(150,1480,l),
(150,0,l)
);
},
{
closed = 1;
nodes = (
(584,574,ls),
(836,574,o),
(1048,736,o),
(1048,1026,cs),
(1048,1316,o),
(835,1480,o),
(584,1480,cs),
(305,1480,l),
(305,1312,l),
(566,1312,ls),
(751,1312,o),
(856,1207,o),
(856,1026,cs),
(856,846,o),
(751,742,o),
(566,742,cs),
(305,742,l),
(305,574,l)
);
}
);
width = 1106;
}
);
metricLeft = "=H";
unicode = 80;
},
{
glyphname = Q;
lastChange = "2025-11-28 20:42:38 +0000";
layers = (
{
anchors = (
{
name = bottom;
pos = (626,0);
},
{
name = top;
pos = (626,1485);
}
);
layerId = m004;
shapes = (
{
closed = 1;
nodes = (
(87,490,l),
(87,93,o),
(406,-35,o),
(628,-35,cs),
(850,-35,o),
(1166,93,o),
(1166,490,c),
(1166,973,l),
(1166,1393,o),
(850,1520,o),
(628,1520,cs),
(406,1520,o),
(87,1393,o),
(87,973,c)
);
},
{
closed = 1;
nodes = (
(1069,490,l),
(1069,170,o),
(831,44,o),
(628,46,cs),
(422,49,o),
(184,170,o),
(184,490,c),
(184,973,l),
(184,1315,o),
(422,1434,o),
(628,1437,cs),
(831,1440,o),
(1069,1315,o),
(1069,973,c)
);
},
{
closed = 1;
nodes = (
(877,102,l),
(1032,-129,l),
(1112,-75,l),
(958,154,l)
);
}
);
width = 1253;
},
{
anchors = (
{
name = bottom;
pos = (718,0);
},
{
name = top;
pos = (718,1485);
}
);
background = {
shapes = (
{
closed = 1;
nodes = (
(355,29,l),
(408,-64,l),
(491,-17,l),
(437,76,l)
);
}
);
};
layerId = m005;
shapes = (
{
closed = 1;
nodes = (
(90,605,ls),
(90,116,o),
(454,-19,o),
(706,-19,cs),
(960,-19,o),
(1321,116,o),
(1321,605,cs),
(1321,882,ls),
(1321,1372,o),
(960,1504,o),
(706,1504,cs),
(454,1504,o),
(90,1372,o),
(90,882,cs)
);
},
{
closed = 1;
nodes = (
(1015,612,ls),
(1015,333,o),
(854,259,o),
(706,261,cs),
(558,264,o),
(397,333,o),
(397,612,cs),
(397,875,ls),
(397,1153,o),
(558,1224,o),
(706,1225,cs),
(854,1228,o),
(1015,1153,o),
(1015,875,cs)
);
},
{
closed = 1;
nodes = (
(805,162,l),
(1012,-203,l),
(1289,-45,l),
(1080,319,l)
);
}
);
width = 1434;
},
{
anchors = (
{
name = bottom;
pos = (695,0);
},
{
name = top;
pos = (695,1485);
}
);
layerId = "1B8EDE0E-D46F-48F9-B9C6-2CD34FEA95FD";
shapes = (
{
closed = 1;
nodes = (
(120,569,ls),
(120,212,o),
(343,-24,o),
(692,-24,cs),
(1045,-24,o),
(1269,209,o),
(1269,569,cs),
(1269,907,ls),
(1269,1269,o),
(1046,1504,o),
(692,1504,cs),
(341,1504,o),
(120,1268,o),
(120,907,cs)
);
},
{
closed = 1;
nodes = (
(1072,569,l),
(1072,297,o),
(936,148,o),
(692,148,c),
(450,148,o),
(317,297,o),
(317,569,c),
(317,907,l),
(317,1182,o),
(450,1332,o),
(692,1332,cs),
(937,1332,o),
(1072,1182,o),
(1072,907,c)
);
},
{
closed = 1;
nodes = (
(923,84,l),
(1084,-197,l),
(1269,-88,l),
(1106,190,l)
);
}
);
width = 1389;
}
);
metricLeft = "=O";
metricRight = "=O";
unicode = 81;
},
{
glyphname = R;
lastChange = "2025-11-28 20:43:33 +0000";
layers = (
{
anchors = (
{
name = bottom;
pos = (558,0);
},
{
name = top;
pos = (558,1485);
}
);
layerId = m004;
shapes = (
{
closed = 1;
nodes = (
(212,1402,l),
(586,1402,ls),
(799,1402,o),
(898,1279,o),
(898,1066,cs),
(898,848,o),
(793,729,o),
(586,729,cs),
(212,729,l)
);
},
{
closed = 1;
nodes = (
(212,0,l),
(212,647,l),
(586,647,ls),
(845,647,o),
(993,813,o),
(993,1066,cs),
(993,1386,o),
(796,1485,o),
(586,1485,cs),
(116,1485,l),
(116,0,l)
);
},
{
closed = 1;
nodes = (
(1085,0,l),
(705,671,l),
(606,671,l),
(983,0,l)
);
}
);
width = 1135;
},
{
anchors = (
{
name = bottom;
pos = (532,0);
},
{
name = top;
pos = (532,1485);
}
);
layerId = m005;
shapes = (
{
closed = 1;
nodes = (
(429,1200,l),
(645,1200,ls),
(748,1200,o),
(835,1158,o),
(835,1010,cs),
(835,882,o),
(758,823,o),
(645,823,cs),
(429,823,l)
);
},
{
closed = 1;
nodes = (
(429,0,l),
(429,543,l),
(636,543,ls),
(874,543,o),
(1141,643,o),
(1141,1010,cs),
(1141,1381,o),
(874,1480,o),
(634,1480,cs),
(123,1480,l),
(123,0,l)
);
},
{
closed = 1;
nodes = (
(1258,0,l),
(826,756,l),
(508,756,l),
(920,0,l)
);
}
);
width = 1251;
},
{
anchors = (
{
name = bottom;
pos = (600,0);
},
{
name = top;
pos = (600,1485);
}
);
layerId = "1B8EDE0E-D46F-48F9-B9C6-2CD34FEA95FD";
shapes = (
{
closed = 1;
nodes = (
(352,1306,l),
(632,1306,ls),
(810,1306,o),
(907,1217,o),
(907,1046,cs),
(907,875,o),
(810,791,o),
(632,791,cs),
(352,791,l)
);
},
{
closed = 1;
nodes = (
(352,0,l),
(352,617,l),
(614,617,ls),
(925,617,o),
(1113,768,o),
(1113,1046,cs),
(1113,1325,o),
(925,1480,o),
(614,1480,cs),
(150,1480,l),
(150,0,l)
);
},
{
closed = 1;
nodes = (
(1199,0,l),
(807,692,l),
(588,692,l),
(980,0,l)
);
}
);
width = 1219;
}
);
metricLeft = "=H";
unicode = 82;
},
{
glyphname = S;
lastChange = "2025-11-28 20:43:48 +0000";
layers = (
{
anchors = (
{
name = bottom;
pos = (570,0);
},
{
name = top;
pos = (570,1633);
}
);
layerId = m004;
shapes = (
{
closed = 1;
nodes = (
(869,-35,o),
(1060,117,o),
(1060,364,cs),
(1060,626,o),
(866,709,o),
(726,758,cs),
(492,842,ls),
(370,886,o),
(238,961,o),
(238,1103,cs),
(238,1302,o),
(373,1434,o),
(576,1434,cs),
(777,1434,o),
(938,1315,o),
(938,1053,c),
(1034,1053,l),
(1034,1354,o),
(845,1518,o),
(579,1518,cs),
(310,1518,o),
(138,1356,o),
(142,1108,cs),
(146,906,o),
(300,812,o),
(447,760,cs),
(682,677,ls),
(890,603,o),
(966,516,o),
(966,361,cs),
(966,173,o),
(808,52,o),
(597,52,cs),
(373,52,o),
(199,191,o),
(175,415,c),
(83,415,l),
(102,148,o),
(326,-35,o),
(597,-35,cs)
);
}
);
width = 1143;
},
{
anchors = (
{
name = bottom;
pos = (666,15);
},
{
name = top;
pos = (666,1649);
}
);
layerId = m005;
shapes = (
{
closed = 1;
nodes = (
(944,-24,o),
(1143,137,o),
(1143,398,cs),
(1143,578,o),
(1035,736,o),
(838,807,cs),
(626,884,ls),
(571,904,o),
(428,972,o),
(428,1071,cs),
(428,1163,o),
(508,1224,o),
(625,1224,cs),
(769,1224,o),
(838,1153,o),
(838,1009,c),
(1138,1009,l),
(1138,1388,o),
(851,1501,o),
(625,1501,cs),
(360,1501,o),
(128,1353,o),
(128,1064,cs),
(128,872,o),
(258,717,o),
(423,658,cs),
(631,582,ls),
(732,546,o),
(842,492,o),
(842,387,cs),
(842,243,o),
(670,242,o),
(625,242,cs),
(463,242,o),
(364,345,o),
(348,521,c),
(65,521,l),
(83,171,o),
(319,-24,o),
(625,-24,cs)
);
}
);
width = 1208;
},
{
anchors = (
{
name = bottom;
pos = (592,15);
},
{
name = top;
pos = (592,1649);
}
);
layerId = "1B8EDE0E-D46F-48F9-B9C6-2CD34FEA95FD";
shapes = (
{
closed = 1;
nodes = (
(931,-23,o),
(1138,155,o),
(1138,407,cs),
(1138,601,o),
(1030,728,o),
(755,805,cs),
(584,853,ls),
(407,903,o),
(331,978,o),
(331,1097,cs),
(331,1238,o),
(444,1339,o),
(608,1339,cs),
(790,1339,o),
(905,1214,o),
(909,1016,c),
(1105,1016,l),
(1099,1322,o),
(918,1504,o),
(609,1504,cs),
(318,1504,o),
(136,1348,o),
(136,1097,cs),
(136,903,o),
(256,746,o),
(502,676,cs),
(671,628,ls),
(845,578,o),
(944,503,o),
(944,403,cs),
(944,253,o),
(827,148,o),
(635,148,cs),
(399,148,o),
(286,291,o),
(260,456,c),
(68,456,l),
(110,130,o),
(323,-23,o),
(639,-23,cs)
);
}
);
width = 1206;
}
);
metricRight = "=|";
unicode = 83;
},
{
glyphname = T;
lastChange = "2025-11-28 20:43:56 +0000";
layers = (
{
anchors = (
{
name = bottom;
pos = (551,0);
},
{
name = center;
pos = (551,742);
},
{
name = top;
pos = (551,1485);
}
);
layerId = m004;
shapes = (
{
closed = 1;
nodes = (
(51,1483,l),
(51,1404,l),
(503,1404,l),
(503,3,l),
(599,3,l),
(599,1404,l),
(1051,1404,l),
(1051,1483,l)
);
}
);
width = 1102;
},
{
anchors = (
{
name = bottom;
pos = (671,0);
},
{
name = center;
pos = (671,816);
},
{
name = top;
pos = (671,1633);
}
);
layerId = m005;
shapes = (
{
closed = 1;
nodes = (
(25,1480,l),
(25,1199,l),
(460,1199,l),
(460,0,l),
(766,0,l),
(766,1199,l),
(1199,1199,l),
(1199,1480,l)
);
}
);
width = 1224;
},
{
anchors = (
{
name = bottom;
pos = (596,-3);
},
{
name = center;
pos = (596,815);
},
{
name = top;
pos = (596,1631);
}
);
layerId = "1B8EDE0E-D46F-48F9-B9C6-2CD34FEA95FD";
shapes = (
{
closed = 1;
nodes = (
(65,1480,l),
(65,1306,l),
(521,1306,l),
(521,0,l),
(724,0,l),
(724,1306,l),
(1179,1306,l),
(1179,1480,l)
);
}
);
width = 1244;
}
);
metricRight = "=|";
unicode = 84;
},
{
glyphname = U;
lastChange = "2025-11-28 20:44:08 +0000";
layers = (
{
anchors = (
{
name = bottom;
pos = (729,0);
},
{
name = ogonek;
pos = (1275,12);
},
{
name = top;
pos = (729,1485);
},
{
name = topright;
pos = (1389,1485);
}
);
layerId = m004;
shapes = (
{
closed = 1;
nodes = (
(1053,-28,o),
(1241,175,o),
(1241,492,c),
(1241,1485,l),
(1144,1485,l),
(1144,492,l),
(1144,231,o),
(989,55,o),
(729,55,cs),
(470,55,o),
(313,239,o),
(313,492,c),
(313,1485,l),
(218,1485,l),
(218,492,l),
(218,177,o),
(406,-28,o),
(729,-28,cs)
);
}
);
width = 1459;
},
{
anchors = (
{
name = bottom;
pos = (682,0);
},
{
name = ogonek;
pos = (1251,23);
},
{
name = top;
pos = (682,1485);
},
{
name = topright;
pos = (1350,1485);
}
);
layerId = m005;
shapes = (
{
closed = 1;
nodes = (
(929,-24,o),
(1270,72,o),
(1270,500,cs),
(1270,1480,l),
(964,1480,l),
(964,555,ls),
(964,314,o),
(827,258,o),
(682,259,cs),
(535,262,o),
(397,317,o),
(397,555,cs),
(397,1480,l),
(91,1480,l),
(91,500,ls),
(91,72,o),
(434,-24,o),
(682,-24,cs)
);
}
);
width = 1361;
},
{
anchors = (
{
name = bottom;
pos = (680,0);
},
{
name = ogonek;
pos = (1217,23);
},
{
name = top;
pos = (680,1485);
},
{
name = topright;
pos = (1305,1485);
}
);
layerId = "1B8EDE0E-D46F-48F9-B9C6-2CD34FEA95FD";
shapes = (
{
closed = 1;
nodes = (
(906,-24,o),
(1221,86,o),
(1221,547,c),
(1221,1480,l),
(1019,1480,l),
(1019,563,l),
(1019,226,o),
(835,148,o),
(680,148,cs),
(519,151,o),
(341,226,o),
(341,563,c),
(341,1480,l),
(138,1480,l),
(138,547,l),
(138,86,o),
(455,-24,o),
(680,-24,cs)
);
}
);
width = 1359;
}
);
metricRight = "=|";
unicode = 85;
},
{
glyphname = V;
lastChange = "2025-11-28 20:44:15 +0000";
layers = (
{
anchors = (
{
name = bottom;
pos = (624,0);
},
{
name = top;
pos = (624,1485);
}
);
layerId = m004;
shapes = (
{
closed = 1;
nodes = (
(677,0,l),
(1173,1485,l),
(1082,1488,l),
(602,41,l),
(645,41,l),
(168,1485,l),
(74,1485,l),
(570,0,l)
);
}
);
width = 1247;
},
{
anchors = (
{
name = bottom;
pos = (660,0);
},
{
name = top;
pos = (660,1485);
}
);
layerId = m005;
shapes = (
{
closed = 1;
nodes = (
(792,0,l),
(1301,1480,l),
(979,1480,l),
(577,203,l),
(748,203,l),
(339,1480,l),
(17,1480,l),
(526,0,l)
);
}
);
width = 1318;
},
{
anchors = (
{
name = bottom;
pos = (647,0);
},
{
name = top;
pos = (647,1485);
}
);
layerId = "1B8EDE0E-D46F-48F9-B9C6-2CD34FEA95FD";
shapes = (
{
closed = 1;
nodes = (
(741,0,l),
(1248,1480,l),
(1043,1480,l),
(613,183,l),
(689,183,l),
(254,1480,l),
(44,1480,l),
(551,0,l)
);
}
);
width = 1292;
}
);
metricRight = "=|";
unicode = 86;
},
{
glyphname = W;
lastChange = "2025-11-28 20:44:22 +0000";
layers = (
{
anchors = (
{
name = bottom;
pos = (980,0);
},
{
name = top;
pos = (980,1485);
}
);
layerId = m004;
shapes = (
{
closed = 1;
nodes = (
(635,0,l),
(998,1440,l),
(945,1437,l),
(1338,0,l),
(1443,0,l),
(1885,1485,l),
(1791,1485,l),
(1357,9,l),
(1425,9,l),
(1024,1485,l),
(922,1485,l),
(547,19,l),
(605,22,l),
(168,1485,l),
(74,1485,l),
(526,0,l)
);
}
);
width = 1959;
},
{
anchors = (
{
name = bottom;
pos = (1073,0);
},
{
name = top;
pos = (1073,1633);
}
);
layerId = m005;
shapes = (
{
closed = 1;
nodes = (
(697,0,l),
(1056,1254,l),
(887,1248,l),
(1235,0,l),
(1508,0,l),
(1934,1480,l),
(1617,1480,l),
(1341,422,l),
(1424,422,l),
(1132,1480,l),
(819,1480,l),
(541,422,l),
(618,422,l),
(342,1480,l),
(17,1480,l),
(441,0,l)
);
}
);
width = 1951;
},
{
anchors = (
{
name = bottom;
pos = (957,0);
},
{
name = top;
pos = (957,1633);
}
);
layerId = "1B8EDE0E-D46F-48F9-B9C6-2CD34FEA95FD";
shapes = (
{
closed = 1;
nodes = (
(626,0,l),
(993,1319,l),
(912,1316,l),
(1280,0,l),
(1456,0,l),
(1876,1480,l),
(1673,1480,l),
(1320,167,l),
(1430,167,l),
(1053,1480,l),
(861,1480,l),
(493,167,l),
(600,167,l),
(247,1480,l),
(44,1480,l),
(461,0,l)
);
}
);
width = 1920;
}
);
metricLeft = "=V";
metricRight = "=|";
unicode = 87;
},
{
glyphname = X;
lastChange = "2025-11-28 20:44:37 +0000";
layers = (
{
anchors = (
{
name = bottom;
pos = (579,0);
},
{
name = top;
pos = (579,1485);
}
);
layerId = m004;
shapes = (
{
closed = 1;
nodes = (
(1082,1,l),
(180,1483,l),
(74,1483,l),
(979,1,l)
);
},
{
closed = 1;
nodes = (
(622,709,l),
(1082,1483,l),
(983,1483,l),
(573,792,l)
);
},
{
closed = 1;
nodes = (
(184,1,l),
(605,709,l),
(557,792,l),
(86,1,l)
);
}
);
width = 1156;
},
{
anchors = (
{
name = bottom;
pos = (671,0);
},
{
name = top;
pos = (671,1485);
}
);
layerId = m005;
shapes = (
{
closed = 1;
nodes = (
(1309,0,l),
(396,1473,l),
(35,1473,l),
(950,0,l)
);
},
{
closed = 1;
nodes = (
(755,569,l),
(1298,1480,l),
(957,1480,l),
(581,851,l)
);
},
{
closed = 1;
nodes = (
(361,0,l),
(760,622,l),
(586,906,l),
(23,0,l)
);
}
);
width = 1332;
},
{
anchors = (
{
name = bottom;
pos = (615,-1);
},
{
name = top;
pos = (615,1483);
}
);
layerId = "1B8EDE0E-D46F-48F9-B9C6-2CD34FEA95FD";
shapes = (
{
closed = 1;
nodes = (
(1188,0,l),
(267,1480,l),
(51,1480,l),
(972,0,l)
);
},
{
closed = 1;
nodes = (
(667,659,l),
(1180,1480,l),
(964,1480,l),
(559,831,l)
);
},
{
closed = 1;
nodes = (
(544,831,l),
(29,0,l),
(245,0,l),
(653,659,l)
);
}
);
width = 1217;
}
);
metricRight = "=|";
unicode = 88;
},
{
glyphname = Y;
lastChange = "2025-11-28 20:44:47 +0000";
layers = (
{
anchors = (
{
name = bottom;
pos = (574,0);
},
{
name = top;
pos = (574,1485);
},
{
name = topleft;
pos = (88,1485);
}
);
layerId = m004;
shapes = (
{
closed = 1;
nodes = (
(525,615,l),
(525,0,l),
(621,0,l),
(621,615,l),
(1066,1485,l),
(966,1485,l),
(537,648,l),
(610,648,l),
(183,1485,l),
(81,1485,l)
);
}
);
width = 1147;
},
{
anchors = (
{
name = bottom;
pos = (680,0);
},
{
name = top;
pos = (680,1633);
},
{
name = topleft;
pos = (57,1633);
}
);
layerId = m005;
shapes = (
{
closed = 1;
nodes = (
(467,605,l),
(467,0,l),
(773,0,l),
(773,605,l),
(1221,1480,l),
(903,1480,l),
(487,697,l),
(741,697,l),
(339,1480,l),
(19,1480,l)
);
}
);
width = 1240;
},
{
anchors = (
{
name = bottom;
pos = (625,0);
},
{
name = top;
pos = (625,1633);
},
{
name = topleft;
pos = (29,1633);
}
);
layerId = "1B8EDE0E-D46F-48F9-B9C6-2CD34FEA95FD";
shapes = (
{
closed = 1;
nodes = (
(523,610,l),
(523,0,l),
(726,0,l),
(726,610,l),
(1177,1480,l),
(992,1480,l),
(592,695,l),
(658,695,l),
(268,1480,l),
(73,1480,l)
);
}
);
width = 1250;
}
);
metricRight = "=|";
unicode = 89;
},
{
glyphname = Z;
lastChange = "2025-11-28 20:44:58 +0000";
layers = (
{
anchors = (
{
name = bottom;
pos = (542,0);
},
{
name = center;
pos = (542,742);
},
{
name = top;
pos = (542,1485);
}
);
layerId = m004;
shapes = (
{
closed = 1;
nodes = (
(70,78,l),
(70,0,l),
(1015,0,l),
(1015,81,l),
(181,81,l),
(1015,1408,l),
(1015,1485,l),
(70,1485,l),
(70,1404,l),
(906,1404,l)
);
}
);
width = 1085;
},
{
anchors = (
{
name = bottom;
pos = (612,0);
},
{
name = center;
pos = (612,742);
},
{
name = top;
pos = (612,1485);
}
);
layerId = m005;
shapes = (
{
closed = 1;
nodes = (
(70,183,l),
(70,0,l),
(1153,0,l),
(1153,281,l),
(473,281,l),
(1153,1297,l),
(1153,1480,l),
(70,1480,l),
(70,1199,l),
(750,1199,l)
);
}
);
width = 1223;
},
{
anchors = (
{
name = bottom;
pos = (589,0);
},
{
name = center;
pos = (589,742);
},
{
name = top;
pos = (589,1485);
}
);
layerId = "1B8EDE0E-D46F-48F9-B9C6-2CD34FEA95FD";
shapes = (
{
closed = 1;
nodes = (
(102,141,l),
(102,0,l),
(1076,0,l),
(1076,174,l),
(329,174,l),
(1076,1341,l),
(1076,1480,l),
(102,1480,l),
(102,1306,l),
(848,1306,l)
);
}
);
width = 1178;
}
);
metricRight = "=|";
unicode = 90;
},
{
glyphname = a;
lastChange = "2025-11-28 20:51:56 +0000";
layers = (
{
anchors = (
{
name = bottom;
pos = (525,0);
},
{
name = ogonek;
pos = (963,13);
},
{
name = top;
pos = (529,1169);
}
);
background = {
shapes = (
{
closed = 0;
nodes = (
(82,544,ls),
(81,711,o),
(198,827,o),
(365,827,cs)
);
}
);
};
layerId = m004;
shapes = (
{
closed = 1;
nodes = (
(480,622,ls),
(239,622,o),
(91,529,o),
(91,313,cs),
(91,93,o),
(231,-35,o),
(448,-35,cs),
(637,-35,o),
(751,49,o),
(812,142,c),
(812,357,l),
(812,225,o),
(680,44,o),
(448,44,cs),
(293,44,o),
(186,139,o),
(186,316,cs),
(186,496,o),
(320,539,o),
(494,539,cs),
(835,539,l),
(835,622,l)
);
},
{
closed = 1;
nodes = (
(903,0,l),
(903,722,ls),
(903,944,o),
(750,1098,o),
(528,1098,cs),
(322,1098,o),
(184,963,o),
(160,800,c),
(255,800,l),
(277,919,o),
(371,1014,o),
(528,1014,cs),
(702,1014,o),
(812,899,o),
(812,721,cs),
(812,160,l),
(789,115,l),
(812,115,l),
(835,0,l)
);
}
);
width = 1036;
},
{
anchors = (
{
name = bottom;
pos = (587,0);
},
{
name = ogonek;
pos = (1070,13);
},
{
name = top;
pos = (587,1169);
}
);
layerId = m005;
shapes = (
{
closed = 1;
nodes = (
(542,645,ls),
(187,645,o),
(65,481,o),
(65,302,cs),
(65,104,o),
(216,-24,o),
(454,-24,cs),
(572,-24,o),
(693,9,o),
(751,116,c),
(724,430,l),
(724,213,o),
(603,198,o),
(506,198,cs),
(428,198,o),
(368,247,o),
(368,317,cs),
(368,411,o),
(428,440,o),
(551,440,cs),
(750,440,l),
(750,645,l)
);
},
{
closed = 1;
nodes = (
(1018,0,l),
(1021,707,ls),
(1022,989,o),
(795,1084,o),
(564,1084,cs),
(332,1084,o),
(138,969,o),
(99,688,c),
(386,688,l),
(387,804,o),
(486,827,o),
(557,827,cs),
(612,827,o),
(722,818,o),
(722,702,cs),
(722,209,l),
(751,116,l),
(774,116,l),
(809,0,l)
);
}
);
width = 1137;
},
{
anchors = (
{
name = bottom;
pos = (535,0);
},
{
name = ogonek;
pos = (1015,13);
},
{
name = top;
pos = (535,1169);
}
);
layerId = "1B8EDE0E-D46F-48F9-B9C6-2CD34FEA95FD";
shapes = (
{
closed = 1;
nodes = (
(448,656,ls),
(162,656,o),
(67,445,o),
(67,325,cs),
(67,115,o),
(220,-24,o),
(448,-24,cs),
(574,-24,o),
(695,20,o),
(747,93,c),
(748,375,l),
(748,226,o),
(625,144,o),
(448,144,cs),
(319,144,o),
(258,200,o),
(258,329,cs),
(258,438,o),
(331,493,o),
(470,493,cs),
(774,493,l),
(774,656,l)
);
},
{
closed = 1;
nodes = (
(943,0,l),
(945,715,ls),
(946,941,o),
(764,1084,o),
(537,1084,cs),
(316,1084,o),
(146,950,o),
(126,755,c),
(320,755,l),
(331,848,o),
(419,910,o),
(537,910,cs),
(670,910,o),
(751,826,o),
(750,693,cs),
(747,123,l),
(747,93,l),
(771,93,l),
(793,0,l)
);
}
);
width = 1068;
}
);
metricRight = "=n";
unicode = 97;
},
{
glyphname = b;
lastChange = "2025-11-28 20:58:23 +0000";
layers = (
{
anchors = (
{
name = bottom;
pos = (534,0);
},
{
name = center;
pos = (261,1367);
},
{
name = top;
pos = (534,1131);
}
);
layerId = m004;
shapes = (
{
closed = 1;
nodes = (
(213,0,l),
(236,110,l),
(258,110,l),
(236,186,l),
(238,1553,l),
(145,1553,l),
(148,0,l)
);
},
{
closed = 1;
nodes = (
(796,-35,o),
(974,104,o),
(974,419,cs),
(974,644,ls),
(974,958,o),
(796,1098,o),
(563,1098,cs),
(307,1098,o),
(213,956,o),
(196,660,c),
(238,660,l),
(238,871,o),
(323,1011,o),
(558,1011,cs),
(767,1011,o),
(882,882,o),
(882,648,cs),
(882,419,ls),
(882,186,o),
(767,52,o),
(558,52,cs),
(331,52,o),
(238,181,o),
(238,415,c),
(175,458,l),
(189,128,o),
(294,-35,o),
(563,-35,cs)
);
}
);
width = 1083;
},
{
anchors = (
{
name = bottom;
pos = (641,-832);
},
{
name = center;
pos = (319,535);
},
{
name = top;
pos = (641,299);
}
);
background = {
shapes = (
{
closed = 1;
nodes = (
(656,-21,o),
(830,66,o),
(830,359,cs),
(830,421,ls),
(830,712,o),
(663,801,o),
(508,801,cs),
(319,801,o),
(258,671,o),
(230,421,c),
(317,421,l),
(315,570,o),
(401,607,o),
(469,607,cs),
(534,607,o),
(605,563,o),
(605,421,cs),
(605,359,ls),
(605,218,o),
(534,173,o),
(469,173,cs),
(401,173,o),
(315,211,o),
(317,359,c),
(248,359,l),
(248,114,o),
(315,-21,o),
(503,-21,cs)
);
}
);
};
layerId = m005;
shapes = (
{
closed = 1;
nodes = (
(355,0,l),
(390,115,l),
(413,115,l),
(429,115,l),
(429,1540,l),
(123,1540,l),
(123,0,l)
);
},
{
closed = 1;
nodes = (
(887,-24,o),
(1117,95,o),
(1117,484,cs),
(1117,576,ls),
(1117,968,o),
(877,1084,o),
(674,1084,cs),
(444,1084,o),
(327,933,o),
(364,599,c),
(426,599,l),
(423,772,o),
(537,824,o),
(628,824,cs),
(715,824,o),
(811,765,o),
(811,599,cs),
(811,459,ls),
(811,294,o),
(715,234,o),
(628,234,cs),
(537,234,o),
(423,285,o),
(426,459,c),
(385,459,l),
(321,149,o),
(436,-24,o),
(682,-24,cs)
);
}
);
width = 1183;
},
{
anchors = (
{
name = bottom;
pos = (558,0);
},
{
name = center;
pos = (252,1367);
},
{
name = top;
pos = (558,1131);
}
);
layerId = "1B8EDE0E-D46F-48F9-B9C6-2CD34FEA95FD";
shapes = (
{
closed = 1;
nodes = (
(270,0,l),
(293,91,l),
(316,91,l),
(326,91,l),
(326,1540,l),
(131,1540,l),
(131,0,l)
);
},
{
closed = 1;
nodes = (
(844,-24,o),
(1021,157,o),
(1021,448,cs),
(1021,606,ls),
(1021,903,o),
(838,1084,o),
(577,1084,cs),
(374,1084,o),
(232,923,o),
(249,657,c),
(326,617,l),
(326,815,o),
(415,910,o),
(577,910,cs),
(740,910,o),
(828,815,o),
(828,617,cs),
(828,463,ls),
(828,263,o),
(740,150,o),
(577,150,cs),
(419,150,o),
(326,263,o),
(326,463,c),
(225,429,l),
(249,123,o),
(335,-24,o),
(577,-24,cs)
);
}
);
width = 1130;
}
);
metricLeft = n;
metricRight = o;
unicode = 98;
},
{
glyphname = c;
lastChange = "2025-11-28 20:59:31 +0000";
layers = (
{
anchors = (
{
name = bottom;
pos = (513,0);
},
{
name = top;
pos = (513,160);
}
);
layerId = m004;
shapes = (
{
closed = 1;
nodes = (
(713,-28,o),
(924,83,o),
(931,322,c),
(840,322,l),
(832,119,o),
(668,57,o),
(531,57,cs),
(383,57,o),
(196,131,o),
(200,416,cs),
(202,624,ls),
(204,932,o),
(383,1005,o),
(531,1005,cs),
(668,1005,o),
(832,934,o),
(840,718,c),
(931,718,l),
(924,972,o),
(713,1090,o),
(531,1090,cs),
(336,1090,o),
(115,976,o),
(110,626,cs),
(109,413,ls),
(115,87,o),
(336,-28,o),
(531,-28,cs)
);
}
);
width = 1025;
},
{
anchors = (
{
name = bottom;
pos = (569,0);
},
{
name = top;
pos = (569,1060);
}
);
layerId = m005;
shapes = (
{
closed = 1;
nodes = (
(869,-24,o),
(1061,156,o),
(1057,411,c),
(754,411,l),
(757,326,o),
(686,260,o),
(577,260,cs),
(452,260,o),
(379,347,o),
(379,482,cs),
(379,575,ls),
(379,711,o),
(452,798,o),
(577,798,cs),
(686,798,o),
(757,728,o),
(754,633,c),
(1057,633,l),
(1063,891,o),
(864,1084,o),
(577,1084,cs),
(277,1084,o),
(73,876,o),
(73,575,cs),
(73,482,ls),
(73,178,o),
(271,-24,o),
(577,-24,cs)
);
}
);
width = 1137;
},
{
anchors = (
{
name = bottom;
pos = (554,0);
},
{
name = top;
pos = (554,1060);
}
);
layerId = "1B8EDE0E-D46F-48F9-B9C6-2CD34FEA95FD";
shapes = (
{
closed = 1;
nodes = (
(822,-24,o),
(1012,136,o),
(1009,367,c),
(816,367,l),
(815,231,o),
(721,151,o),
(564,151,cs),
(397,151,o),
(305,244,o),
(305,419,cs),
(305,636,ls),
(305,812,o),
(397,909,o),
(564,909,cs),
(721,909,o),
(813,829,o),
(816,693,c),
(1008,693,l),
(1009,896,o),
(834,1084,o),
(564,1084,cs),
(293,1084,o),
(109,894,o),
(109,636,cs),
(109,419,ls),
(109,160,o),
(290,-24,o),
(564,-24,cs)
);
}
);
width = 1108;
}
);
metricLeft = o;
unicode = 99;
},
{
glyphname = d;
lastChange = "2025-11-28 21:00:31 +0000";
layers = (
{
anchors = (
{
name = bottom;
pos = (471,0);
},
{
name = center;
pos = (748,1367);
},
{
name = top;
pos = (471,1169);
},
{
name = topright;
pos = (908,1708);
}
);
background = {
shapes = (
{
closed = 0;
nodes = (
(-18,314,ls),
(-16,116,o),
(99,-21,o),
(276,-21,cs),
(451,-21,o),
(580,120,o),
(584,331,c),
(539,333,l),
(535,158,o),
(429,42,o),
(276,42,cs),
(142,42,o),
(52,151,o),
(51,315,cs)
);
}
);
};
layerId = m004;
shapes = (
{
closed = 1;
nodes = (
(931,0,l),
(932,1552,l),
(841,1552,l),
(842,187,l),
(821,112,l),
(842,112,l),
(864,0,l)
);
},
{
closed = 1;
nodes = (
(777,-35,o),
(890,128,o),
(908,458,c),
(845,413,l),
(845,183,o),
(742,51,o),
(523,51,cs),
(303,51,o),
(202,187,o),
(202,419,cs),
(202,648,ls),
(202,882,o),
(303,1014,o),
(523,1014,cs),
(748,1014,o),
(845,871,o),
(845,660,c),
(887,660,l),
(870,956,o),
(764,1098,o),
(521,1098,cs),
(276,1098,o),
(109,958,o),
(109,644,cs),
(109,419,ls),
(109,104,o),
(276,-35,o),
(521,-35,cs)
);
}
);
width = 1077;
},
{
anchors = (
{
name = bottom;
pos = (614,0);
},
{
name = center;
pos = (924,1367);
},
{
name = top;
pos = (614,1169);
},
{
name = topright;
pos = (1110,1708);
}
);
layerId = m005;
shapes = (
{
closed = 1;
nodes = (
(1060,0,l),
(1060,1553,l),
(754,1553,l),
(754,115,l),
(770,115,l),
(794,115,l),
(828,0,l)
);
},
{
closed = 1;
nodes = (
(744,-24,o),
(859,149,o),
(795,459,c),
(754,459,l),
(757,285,o),
(643,234,o),
(552,234,cs),
(465,234,o),
(369,294,o),
(369,459,cs),
(369,599,ls),
(369,765,o),
(465,824,o),
(552,824,cs),
(643,824,o),
(757,772,o),
(754,599,c),
(816,599,l),
(853,933,o),
(736,1084,o),
(506,1084,cs),
(303,1084,o),
(63,968,o),
(63,576,cs),
(63,484,ls),
(63,95,o),
(293,-24,o),
(498,-24,cs)
);
}
);
width = 1183;
},
{
anchors = (
{
name = bottom;
pos = (447,0);
},
{
name = center;
pos = (748,1367);
},
{
name = top;
pos = (447,1169);
},
{
name = topright;
pos = (951,1710);
}
);
background = {
shapes = (
{
closed = 0;
nodes = (
(601,1179,l),
(448,1179,l)
);
}
);
};
layerId = "1B8EDE0E-D46F-48F9-B9C6-2CD34FEA95FD";
shapes = (
{
closed = 1;
nodes = (
(1001,-7,l),
(1001,1540,l),
(805,1540,l),
(805,84,l),
(815,84,l),
(838,84,l),
(861,-7,l)
);
},
{
closed = 1;
nodes = (
(796,-24,o),
(882,123,o),
(906,429,c),
(805,463,l),
(805,263,o),
(712,150,o),
(554,150,cs),
(392,150,o),
(303,263,o),
(303,463,cs),
(303,617,ls),
(303,815,o),
(392,910,o),
(554,910,cs),
(716,910,o),
(805,815,o),
(805,617,c),
(882,657,l),
(899,923,o),
(757,1084,o),
(554,1084,cs),
(293,1084,o),
(109,903,o),
(109,606,cs),
(109,448,ls),
(109,157,o),
(287,-24,o),
(554,-24,cs)
);
}
);
width = 1132;
}
);
metricLeft = "=|b";
metricRight = "=|b";
unicode = 100;
},
{
glyphname = e;
lastChange = "2025-11-28 21:01:53 +0000";
layers = (
{
anchors = (
{
name = bottom;
pos = (548,0);
},
{
name = ogonek;
pos = (1050,15);
},
{
name = top;
pos = (548,1063);
}
);
layerId = m004;
shapes = (
{
closed = 1;
nodes = (
(987,479,l),
(987,561,l),
(896,566,l),
(125,566,l),
(125,479,l)
);
},
{
closed = 1;
nodes = (
(799,-35,o),
(982,113,o),
(987,319,c),
(896,319,l),
(890,155,o),
(744,52,o),
(560,52,cs),
(349,52,o),
(199,187,o),
(200,415,cs),
(203,615,ls),
(206,882,o),
(331,1012,o),
(560,1012,cs),
(783,1012,o),
(896,887,o),
(896,615,cs),
(896,551,l),
(987,551,l),
(987,615,ls),
(987,928,o),
(831,1098,o),
(560,1098,cs),
(284,1098,o),
(112,919,o),
(112,616,cs),
(109,413,ls),
(106,146,o),
(294,-35,o),
(560,-35,cs)
);
}
);
width = 1096;
},
{
anchors = (
{
name = bottom;
pos = (566,0);
},
{
name = ogonek;
pos = (1024,15);
},
{
name = top;
pos = (566,1063);
}
);
layerId = m005;
shapes = (
{
closed = 1;
nodes = (
(1057,441,l),
(1057,549,l),
(956,657,l),
(141,657,l),
(141,441,l)
);
},
{
closed = 1;
nodes = (
(845,-24,o),
(1044,147,o),
(1051,371,c),
(742,371,l),
(729,298,o),
(680,242,o),
(563,242,cs),
(454,242,o),
(376,325,o),
(376,451,cs),
(376,659,ls),
(376,757,o),
(444,819,o),
(563,819,cs),
(680,819,o),
(751,752,o),
(751,659,c),
(751,486,l),
(1057,486,l),
(1057,549,l),
(1067,869,o),
(863,1084,o),
(563,1084,cs),
(265,1084,o),
(73,876,o),
(73,576,cs),
(73,459,ls),
(73,81,o),
(355,-24,o),
(563,-24,cs)
);
}
);
width = 1129;
},
{
anchors = (
{
name = bottom;
pos = (580,0);
},
{
name = ogonek;
pos = (1044,15);
},
{
name = top;
pos = (579,1063);
}
);
layerId = "1B8EDE0E-D46F-48F9-B9C6-2CD34FEA95FD";
shapes = (
{
closed = 1;
nodes = (
(1051,445,l),
(1051,571,l),
(970,619,l),
(283,619,l),
(283,445,l)
);
},
{
closed = 1;
nodes = (
(858,-24,o),
(1038,147,o),
(1051,371,c),
(854,371,l),
(844,251,o),
(741,151,o),
(579,151,cs),
(421,151,o),
(305,266,o),
(305,424,cs),
(305,603,ls),
(305,799,o),
(412,909,o),
(579,909,cs),
(741,909,o),
(854,807,o),
(854,603,cs),
(854,551,l),
(1051,551,l),
(1051,609,ls),
(1051,903,o),
(854,1084,o),
(579,1084,cs),
(305,1084,o),
(109,903,o),
(109,609,cs),
(109,424,ls),
(109,157,o),
(305,-24,o),
(579,-24,cs)
);
}
);
width = 1160;
}
);
metricLeft = o;
metricRight = "=o";
unicode = 101;
},
{
glyphname = f;
lastChange = "2025-11-28 21:02:09 +0000";
layers = (
{
anchors = (
{
name = bottom;
pos = (313,0);
},
{
name = top;
pos = (313,1553);
}
);
layerId = m004;
shapes = (
{
closed = 1;
nodes = (
(291,0,l),
(291,980,l),
(541,980,l),
(541,1063,l),
(291,1063,l),
(291,1350,ls),
(291,1428,o),
(331,1469,o),
(403,1469,cs),
(563,1469,l),
(563,1553,l),
(406,1553,ls),
(271,1553,o),
(200,1482,o),
(200,1349,cs),
(200,1063,l),
(51,1063,l),
(51,980,l),
(200,980,l),
(200,0,l)
);
}
);
width = 523;
},
{
anchors = (
{
name = bottom;
pos = (397,0);
},
{
name = top;
pos = (397,1553);
}
);
layerId = m005;
shapes = (
{
closed = 1;
nodes = (
(518,0,l),
(518,811,l),
(748,811,l),
(748,1063,l),
(518,1063,l),
(518,1158,ls),
(518,1232,o),
(547,1264,o),
(610,1264,cs),
(748,1264,l),
(748,1540,l),
(500,1540,ls),
(342,1540,o),
(216,1438,o),
(216,1238,cs),
(216,1063,l),
(57,1063,l),
(57,811,l),
(216,811,l),
(216,0,l)
);
}
);
width = 760;
},
{
anchors = (
{
name = bottom;
pos = (363,3);
},
{
name = top;
pos = (363,1556);
}
);
background = {
shapes = (
{
closed = 0;
nodes = (
(284,830,l),
(284,876,o),
(310,906,o),
(352,906,cs),
(427,906,l),
(427,1027,l),
(352,1027,ls),
(234,1027,o),
(149,967,o),
(149,812,c)
);
}
);
};
layerId = "1B8EDE0E-D46F-48F9-B9C6-2CD34FEA95FD";
shapes = (
{
closed = 1;
nodes = (
(413,0,l),
(413,885,l),
(676,885,l),
(676,1060,l),
(410,1060,l),
(409,1193,ls),
(408,1261,o),
(450,1304,o),
(510,1304,cs),
(676,1304,l),
(676,1480,l),
(510,1480,ls),
(339,1480,o),
(216,1393,o),
(216,1172,cs),
(216,1060,l),
(65,1060,l),
(65,885,l),
(218,885,l),
(218,0,l)
);
}
);
width = 690;
}
);
unicode = 102;
},
{
glyphname = g;
lastChange = "2025-11-28 21:05:52 +0000";
layers = (
{
anchors = (
{
name = bottom;
pos = (595,-503);
},
{
name = top;
pos = (595,1131);
}
);
layerId = m004;
shapes = (
{
closed = 1;
nodes = (
(809,355,o),
(999,460,o),
(999,724,cs),
(1001,969,o),
(809,1096,o),
(597,1096,cs),
(389,1096,o),
(199,969,o),
(199,724,cs),
(199,460,o),
(389,355,o),
(597,355,cs)
);
},
{
closed = 1;
nodes = (
(393,434,o),
(287,539,o),
(287,724,cs),
(287,885,o),
(393,1015,o),
(597,1015,cs),
(803,1015,o),
(912,885,o),
(912,724,cs),
(912,539,o),
(803,434,o),
(597,434,cs)
);
},
{
closed = 1;
nodes = (
(680,38,l),
(680,90,l),
(463,90,ls),
(318,90,o),
(233,157,o),
(233,254,cs),
(233,373,o),
(281,405,o),
(373,492,c),
(313,547,l),
(238,458,o),
(144,389,o),
(144,248,cs),
(144,125,o),
(220,38,o),
(448,38,cs)
);
},
{
closed = 1;
nodes = (
(705,-448,ls),
(940,-448,o),
(1022,-320,o),
(1022,-178,cs),
(1022,-38,o),
(940,90,o),
(705,90,cs),
(392,90,ls),
(155,90,o),
(73,-38,o),
(73,-178,cs),
(73,-320,o),
(155,-448,o),
(392,-448,cs)
);
},
{
closed = 1;
nodes = (
(244,-365,o),
(164,-310,o),
(164,-175,cs),
(164,-46,o),
(244,9,o),
(389,9,cs),
(706,9,ls),
(858,9,o),
(931,-49,o),
(931,-175,cs),
(931,-306,o),
(858,-365,o),
(706,-365,cs),
(389,-365,ls)
);
},
{
closed = 1;
nodes = (
(909,967,l),
(909,1056,o),
(903,1077,o),
(980,1077,c),
(1040,1077,l),
(1040,1160,l),
(945,1160,l),
(853,1160,o),
(809,1115,o),
(809,967,c)
);
}
);
width = 1141;
},
{
anchors = (
{
name = bottom;
pos = (612,-249);
},
{
name = top;
pos = (612,1385);
}
);
layerId = m005;
shapes = (
{
closed = 1;
nodes = (
(851,328,o),
(1053,396,o),
(1053,702,cs),
(1053,1004,o),
(835,1084,o),
(628,1084,cs),
(422,1084,o),
(207,983,o),
(207,702,cs),
(207,396,o),
(409,328,o),
(628,328,cs)
);
},
{
closed = 1;
nodes = (
(528,528,o),
(452,581,o),
(452,704,cs),
(452,803,o),
(529,878,o),
(628,878,cs),
(726,878,o),
(807,803,o),
(807,704,cs),
(807,578,o),
(733,528,o),
(628,528,cs)
);
},
{
closed = 1;
nodes = (
(689,69,l),
(689,233,l),
(537,231,ls),
(441,230,o),
(328,247,o),
(328,335,cs),
(328,377,o),
(406,415,o),
(465,471,c),
(312,657,l),
(235,602,o),
(99,512,o),
(99,360,cs),
(99,190,o),
(203,69,o),
(465,69,cs)
);
},
{
closed = 1;
nodes = (
(689,-442,ls),
(989,-442,o),
(1092,-275,o),
(1092,-99,cs),
(1092,79,o),
(988,233,o),
(689,233,cs),
(535,233,ls),
(261,233,o),
(132,82,o),
(132,-99,cs),
(132,-275,o),
(235,-442,o),
(535,-442,cs)
);
},
{
closed = 1;
nodes = (
(394,-202,o),
(368,-169,o),
(368,-99,cs),
(368,-49,o),
(394,-6,o),
(472,-6,cs),
(752,-6,ls),
(822,-6,o),
(857,-49,o),
(857,-99,cs),
(857,-169,o),
(822,-202,o),
(752,-202,cs),
(472,-202,ls)
);
},
{
closed = 1;
nodes = (
(980,865,l),
(970,925,o),
(989,978,o),
(1138,965,c),
(1138,1049,l),
(1138,1171,l),
(1138,1229,l),
(840,1247,o),
(706,1023,o),
(725,865,c)
);
}
);
width = 1224;
},
{
anchors = (
{
name = bottom;
pos = (413,-529);
},
{
name = top;
pos = (413,953);
}
);
layerId = "1B8EDE0E-D46F-48F9-B9C6-2CD34FEA95FD";
shapes = (
{
closed = 1;
nodes = (
(776,342,o),
(969,430,o),
(969,712,cs),
(969,989,o),
(763,1084,o),
(564,1084,cs),
(365,1084,o),
(161,976,o),
(161,712,cs),
(161,430,o),
(354,342,o),
(564,342,cs)
);
},
{
closed = 1;
nodes = (
(429,497,o),
(344,564,o),
(344,715,cs),
(344,839,o),
(429,929,o),
(564,929,cs),
(702,929,o),
(783,839,o),
(783,715,cs),
(783,564,o),
(702,497,o),
(564,497,cs)
);
},
{
closed = 1;
nodes = (
(702,28,l),
(702,164,l),
(492,164,ls),
(370,164,o),
(281,245,o),
(281,315,cs),
(281,377,o),
(354,428,o),
(406,462,c),
(299,575,l),
(216,519,o),
(103,414,o),
(103,315,cs),
(103,206,o),
(189,54,o),
(428,41,cs)
);
},
{
closed = 1;
nodes = (
(695,-440,ls),
(954,-440,o),
(1059,-288,o),
(1059,-143,cs),
(1059,30,o),
(954,166,o),
(695,166,cs),
(444,166,ls),
(200,166,o),
(80,30,o),
(80,-143,cs),
(80,-288,o),
(183,-440,o),
(444,-440,cs)
);
},
{
closed = 1;
nodes = (
(344,-273,o),
(271,-223,o),
(271,-137,cs),
(271,-28,o),
(344,0,o),
(436,0,cs),
(699,0,ls),
(793,0,o),
(866,-45,o),
(866,-137,cs),
(866,-205,o),
(793,-273,o),
(699,-273,cs),
(436,-273,ls)
);
},
{
closed = 1;
nodes = (
(837,957,l),
(837,1022,o),
(854,1063,o),
(986,1063,c),
(986,1099,l),
(986,1206,l),
(986,1244,l),
(770,1244,o),
(683,1095,o),
(683,957,c)
);
}
);
width = 1117;
}
);
unicode = 103;
},
{
glyphname = h;
lastChange = "2025-11-28 21:07:05 +0000";
layers = (
{
anchors = (
{
name = bottom;
pos = (537,0);
},
{
name = center;
pos = (293,1243);
},
{
name = top;
pos = (537,1553);
}
);
layerId = m004;
shapes = (
{
closed = 1;
nodes = (
(236,0,l),
(236,1553,l),
(145,1553,l),
(145,0,l)
);
},
{
closed = 1;
nodes = (
(236,612,l),
(236,864,o),
(360,1005,o),
(567,1005,cs),
(741,1005,o),
(848,885,o),
(848,686,cs),
(848,0,l),
(940,0,l),
(940,702,ls),
(940,966,o),
(784,1090,o),
(567,1090,cs),
(300,1090,o),
(194,916,o),
(194,612,c)
);
}
);
width = 1073;
},
{
anchors = (
{
name = bottom;
pos = (603,-755);
},
{
name = center;
pos = (307,487);
},
{
name = top;
pos = (603,798);
}
);
layerId = m005;
shapes = (
{
closed = 1;
nodes = (
(429,0,l),
(429,1553,l),
(123,1553,l),
(123,0,l)
);
},
{
closed = 1;
nodes = (
(429,625,l),
(425,773,o),
(539,828,o),
(631,828,cs),
(715,828,o),
(808,780,o),
(808,583,cs),
(808,0,l),
(1105,0,l),
(1105,583,ls),
(1105,970,o),
(876,1084,o),
(671,1084,cs),
(415,1084,o),
(331,907,o),
(425,758,c)
);
}
);
width = 1221;
},
{
anchors = (
{
name = bottom;
pos = (563,-302);
},
{
name = center;
pos = (274,943);
},
{
name = top;
pos = (563,1253);
}
);
layerId = "1B8EDE0E-D46F-48F9-B9C6-2CD34FEA95FD";
shapes = (
{
closed = 1;
nodes = (
(332,0,l),
(332,1540,l),
(131,1540,l),
(131,0,l)
);
},
{
closed = 1;
nodes = (
(332,655,l),
(332,841,o),
(441,912,o),
(577,912,cs),
(713,912,o),
(821,841,o),
(821,655,cs),
(821,0,l),
(1016,0,l),
(1016,629,ls),
(1016,973,o),
(813,1084,o),
(609,1084,cs),
(376,1084,o),
(216,923,o),
(245,655,c)
);
}
);
width = 1139;
}
);
metricLeft = n;
metricRight = n;
unicode = 104;
},
{
glyphname = i;
lastChange = "2025-11-28 21:07:24 +0000";
layers = (
{
anchors = (
{
name = bottom;
pos = (247,0);
}
);
layerId = m004;
shapes = (
{
closed = 1;
nodes = (
(425,-28,l),
(425,55,l),
(396,55,ls),
(326,55,o),
(283,68,o),
(283,187,c),
(283,1063,l),
(191,1063,l),
(191,162,l),
(191,19,o),
(265,-28,o),
(396,-28,cs)
);
},
{
closed = 1;
nodes = (
(283,1209,o),
(310,1238,o),
(310,1285,cs),
(310,1333,o),
(283,1360,o),
(235,1360,cs),
(189,1360,o),
(160,1333,o),
(160,1285,cs),
(160,1238,o),
(189,1209,o),
(235,1209,cs)
);
}
);
width = 512;
},
{
anchors = (
{
name = bottom;
pos = (313,0);
}
);
background = {
shapes = (
{
closed = 0;
nodes = (
(212,72,ls),
(181,72,o),
(171,86,o),
(171,109,cs)
);
}
);
};
layerId = m005;
shapes = (
{
closed = 1;
nodes = (
(538,0,l),
(538,281,l),
(499,281,ls),
(448,281,o),
(428,302,o),
(428,361,cs),
(431,1060,l),
(125,1060,l),
(122,297,ls),
(121,88,o),
(252,0,o),
(407,0,cs)
);
},
{
closed = 1;
nodes = (
(389,1151,o),
(448,1218,o),
(448,1321,cs),
(448,1421,o),
(387,1485,o),
(274,1485,cs),
(162,1485,o),
(102,1421,o),
(102,1321,cs),
(102,1218,o),
(161,1151,o),
(274,1151,cs)
);
}
);
width = 647;
},
{
anchors = (
{
name = bottom;
pos = (242,-609);
}
);
layerId = "1B8EDE0E-D46F-48F9-B9C6-2CD34FEA95FD";
shapes = (
{
closed = 1;
nodes = (
(460,0,l),
(460,180,l),
(428,180,ls),
(358,180,o),
(318,219,o),
(318,294,cs),
(319,1063,l),
(123,1063,l),
(122,310,ls),
(122,87,o),
(247,0,o),
(416,0,cs)
);
},
{
closed = 1;
nodes = (
(300,1234,o),
(348,1280,o),
(348,1359,cs),
(348,1438,o),
(300,1485,o),
(220,1485,cs),
(139,1485,o),
(94,1438,o),
(94,1359,cs),
(94,1280,o),
(139,1234,o),
(220,1234,cs)
);
}
);
width = 551;
}
);
unicode = 105;
},
{
glyphname = idotless;
lastChange = "2025-11-28 20:07:16 +0000";
layers = (
{
anchors = (
{
name = bottom;
pos = (260,0);
},
{
name = ogonek;
pos = (405,0);
},
{
name = top;
pos = (260,1063);
}
);
layerId = m004;
shapes = (
{
closed = 1;
nodes = (
(405,-13,l),
(405,78,l),
(371,78,ls),
(297,78,o),
(249,93,o),
(249,223,c),
(249,1144,l),
(148,1144,l),
(148,196,l),
(148,38,o),
(229,-13,o),
(371,-13,cs)
);
}
);
width = 492;
},
{
anchors = (
{
name = bottom;
pos = (296,0);
},
{
name = ogonek;
pos = (460,0);
},
{
name = top;
pos = (223,1063);
}
);
layerId = "1B8EDE0E-D46F-48F9-B9C6-2CD34FEA95FD";
shapes = (
{
closed = 1;
nodes = (
(460,0,l),
(460,180,l),
(428,180,ls),
(358,180,o),
(318,219,o),
(318,294,cs),
(319,1063,l),
(123,1063,l),
(122,310,ls),
(122,87,o),
(247,0,o),
(416,0,cs)
);
}
);
width = 551;
},
{
anchors = (
{
name = bottom;
pos = (364,0);
},
{
name = ogonek;
pos = (613,0);
},
{
name = top;
pos = (364,1063);
}
);
layerId = m005;
shapes = (
{
closed = 1;
nodes = (
(613,0,l),
(613,287,l),
(470,287,ls),
(415,287,o),
(392,309,o),
(392,374,cs),
(394,1131,l),
(58,1131,l),
(55,418,ls),
(55,126,o),
(239,0,o),
(455,0,cs)
);
}
);
width = 722;
}
);
metricRight = i;
unicode = 305;
},
{
glyphname = j;
lastChange = "2025-11-28 21:07:20 +0000";
layers = (
{
layerId = m004;
shapes = (
{
closed = 1;
nodes = (
(228,-448,o),
(300,-402,o),
(300,-260,c),
(300,1063,l),
(210,1063,l),
(210,-235,l),
(210,-352,o),
(167,-365,o),
(99,-365,cs),
(-29,-365,l),
(-29,-448,l),
(99,-448,ls)
);
},
{
closed = 1;
nodes = (
(299,1209,o),
(326,1237,o),
(326,1283,cs),
(326,1330,o),
(299,1359,o),
(252,1359,cs),
(206,1359,o),
(177,1330,o),
(177,1283,cs),
(177,1237,o),
(206,1209,o),
(252,1209,cs)
);
}
);
width = 441;
},
{
background = {
shapes = (
{
closed = 0;
nodes = (
(138,-61,ls),
(138,-140,o),
(88,-173,o),
(29,-173,cs)
);
}
);
};
layerId = m005;
shapes = (
{
closed = 1;
nodes = (
(300,-448,o),
(426,-358,o),
(425,-151,cs),
(422,1060,l),
(116,1060,l),
(119,-77,ls),
(119,-141,o),
(99,-167,o),
(33,-167,cs),
(-80,-167,l),
(-80,-448,l),
(142,-448,ls)
);
},
{
closed = 1;
nodes = (
(386,1151,o),
(444,1219,o),
(444,1321,cs),
(444,1421,o),
(383,1483,o),
(273,1483,cs),
(160,1483,o),
(99,1421,o),
(99,1321,cs),
(99,1219,o),
(160,1151,o),
(273,1151,cs)
);
}
);
width = 542;
},
{
layerId = "1B8EDE0E-D46F-48F9-B9C6-2CD34FEA95FD";
shapes = (
{
closed = 1;
nodes = (
(244,-448,o),
(367,-361,o),
(367,-136,c),
(367,1063,l),
(171,1063,l),
(171,-162,l),
(171,-229,o),
(133,-273,o),
(73,-273,cs),
(-36,-273,l),
(-36,-448,l),
(73,-448,ls)
);
},
{
closed = 1;
nodes = (
(344,1234,o),
(392,1280,o),
(392,1359,cs),
(392,1438,o),
(344,1485,o),
(264,1485,cs),
(183,1485,o),
(138,1438,o),
(138,1359,cs),
(138,1280,o),
(183,1234,o),
(264,1234,cs)
);
}
);
width = 519;
}
);
unicode = 106;
},
{
glyphname = k;
lastChange = "2025-11-28 21:07:33 +0000";
layers = (
{
anchors = (
{
name = bottom;
pos = (576,0);
},
{
name = top;
pos = (576,1553);
}
);
layerId = m004;
shapes = (
{
closed = 1;
nodes = (
(145,0,l),
(236,0,l),
(236,1553,l),
(145,1553,l)
);
},
{
closed = 1;
nodes = (
(521,742,l),
(457,680,l),
(853,0,l),
(956,0,l)
);
},
{
closed = 1;
nodes = (
(232,365,l),
(893,1063,l),
(771,1063,l),
(180,434,l)
);
}
);
width = 1057;
},
{
anchors = (
{
name = bottom;
pos = (557,0);
},
{
name = top;
pos = (557,1553);
}
);
layerId = m005;
shapes = (
{
closed = 1;
nodes = (
(123,0,l),
(429,0,l),
(429,1540,l),
(123,1540,l)
);
},
{
closed = 1;
nodes = (
(644,705,l),
(297,705,l),
(771,0,l),
(1112,0,l)
);
},
{
closed = 1;
nodes = (
(374,368,l),
(1069,1060,l),
(699,1060,l),
(171,509,l)
);
}
);
width = 1227;
},
{
anchors = (
{
name = bottom;
pos = (493,0);
},
{
name = top;
pos = (493,1553);
}
);
layerId = "1B8EDE0E-D46F-48F9-B9C6-2CD34FEA95FD";
shapes = (
{
closed = 1;
nodes = (
(326,0,l),
(326,1540,l),
(131,1540,l),
(131,0,l)
);
},
{
closed = 1;
nodes = (
(993,0,l),
(579,708,l),
(367,695,l),
(777,0,l)
);
},
{
closed = 1;
nodes = (
(937,1060,l),
(692,1060,l),
(175,505,l),
(300,386,l)
);
}
);
width = 1048;
}
);
metricLeft = n;
unicode = 107;
},
{
glyphname = l;
lastChange = "2025-11-28 21:07:38 +0000";
layers = (
{
anchors = (
{
name = bottom;
pos = (219,30);
},
{
name = center;
pos = (219,615);
},
{
name = top;
pos = (219,1739);
},
{
name = topright;
pos = (402,1739);
}
);
background = {
shapes = (
{
closed = 1;
nodes = (
(162,-9,l),
(162,17,l),
(146,17,ls),
(120,17,o),
(103,23,o),
(103,72,cs),
(103,589,l),
(74,589,l),
(74,63,ls),
(74,9,o),
(97,-9,o),
(146,-9,cs)
);
}
);
};
layerId = m004;
shapes = (
{
closed = 1;
nodes = (
(378,0,l),
(378,84,l),
(348,84,ls),
(280,84,o),
(236,96,o),
(236,215,c),
(236,1553,l),
(145,1553,l),
(145,190,l),
(145,46,o),
(218,0,o),
(348,0,cs)
);
}
);
width = 465;
},
{
anchors = (
{
name = bottom;
pos = (351,0);
},
{
name = center;
pos = (351,584);
},
{
name = top;
pos = (351,1708);
},
{
name = topright;
pos = (580,1708);
}
);
background = {
shapes = (
{
closed = 0;
nodes = (
(89,113,ls),
(89,34,o),
(138,0,o),
(197,0,cs)
);
}
);
};
layerId = m005;
shapes = (
{
closed = 1;
nodes = (
(538,0,l),
(538,281,l),
(500,281,ls),
(450,281,o),
(429,302,o),
(429,361,cs),
(429,1540,l),
(123,1540,l),
(123,297,ls),
(123,90,o),
(252,0,o),
(407,0,cs)
);
}
);
width = 647;
},
{
anchors = (
{
name = bottom;
pos = (260,0);
},
{
name = center;
pos = (260,584);
},
{
name = top;
pos = (260,1710);
},
{
name = topright;
pos = (486,1710);
}
);
layerId = "1B8EDE0E-D46F-48F9-B9C6-2CD34FEA95FD";
shapes = (
{
closed = 1;
nodes = (
(470,0,l),
(470,175,l),
(436,175,ls),
(367,175,o),
(326,213,o),
(326,290,c),
(326,1540,l),
(131,1540,l),
(131,316,l),
(131,90,o),
(254,0,o),
(423,0,cs)
);
}
);
width = 561;
}
);
metricLeft = "=n";
metricRight = i;
unicode = 108;
},
{
glyphname = lslash;
lastChange = "2025-11-28 11:52:18 +0000";
layers = (
{
layerId = m004;
shapes = (
{
ref = l;
},
{
closed = 1;
nodes = (
(84,683,l),
(455,813,l),
(455,900,l),
(84,770,l)
);
}
);
width = 318;
},
{
layerId = "1B8EDE0E-D46F-48F9-B9C6-2CD34FEA95FD";
shapes = (
{
ref = l;
},
{
closed = 1;
nodes = (
(54,679,l),
(515,831,l),
(515,1037,l),
(54,885,l)
);
}
);
width = 354;
},
{
layerId = m005;
shapes = (
{
ref = l;
},
{
closed = 1;
nodes = (
(13,603,l),
(521,755,l),
(521,1031,l),
(13,877,l)
);
}
);
width = 297;
}
);
unicode = 322;
},
{
glyphname = m;
lastChange = "2025-11-28 21:07:56 +0000";
layers = (
{
anchors = (
{
name = bottom;
pos = (918,0);
},
{
name = top;
pos = (918,1169);
}
);
layerId = m004;
shapes = (
{
closed = 1;
nodes = (
(236,0,l),
(236,869,l),
(261,947,l),
(236,947,l),
(215,1063,l),
(145,1063,l),
(145,0,l)
);
},
{
closed = 1;
nodes = (
(899,0,l),
(899,706,ls),
(899,961,o),
(729,1098,o),
(522,1098,cs),
(296,1098,o),
(210,915,o),
(196,690,c),
(236,690,l),
(236,892,o),
(371,1012,o),
(522,1012,cs),
(674,1012,o),
(808,892,o),
(808,690,cs),
(808,0,l)
);
},
{
closed = 1;
nodes = (
(1560,0,l),
(1560,706,ls),
(1560,961,o),
(1389,1098,o),
(1183,1098,cs),
(958,1098,o),
(856,915,o),
(856,690,c),
(899,690,l),
(899,892,o),
(1031,1012,o),
(1183,1012,cs),
(1335,1012,o),
(1467,892,o),
(1467,690,cs),
(1467,0,l)
);
}
);
width = 1693;
},
{
anchors = (
{
name = bottom;
pos = (1008,0);
},
{
name = top;
pos = (1008,1169);
}
);
background = {
shapes = (
{
closed = 1;
nodes = (
(814,0,l),
(814,421,ls),
(814,714,o),
(658,801,o),
(491,801,cs),
(292,801,o),
(235,664,o),
(233,452,c),
(320,452,l),
(318,570,o),
(381,607,o),
(451,607,cs),
(520,607,o),
(583,567,o),
(583,452,cs),
(583,0,l)
);
}
);
};
layerId = m005;
shapes = (
{
closed = 1;
nodes = (
(431,0,l),
(431,945,l),
(415,945,l),
(392,945,l),
(355,1060,l),
(123,1060,l),
(123,0,l)
);
},
{
closed = 1;
nodes = (
(1099,0,l),
(1099,628,ls),
(1099,915,o),
(934,1084,o),
(696,1084,cs),
(451,1084,o),
(335,904,o),
(315,624,c),
(431,624,l),
(428,778,o),
(523,828,o),
(613,828,cs),
(706,828,o),
(802,773,o),
(802,624,cs),
(802,0,l)
);
},
{
closed = 1;
nodes = (
(1752,0,l),
(1752,582,ls),
(1752,969,o),
(1559,1084,o),
(1337,1084,cs),
(1074,1084,o),
(987,904,o),
(985,624,c),
(1099,624,l),
(1096,778,o),
(1180,828,o),
(1272,828,cs),
(1363,828,o),
(1446,773,o),
(1446,624,cs),
(1446,0,l)
);
}
);
width = 1868;
},
{
anchors = (
{
name = bottom;
pos = (937,0);
},
{
name = top;
pos = (937,1169);
}
);
layerId = "1B8EDE0E-D46F-48F9-B9C6-2CD34FEA95FD";
shapes = (
{
closed = 1;
nodes = (
(326,0,l),
(326,967,l),
(316,967,l),
(291,967,l),
(270,1060,l),
(131,1060,l),
(131,0,l)
);
},
{
closed = 1;
nodes = (
(969,0,l),
(969,658,ls),
(969,909,o),
(816,1084,o),
(599,1084,cs),
(371,1084,o),
(218,900,o),
(244,658,c),
(326,636,l),
(326,841,o),
(448,912,o),
(550,912,cs),
(651,912,o),
(774,841,o),
(774,636,cs),
(774,0,l)
);
},
{
closed = 1;
nodes = (
(1611,0,l),
(1611,639,ls),
(1611,971,o),
(1405,1084,o),
(1224,1084,cs),
(1032,1084,o),
(879,958,o),
(871,658,c),
(969,636,l),
(969,819,o),
(1090,912,o),
(1192,912,cs),
(1293,912,o),
(1415,841,o),
(1415,636,cs),
(1415,0,l)
);
}
);
width = 1734;
}
);
metricLeft = "=n";
metricRight = "=n";
unicode = 109;
},
{
glyphname = n;
lastChange = "2025-11-28 20:50:33 +0000";
layers = (
{
anchors = (
{
name = bottom;
pos = (535,0);
},
{
name = top;
pos = (535,1063);
}
);
background = {
shapes = (
{
closed = 0;
nodes = (
(219,404,ls),
(97,404,o),
(54,280,o),
(49,185,c)
);
}
);
};
layerId = m004;
shapes = (
{
closed = 1;
nodes = (
(235,676,l),
(235,880,o),
(347,1012,o),
(544,1012,cs),
(735,1012,o),
(851,892,o),
(851,676,cs),
(851,0,l),
(943,0,l),
(943,673,ls),
(943,969,o),
(792,1096,o),
(544,1096,cs),
(358,1096,o),
(177,954,o),
(194,676,c)
);
},
{
closed = 1;
nodes = (
(236,0,l),
(236,869,l),
(260,947,l),
(236,947,l),
(213,1061,l),
(145,1061,l),
(145,0,l)
);
}
);
width = 1076;
},
{
anchors = (
{
name = bottom;
pos = (666,0);
},
{
name = top;
pos = (666,1063);
}
);
background = {
shapes = (
{
closed = 0;
nodes = (
(701,265,ls),
(701,374,o),
(649,404,o),
(558,404,cs)
);
}
);
};
layerId = m005;
shapes = (
{
closed = 1;
nodes = (
(429,610,l),
(429,773,o),
(526,828,o),
(618,828,cs),
(709,828,o),
(812,773,o),
(812,610,cs),
(812,0,l),
(1114,0,l),
(1114,581,ls),
(1114,901,o),
(979,1084,o),
(696,1084,cs),
(476,1084,o),
(352,971,o),
(334,610,c)
);
},
{
closed = 1;
nodes = (
(429,0,l),
(429,945,l),
(413,945,l),
(390,945,l),
(355,1060,l),
(123,1060,l),
(123,0,l)
);
}
);
width = 1230;
},
{
anchors = (
{
name = bottom;
pos = (567,0);
},
{
name = top;
pos = (597,1063);
}
);
layerId = "1B8EDE0E-D46F-48F9-B9C6-2CD34FEA95FD";
shapes = (
{
closed = 1;
nodes = (
(326,641,l),
(326,841,o),
(435,912,o),
(571,912,cs),
(708,912,o),
(815,841,o),
(815,641,cs),
(815,0,l),
(1011,0,l),
(1011,629,ls),
(1011,973,o),
(808,1084,o),
(603,1084,cs),
(370,1084,o),
(210,923,o),
(239,641,c)
);
},
{
closed = 1;
nodes = (
(131,1060,l),
(131,0,l),
(326,0,l),
(326,971,l),
(315,971,l),
(293,971,l),
(271,1060,l)
);
}
);
width = 1134;
}
);
unicode = 110;
},
{
glyphname = o;
lastChange = "2025-11-28 20:55:23 +0000";
layers = (
{
anchors = (
{
name = bottom;
pos = (534,0);
},
{
name = center;
pos = (534,566);
},
{
name = ogonek;
pos = (969,13);
},
{
name = top;
pos = (534,1131);
},
{
name = topright;
pos = (1051,1131);
}
);
layerId = m004;
shapes = (
{
closed = 1;
nodes = (
(383,58,o),
(202,131,o),
(202,400,cs),
(202,638,ls),
(202,932,o),
(383,1003,o),
(534,1003,cs),
(673,1003,o),
(866,932,o),
(866,638,cs),
(866,400,ls),
(866,131,o),
(673,58,o),
(534,58,cs)
);
},
{
closed = 1;
nodes = (
(721,-26,o),
(958,94,o),
(958,397,cs),
(958,641,ls),
(958,969,o),
(721,1089,o),
(534,1089,cs),
(336,1089,o),
(109,973,o),
(109,641,cs),
(109,397,ls),
(109,90,o),
(336,-26,o),
(534,-26,cs)
);
}
);
width = 1067;
},
{
anchors = (
{
name = bottom;
pos = (632,15);
},
{
name = center;
pos = (632,580);
},
{
name = ogonek;
pos = (1130,41);
},
{
name = top;
pos = (632,1146);
},
{
name = topright;
pos = (1205,1146);
}
);
layerId = m005;
shapes = (
{
closed = 1;
nodes = (
(799,454,ls),
(799,292,o),
(671,241,o),
(581,241,cs),
(493,241,o),
(366,292,o),
(366,454,cs),
(366,604,ls),
(366,766,o),
(493,817,o),
(581,817,cs),
(671,817,o),
(799,766,o),
(799,604,c)
);
},
{
closed = 1;
nodes = (
(73,176,o),
(287,-24,o),
(581,-24,cs),
(866,-24,o),
(1092,185,o),
(1092,440,cs),
(1092,618,ls),
(1092,873,o),
(866,1082,o),
(581,1082,cs),
(287,1082,o),
(73,882,o),
(73,618,cs),
(73,440,ls)
);
}
);
width = 1165;
},
{
anchors = (
{
name = bottom;
pos = (570,15);
},
{
name = center;
pos = (570,580);
},
{
name = ogonek;
pos = (1047,41);
},
{
name = top;
pos = (573,1063);
},
{
name = topright;
pos = (1117,1146);
}
);
layerId = "1B8EDE0E-D46F-48F9-B9C6-2CD34FEA95FD";
shapes = (
{
closed = 1;
nodes = (
(425,151,o),
(302,252,o),
(302,425,cs),
(302,632,ls),
(302,805,o),
(425,909,o),
(573,909,cs),
(721,909,o),
(840,805,o),
(840,632,cs),
(840,425,ls),
(840,252,o),
(721,151,o),
(573,151,cs)
);
},
{
closed = 1;
nodes = (
(837,-24,o),
(1032,164,o),
(1032,425,cs),
(1032,632,ls),
(1032,893,o),
(837,1084,o),
(573,1084,cs),
(309,1084,o),
(109,893,o),
(109,632,cs),
(109,425,ls),
(109,160,o),
(309,-24,o),
(573,-24,cs)
);
}
);
width = 1141;
}
);
metricRight = "=|";
unicode = 111;
},
{
glyphname = oslash;
lastChange = "2025-11-28 20:07:16 +0000";
layers = (
{
anchors = (
{
name = top;
pos = (316,1028);
}
);
layerId = m004;
shapes = (
{
ref = o;
},
{
closed = 1;
nodes = (
(223,13,l),
(950,1041,l),
(831,1040,l),
(104,13,l)
);
}
);
width = 1062;
},
{
anchors = (
{
name = top;
pos = (547,1041);
}
);
layerId = "1B8EDE0E-D46F-48F9-B9C6-2CD34FEA95FD";
shapes = (
{
ref = o;
},
{
closed = 1;
nodes = (
(326,13,l),
(999,1041,l),
(763,1041,l),
(91,13,l)
);
}
);
width = 1123;
},
{
anchors = (
{
name = top;
pos = (547,1041);
}
);
layerId = m005;
shapes = (
{
ref = o;
},
{
closed = 1;
nodes = (
(310,13,l),
(1095,1041,l),
(805,1041,l),
(20,13,l)
);
}
);
width = 1115;
}
);
metricRight = "=|";
unicode = 248;
},
{
glyphname = p;
lastChange = "2025-11-28 21:09:22 +0000";
layers = (
{
anchors = (
{
name = bottom;
pos = (541,9);
},
{
name = top;
pos = (541,1070);
}
);
layerId = m004;
shapes = (
{
closed = 1;
nodes = (
(235,-448,l),
(235,877,l),
(260,956,l),
(235,956,l),
(213,1070,l),
(145,1070,l),
(145,-448,l)
);
},
{
closed = 1;
nodes = (
(287,1098,o),
(175,934,o),
(168,605,c),
(231,648,l),
(231,882,o),
(323,1012,o),
(552,1012,cs),
(760,1012,o),
(874,876,o),
(874,644,cs),
(874,415,ls),
(874,181,o),
(760,51,o),
(552,51,cs),
(316,51,o),
(231,193,o),
(231,405,c),
(189,405,l),
(207,109,o),
(300,-35,o),
(555,-35,cs),
(789,-35,o),
(966,104,o),
(966,421,cs),
(966,644,ls),
(966,960,o),
(789,1098,o),
(555,1098,cs)
);
}
);
width = 1075;
},
{
anchors = (
{
name = bottom;
pos = (618,0);
},
{
name = top;
pos = (618,1169);
}
);
background = {
shapes = (
{
closed = 1;
nodes = (
(371,-10,o),
(457,33,o),
(457,179,cs),
(457,211,ls),
(457,356,o),
(370,400,o),
(287,400,cs),
(196,400,o),
(157,335,o),
(157,226,c),
(201,226,l),
(200,285,o),
(235,303,o),
(268,303,cs),
(301,303,o),
(345,286,o),
(345,211,cs),
(345,179,ls),
(345,105,o),
(301,87,o),
(268,87,cs),
(235,87,o),
(200,106,o),
(201,164,c),
(166,164,l),
(166,57,o),
(209,-10,o),
(287,-10,cs)
);
}
);
};
layerId = m005;
shapes = (
{
closed = 1;
nodes = (
(429,-450,l),
(429,945,l),
(413,945,l),
(390,945,l),
(355,1060,l),
(123,1060,l),
(123,-450,l)
);
},
{
closed = 1;
nodes = (
(436,1084,o),
(321,911,o),
(385,601,c),
(426,601,l),
(429,775,o),
(548,826,o),
(628,826,cs),
(715,826,o),
(811,766,o),
(811,601,cs),
(811,461,ls),
(811,295,o),
(715,236,o),
(628,236,cs),
(546,236,o),
(429,288,o),
(426,461,c),
(364,461,l),
(327,127,o),
(444,-24,o),
(674,-24,cs),
(877,-24,o),
(1117,92,o),
(1117,484,cs),
(1117,576,ls),
(1117,965,o),
(887,1084,o),
(682,1084,cs)
);
}
);
width = 1190;
},
{
anchors = (
{
name = bottom;
pos = (599,0);
},
{
name = top;
pos = (599,1169);
}
);
layerId = "1B8EDE0E-D46F-48F9-B9C6-2CD34FEA95FD";
shapes = (
{
closed = 1;
nodes = (
(326,969,l),
(315,969,l),
(291,969,l),
(270,1060,l),
(131,1060,l),
(131,-440,l),
(326,-440,l)
);
},
{
closed = 1;
nodes = (
(351,1084,o),
(238,932,o),
(225,612,c),
(326,612,l),
(326,813,o),
(425,910,o),
(568,910,cs),
(729,910,o),
(828,799,o),
(828,612,cs),
(828,441,ls),
(828,258,o),
(729,148,o),
(568,148,cs),
(421,148,o),
(326,258,o),
(326,441,c),
(247,441,l),
(255,128,o),
(377,-24,o),
(608,-24,cs),
(867,-24,o),
(1021,155,o),
(1021,451,cs),
(1021,612,ls),
(1021,903,o),
(860,1084,o),
(596,1084,cs)
);
}
);
width = 1130;
}
);
metricLeft = "=n";
metricRight = o;
unicode = 112;
},
{
glyphname = q;
lastChange = "2025-11-28 21:09:32 +0000";
layers = (
{
anchors = (
{
name = bottom;
pos = (539,9);
},
{
name = top;
pos = (539,1070);
}
);
layerId = m004;
shapes = (
{
closed = 1;
nodes = (
(937,-448,l),
(937,1063,l),
(866,1063,l),
(844,948,l),
(821,948,l),
(844,870,l),
(844,-448,l)
);
},
{
closed = 1;
nodes = (
(286,1098,o),
(109,960,o),
(109,644,cs),
(109,421,ls),
(109,104,o),
(286,-33,o),
(519,-33,cs),
(774,-33,o),
(867,109,o),
(885,405,c),
(844,405,l),
(844,193,o),
(758,52,o),
(522,52,cs),
(315,52,o),
(200,183,o),
(200,415,cs),
(200,644,ls),
(200,876,o),
(315,1012,o),
(522,1012,cs),
(753,1012,o),
(844,882,o),
(844,648,c),
(908,606,l),
(900,935,o),
(789,1098,o),
(519,1098,cs)
);
}
);
width = 1070;
},
{
anchors = (
{
name = bottom;
pos = (1562,0);
},
{
name = top;
pos = (1562,1169);
}
);
layerId = m005;
shapes = (
{
closed = 1;
nodes = (
(1067,1060,l),
(835,1060,l),
(800,945,l),
(777,945,l),
(761,945,l),
(761,-450,l),
(1067,-450,l)
);
},
{
closed = 1;
nodes = (
(303,1084,o),
(73,965,o),
(73,576,cs),
(73,484,ls),
(73,92,o),
(313,-24,o),
(516,-24,cs),
(746,-24,o),
(863,127,o),
(826,461,c),
(764,461,l),
(761,288,o),
(644,236,o),
(562,236,cs),
(475,236,o),
(379,295,o),
(379,461,cs),
(379,601,ls),
(379,766,o),
(475,826,o),
(562,826,cs),
(642,826,o),
(761,775,o),
(764,601,c),
(805,601,l),
(869,911,o),
(754,1084,o),
(508,1084,cs)
);
}
);
width = 1183;
},
{
anchors = (
{
name = bottom;
pos = (567,0);
},
{
name = top;
pos = (567,1169);
}
);
layerId = "1B8EDE0E-D46F-48F9-B9C6-2CD34FEA95FD";
shapes = (
{
closed = 1;
nodes = (
(999,-448,l),
(999,1063,l),
(860,1063,l),
(838,972,l),
(815,972,l),
(803,972,l),
(803,-448,l)
);
},
{
closed = 1;
nodes = (
(270,1106,o),
(109,925,o),
(109,634,cs),
(109,432,ls),
(109,136,o),
(262,-43,o),
(522,-43,cs),
(753,-43,o),
(874,109,o),
(883,422,c),
(803,422,l),
(803,239,o),
(709,129,o),
(561,129,cs),
(400,129,o),
(302,239,o),
(302,422,cs),
(302,634,ls),
(302,821,o),
(400,932,o),
(561,932,cs),
(705,932,o),
(803,835,o),
(803,634,c),
(905,634,l),
(892,954,o),
(779,1106,o),
(534,1106,cs)
);
}
);
width = 1122;
}
);
metricLeft = "=o";
metricRight = "=n";
unicode = 113;
},
{
glyphname = r;
lastChange = "2025-11-29 10:20:41 +0000";
layers = (
{
anchors = (
{
name = bottom;
pos = (299,0);
},
{
name = top;
pos = (299,1031);
}
);
layerId = m004;
shapes = (
{
closed = 1;
nodes = (
(235,618,l),
(235,866,o),
(342,977,o),
(496,977,c),
(535,977,l),
(535,1063,l),
(496,1063,l),
(271,1063,o),
(183,877,o),
(183,618,c)
);
},
{
closed = 1;
nodes = (
(236,0,l),
(236,870,l),
(260,948,l),
(236,948,l),
(213,1063,l),
(145,1063,l),
(145,0,l)
);
}
);
width = 567;
},
{
anchors = (
{
name = bottom;
pos = (435,0);
},
{
name = top;
pos = (435,1131);
}
);
background = {
shapes = (
{
closed = 1;
nodes = (
(444,0,l),
(444,221,ls),
(444,360,o),
(356,400,o),
(280,400,cs),
(207,400,o),
(148,358,o),
(144,247,c),
(188,247,l),
(191,303,o),
(231,324,o),
(268,324,cs),
(306,324,o),
(358,303,o),
(358,221,cs),
(358,0,l)
);
}
);
};
layerId = m005;
shapes = (
{
closed = 1;
nodes = (
(431,502,l),
(431,758,o),
(502,786,o),
(670,786,cs),
(744,786,l),
(744,1060,l),
(670,1060,ls),
(358,1060,o),
(344,822,o),
(335,502,c)
);
},
{
closed = 1;
nodes = (
(429,0,l),
(429,945,l),
(413,945,l),
(390,945,l),
(355,1060,l),
(123,1060,l),
(123,0,l)
);
}
);
width = 742;
},
{
anchors = (
{
name = bottom;
pos = (344,0);
},
{
name = top;
pos = (344,1028);
}
);
layerId = "1B8EDE0E-D46F-48F9-B9C6-2CD34FEA95FD";
shapes = (
{
closed = 1;
nodes = (
(326,571,l),
(326,815,o),
(429,884,o),
(595,884,c),
(645,884,l),
(645,1060,l),
(581,1060,l),
(316,1060,o),
(157,868,o),
(225,571,c)
);
},
{
closed = 1;
nodes = (
(326,0,l),
(326,967,l),
(315,967,l),
(291,967,l),
(268,1060,l),
(131,1060,l),
(131,0,l)
);
}
);
width = 741;
}
);
metricLeft = "=n";
unicode = 114;
},
{
glyphname = s;
lastChange = "2025-11-28 21:10:11 +0000";
layers = (
{
anchors = (
{
name = bottom;
pos = (457,0);
},
{
name = top;
pos = (457,1028);
}
);
layerId = m004;
shapes = (
{
closed = 1;
nodes = (
(689,-28,o),
(825,59,o),
(825,247,cs),
(825,434,o),
(660,493,o),
(474,576,cs),
(323,642,o),
(236,713,o),
(236,838,cs),
(236,950,o),
(320,1008,o),
(458,1008,cs),
(595,1008,o),
(702,957,o),
(702,805,c),
(793,805,l),
(793,1021,o),
(619,1090,o),
(458,1090,cs),
(284,1090,o),
(145,992,o),
(145,829,cs),
(145,676,o),
(235,581,o),
(436,496,cs),
(605,423,o),
(734,374,o),
(734,242,cs),
(734,71,o),
(581,55,o),
(480,55,cs),
(342,55,o),
(209,132,o),
(200,310,c),
(109,310,l),
(115,87,o),
(299,-28,o),
(480,-28,cs)
);
}
);
width = 948;
},
{
anchors = (
{
name = bottom;
pos = (464,13);
},
{
name = top;
pos = (464,1041);
}
);
layerId = m005;
shapes = (
{
closed = 1;
nodes = (
(748,-24,o),
(885,124,o),
(885,273,cs),
(885,471,o),
(800,527,o),
(589,626,cs),
(442,695,o),
(365,715,o),
(365,777,cs),
(365,845,o),
(406,869,o),
(474,869,cs),
(555,869,o),
(600,814,o),
(589,709,c),
(886,709,l),
(902,1019,o),
(631,1084,o),
(474,1084,cs),
(322,1084,o),
(77,1022,o),
(77,785,cs),
(77,621,o),
(152,542,o),
(360,453,cs),
(509,391,o),
(579,358,o),
(579,305,cs),
(579,269,o),
(555,224,o),
(480,224,cs),
(378,224,o),
(331,271,o),
(338,405,c),
(44,405,l),
(33,137,o),
(157,-24,o),
(487,-24,cs)
);
}
);
width = 932;
},
{
anchors = (
{
name = bottom;
pos = (481,0);
},
{
name = top;
pos = (481,1016);
}
);
layerId = "1B8EDE0E-D46F-48F9-B9C6-2CD34FEA95FD";
shapes = (
{
closed = 1;
nodes = (
(725,-24,o),
(861,105,o),
(861,271,cs),
(861,409,o),
(764,504,o),
(545,603,cs),
(450,646,o),
(307,679,o),
(307,766,cs),
(307,843,o),
(384,905,o),
(483,905,cs),
(595,905,o),
(664,847,o),
(664,755,c),
(858,755,l),
(858,939,o),
(712,1084,o),
(483,1084,cs),
(254,1084,o),
(117,953,o),
(117,788,cs),
(117,559,o),
(348,494,o),
(458,444,cs),
(545,403,o),
(682,377,o),
(682,277,cs),
(682,199,o),
(599,138,o),
(496,138,cs),
(367,138,o),
(278,199,o),
(267,337,c),
(91,337,l),
(104,93,o),
(248,-24,o),
(500,-24,cs)
);
}
);
width = 964;
}
);
unicode = 115;
},
{
glyphname = t;
lastChange = "2025-11-28 12:04:42 +0000";
layers = (
{
anchors = (
{
name = bottom;
pos = (342,0);
},
{
name = center;
pos = (342,513);
},
{
name = top;
pos = (342,1250);
},
{
name = topright;
pos = (608,1553);
}
);
layerId = m004;
shapes = (
{
closed = 1;
nodes = (
(535,0,l),
(535,83,l),
(421,83,ls),
(352,83,o),
(309,96,o),
(309,215,c),
(309,1283,l),
(218,1283,l),
(218,190,l),
(218,46,o),
(290,0,o),
(421,0,cs)
);
},
{
closed = 1;
nodes = (
(535,980,l),
(535,1063,l),
(91,1063,l),
(91,980,l)
);
}
);
width = 624;
},
{
anchors = (
{
name = bottom;
pos = (418,0);
},
{
name = center;
pos = (418,513);
},
{
name = top;
pos = (418,1283);
},
{
name = topright;
pos = (813,1553);
}
);
layerId = m005;
shapes = (
{
closed = 1;
nodes = (
(747,0,l),
(747,281,l),
(568,281,ls),
(519,281,o),
(497,302,o),
(497,361,cs),
(500,1318,l),
(194,1318,l),
(191,302,ls),
(191,88,o),
(322,0,o),
(477,0,cs)
);
},
{
closed = 1;
nodes = (
(747,811,l),
(747,1063,l),
(23,1063,l),
(23,809,l)
);
}
);
width = 861;
},
{
anchors = (
{
name = bottom;
pos = (416,0);
},
{
name = center;
pos = (416,513);
},
{
name = top;
pos = (349,1306);
},
{
name = topright;
pos = (779,1553);
}
);
layerId = "1B8EDE0E-D46F-48F9-B9C6-2CD34FEA95FD";
shapes = (
{
closed = 1;
nodes = (
(683,0,l),
(683,180,l),
(547,180,ls),
(477,180,o),
(439,219,o),
(439,294,c),
(441,1303,l),
(245,1303,l),
(244,310,l),
(244,87,o),
(368,0,o),
(535,0,cs)
);
},
{
closed = 1;
nodes = (
(683,884,l),
(683,1060,l),
(80,1060,l),
(80,884,l)
);
}
);
width = 786;
}
);
unicode = 116;
},
{
glyphname = u;
lastChange = "2025-11-28 21:10:33 +0000";
layers = (
{
anchors = (
{
name = bottom;
pos = (544,0);
},
{
name = ogonek;
pos = (1067,15);
},
{
name = top;
pos = (544,1063);
},
{
name = topright;
pos = (1169,1063);
}
);
layerId = m004;
shapes = (
{
closed = 1;
nodes = (
(842,400,l),
(842,145,o),
(718,49,o),
(509,49,cs),
(297,49,o),
(226,209,o),
(226,396,cs),
(226,1063,l),
(133,1063,l),
(133,405,ls),
(133,187,o),
(216,-35,o),
(509,-35,cs),
(777,-35,o),
(860,94,o),
(885,400,c)
);
},
{
closed = 1;
nodes = (
(934,0,l),
(934,1063,l),
(841,1063,l),
(841,194,l),
(819,116,l),
(841,116,l),
(864,0,l)
);
}
);
width = 1079;
},
{
anchors = (
{
name = bottom;
pos = (564,0);
},
{
name = ogonek;
pos = (1099,15);
},
{
name = top;
pos = (564,1063);
},
{
name = topright;
pos = (1204,1063);
}
);
layerId = m005;
shapes = (
{
closed = 1;
nodes = (
(808,450,l),
(808,287,o),
(711,232,o),
(619,232,cs),
(528,232,o),
(425,287,o),
(425,450,cs),
(425,1060,l),
(123,1060,l),
(123,479,ls),
(123,159,o),
(258,-24,o),
(541,-24,cs),
(761,-24,o),
(885,89,o),
(903,450,c)
);
},
{
closed = 1;
nodes = (
(808,1060,l),
(808,115,l),
(824,115,l),
(847,115,l),
(882,0,l),
(1114,0,l),
(1114,1060,l)
);
}
);
width = 1229;
},
{
anchors = (
{
name = bottom;
pos = (567,0);
},
{
name = ogonek;
pos = (1021,15);
},
{
name = top;
pos = (545,1063);
},
{
name = topright;
pos = (1105,1063);
}
);
layerId = "1B8EDE0E-D46F-48F9-B9C6-2CD34FEA95FD";
shapes = (
{
closed = 1;
nodes = (
(808,419,l),
(808,219,o),
(699,148,o),
(563,148,cs),
(426,148,o),
(319,219,o),
(319,419,cs),
(319,1060,l),
(123,1060,l),
(123,431,ls),
(123,87,o),
(326,-24,o),
(531,-24,cs),
(764,-24,o),
(924,136,o),
(895,419,c)
);
},
{
closed = 1;
nodes = (
(1003,0,l),
(1003,1060,l),
(808,1060,l),
(808,88,l),
(819,88,l),
(841,88,l),
(863,0,l)
);
}
);
width = 1134;
}
);
metricLeft = "=|n";
metricRight = "=|n";
unicode = 117;
},
{
glyphname = v;
lastChange = "2025-11-28 21:10:38 +0000";
layers = (
{
anchors = (
{
name = bottom;
pos = (441,0);
},
{
name = top;
pos = (441,1031);
}
);
layerId = m004;
shapes = (
{
closed = 1;
nodes = (
(400,0,l),
(479,0,l),
(837,1063,l),
(742,1063,l),
(416,75,l),
(465,75,l),
(135,1063,l),
(44,1063,l)
);
}
);
width = 881;
},
{
anchors = (
{
name = bottom;
pos = (612,0);
},
{
name = top;
pos = (612,1131);
}
);
layerId = m005;
shapes = (
{
closed = 1;
nodes = (
(426,0,l),
(687,0,l),
(1108,1060,l),
(800,1060,l),
(457,133,l),
(654,133,l),
(331,1060,l),
(6,1060,l)
);
}
);
width = 1114;
},
{
anchors = (
{
name = bottom;
pos = (570,-1);
},
{
name = top;
pos = (570,1130);
}
);
layerId = "1B8EDE0E-D46F-48F9-B9C6-2CD34FEA95FD";
shapes = (
{
closed = 1;
nodes = (
(448,0,l),
(597,0,l),
(1002,1060,l),
(792,1060,l),
(481,138,l),
(563,138,l),
(254,1060,l),
(44,1060,l)
);
}
);
width = 1046;
}
);
metricRight = "=|";
unicode = 118;
},
{
glyphname = w;
lastChange = "2025-11-28 21:10:42 +0000";
layers = (
{
anchors = (
{
name = bottom;
pos = (750,0);
},
{
name = top;
pos = (750,1031);
}
);
layerId = m004;
shapes = (
{
closed = 1;
nodes = (
(455,0,l),
(763,987,l),
(735,987,l),
(1043,0,l),
(1121,0,l),
(1456,1063,l),
(1363,1063,l),
(1054,71,l),
(1109,68,l),
(803,1063,l),
(695,1063,l),
(392,75,l),
(444,75,l),
(135,1063,l),
(44,1063,l),
(378,0,l)
);
}
);
width = 1500;
},
{
anchors = (
{
name = bottom;
pos = (890,0);
},
{
name = top;
pos = (890,1131);
}
);
layerId = m005;
shapes = (
{
closed = 1;
nodes = (
(624,0,l),
(885,858,l),
(732,858,l),
(1024,0,l),
(1306,0,l),
(1615,1060,l),
(1321,1060,l),
(1099,199,l),
(1221,199,l),
(950,1060,l),
(671,1060,l),
(422,199,l),
(552,199,l),
(305,1060,l),
(6,1060,l),
(338,0,l)
);
}
);
width = 1621;
},
{
anchors = (
{
name = bottom;
pos = (866,-1);
},
{
name = top;
pos = (866,1130);
}
);
layerId = "1B8EDE0E-D46F-48F9-B9C6-2CD34FEA95FD";
shapes = (
{
closed = 1;
nodes = (
(544,0,l),
(818,870,l),
(766,870,l),
(1060,0,l),
(1222,0,l),
(1543,1060,l),
(1335,1060,l),
(1115,186,l),
(1164,186,l),
(882,1060,l),
(706,1060,l),
(438,186,l),
(486,186,l),
(251,1060,l),
(44,1060,l),
(380,0,l)
);
}
);
width = 1587;
}
);
metricLeft = "=v";
metricRight = "=|";
unicode = 119;
},
{
glyphname = x;
lastChange = "2025-11-28 20:07:16 +0000";
layers = (
{
anchors = (
{
name = bottom;
pos = (561,-1);
},
{
name = top;
pos = (561,1130);
}
);
layerId = m004;
shapes = (
{
closed = 1;
nodes = (
(943,0,l),
(216,1063,l),
(110,1063,l),
(837,0,l)
);
},
{
closed = 1;
nodes = (
(551,499,l),
(916,1063,l),
(811,1063,l),
(496,571,l)
);
},
{
closed = 1;
nodes = (
(204,0,l),
(541,499,l),
(486,571,l),
(99,0,l)
);
}
);
width = 1042;
},
{
anchors = (
{
name = bottom;
pos = (638,-1);
},
{
name = top;
pos = (638,1130);
}
);
layerId = m005;
shapes = (
{
closed = 1;
nodes = (
(1151,1,l),
(373,1061,l),
(13,1061,l),
(790,1,l)
);
},
{
closed = 1;
nodes = (
(676,407,l),
(1137,1061,l),
(790,1061,l),
(486,628,l)
);
},
{
closed = 1;
nodes = (
(363,1,l),
(700,463,l),
(510,680,l),
(13,1,l)
);
}
);
width = 1164;
},
{
anchors = (
{
name = bottom;
pos = (542,0);
},
{
name = top;
pos = (542,1028);
}
);
layerId = "1B8EDE0E-D46F-48F9-B9C6-2CD34FEA95FD";
shapes = (
{
closed = 1;
nodes = (
(1021,0,l),
(286,1060,l),
(61,1060,l),
(795,0,l)
);
},
{
closed = 1;
nodes = (
(603,451,l),
(1028,1060,l),
(803,1060,l),
(484,606,l)
);
},
{
closed = 1;
nodes = (
(470,606,l),
(54,0,l),
(280,0,l),
(589,451,l)
);
}
);
width = 1082;
}
);
metricRight = "=|";
unicode = 120;
},
{
glyphname = y;
lastChange = "2025-11-28 21:10:59 +0000";
layers = (
{
anchors = (
{
name = bottom;
pos = (494,0);
},
{
name = top;
pos = (494,1131);
}
);
background = {
shapes = (
{
closed = 1;
nodes = (
(277,0,l),
(336,0,l),
(607,806,l),
(536,806,l),
(289,57,l),
(326,57,l),
(76,806,l),
(7,806,l)
);
}
);
};
layerId = m004;
shapes = (
{
closed = 1;
nodes = (
(94,-448,l),
(278,-448,o),
(348,-391,o),
(402,-232,cs),
(837,1060,l),
(744,1063,l),
(415,81,l),
(463,81,l),
(136,1060,l),
(48,1060,l),
(400,6,l),
(403,46,l),
(319,-204,ls),
(289,-296,o),
(242,-362,o),
(129,-362,c),
(15,-362,l),
(15,-448,l)
);
}
);
width = 881;
},
{
anchors = (
{
name = bottom;
pos = (632,251);
},
{
name = top;
pos = (632,1382);
}
);
layerId = m005;
shapes = (
{
closed = 1;
nodes = (
(248,-448,l),
(429,-448,o),
(530,-347,o),
(583,-213,cs),
(1083,1060,l),
(766,1060,l),
(447,139,l),
(634,139,l),
(315,1060,l),
(-7,1060,l),
(474,-186,l),
(484,245,l),
(358,-51,ls),
(323,-129,o),
(286,-181,o),
(223,-181,cs),
(15,-181,l),
(15,-448,l)
);
}
);
width = 1089;
},
{
anchors = (
{
name = bottom;
pos = (599,249);
},
{
name = top;
pos = (499,1063);
}
);
background = {
shapes = (
{
closed = 1;
nodes = (
(309,0,l),
(412,0,l),
(691,733,l),
(546,733,l),
(332,95,l),
(388,95,l),
(175,733,l),
(30,733,l)
);
}
);
};
layerId = "1B8EDE0E-D46F-48F9-B9C6-2CD34FEA95FD";
shapes = (
{
closed = 1;
nodes = (
(225,-448,l),
(381,-448,o),
(455,-371,o),
(509,-231,cs),
(1003,1060,l),
(795,1060,l),
(481,145,l),
(561,145,l),
(254,1060,l),
(44,1060,l),
(465,-43,l),
(439,93,l),
(368,-116,ls),
(338,-207,o),
(286,-273,o),
(196,-273,c),
(52,-273,l),
(52,-448,l)
);
}
);
width = 1047;
}
);
metricRight = "=v";
unicode = 121;
},
{
glyphname = z;
lastChange = "2025-11-28 21:10:52 +0000";
layers = (
{
anchors = (
{
name = bottom;
pos = (493,0);
},
{
name = center;
pos = (493,532);
},
{
name = top;
pos = (493,1063);
}
);
layerId = m004;
shapes = (
{
closed = 1;
nodes = (
(138,68,l),
(138,0,l),
(847,0,l),
(847,83,l),
(260,83,l),
(847,993,l),
(847,1063,l),
(138,1063,l),
(138,979,l),
(726,979,l)
);
}
);
width = 985;
},
{
anchors = (
{
name = bottom;
pos = (468,0);
},
{
name = center;
pos = (468,532);
},
{
name = top;
pos = (468,1063);
}
);
layerId = m005;
shapes = (
{
closed = 1;
nodes = (
(44,218,l),
(44,0,l),
(892,0,l),
(892,274,l),
(465,274,l),
(892,842,l),
(892,1060,l),
(44,1060,l),
(44,786,l),
(468,786,l)
);
}
);
width = 936;
},
{
anchors = (
{
name = bottom;
pos = (481,0);
},
{
name = center;
pos = (481,532);
},
{
name = top;
pos = (481,1063);
}
);
layerId = "1B8EDE0E-D46F-48F9-B9C6-2CD34FEA95FD";
shapes = (
{
closed = 1;
nodes = (
(91,125,l),
(91,0,l),
(870,0,l),
(870,170,l),
(347,170,l),
(870,935,l),
(870,1060,l),
(91,1060,l),
(91,890,l),
(618,890,l)
);
}
);
width = 961;
}
);
metricRight = "=|";
unicode = 122;
},
{
glyphname = zero;
lastChange = "2025-11-28 12:19:03 +0000";
layers = (
{
layerId = m004;
shapes = (
{
closed = 1;
nodes = (
(686,-35,o),
(886,77,o),
(886,358,cs),
(886,1127,ls),
(886,1408,o),
(686,1520,o),
(519,1520,cs),
(332,1520,o),
(154,1408,o),
(154,1127,cs),
(154,358,ls),
(154,77,o),
(332,-35,o),
(519,-35,cs)
);
},
{
closed = 1;
nodes = (
(347,46,o),
(251,165,o),
(251,367,cs),
(251,1118,ls),
(251,1320,o),
(347,1438,o),
(519,1438,cs),
(670,1438,o),
(789,1320,o),
(789,1118,cs),
(789,367,ls),
(789,165,o),
(670,46,o),
(519,46,cs)
);
}
);
width = 1040;
},
{
layerId = m005;
shapes = (
{
closed = 1;
nodes = (
(850,-49,o),
(1228,88,o),
(1228,547,cs),
(1228,912,ls),
(1228,1395,o),
(850,1534,o),
(647,1534,cs),
(397,1534,o),
(65,1395,o),
(65,912,cs),
(65,547,ls),
(65,88,o),
(397,-49,o),
(647,-49,cs)
);
},
{
closed = 1;
nodes = (
(508,238,o),
(386,294,o),
(386,537,cs),
(386,925,ls),
(386,1190,o),
(508,1244,o),
(647,1244,cs),
(784,1244,o),
(908,1190,o),
(908,925,cs),
(908,537,ls),
(908,286,o),
(784,238,o),
(647,238,cs)
);
}
);
width = 1293;
},
{
layerId = "1B8EDE0E-D46F-48F9-B9C6-2CD34FEA95FD";
shapes = (
{
closed = 1;
nodes = (
(903,-43,o),
(1079,139,o),
(1079,454,cs),
(1079,1031,ls),
(1079,1347,o),
(903,1528,o),
(603,1528,cs),
(303,1528,o),
(128,1347,o),
(128,1031,cs),
(128,454,ls),
(128,139,o),
(303,-43,o),
(603,-43,cs)
);
},
{
closed = 1;
nodes = (
(409,135,o),
(332,235,o),
(332,487,cs),
(332,999,ls),
(332,1251,o),
(409,1351,o),
(603,1351,cs),
(798,1351,o),
(874,1251,o),
(874,999,cs),
(874,487,ls),
(874,235,o),
(798,135,o),
(603,135,cs)
);
}
);
width = 1207;
}
);
metricRight = "=|";
unicode = 48;
},
{
glyphname = one;
lastChange = "2025-11-28 20:07:16 +0000";
layers = (
{
background = {
shapes = (
{
closed = 0;
nodes = (
(126,581,l),
(126,536,o),
(109,530,o),
(83,530,cs),
(35,530,l),
(35,499,l),
(83,499,ls),
(133,499,o),
(160,516,o),
(160,571,c)
);
}
);
};
layerId = m004;
shapes = (
{
closed = 1;
nodes = (
(493,1485,l),
(399,1485,l),
(399,1459,ls),
(399,1331,o),
(325,1317,o),
(196,1317,cs),
(87,1317,l),
(87,1234,l),
(399,1234,l),
(399,0,l),
(493,0,l)
);
}
);
width = 609;
},
{
layerId = m005;
shapes = (
{
closed = 1;
nodes = (
(741,1485,l),
(434,1485,l),
(434,1459,l),
(434,1315,o),
(339,1285,o),
(245,1285,c),
(100,1285,l),
(100,1011,l),
(434,1011,l),
(434,0,l),
(741,0,l)
);
}
);
width = 864;
},
{
layerId = "1B8EDE0E-D46F-48F9-B9C6-2CD34FEA95FD";
shapes = (
{
closed = 1;
nodes = (
(580,1485,l),
(378,1485,l),
(378,1451,l),
(378,1318,o),
(290,1293,o),
(181,1293,c),
(112,1293,l),
(112,1138,l),
(378,1138,l),
(378,0,l),
(580,0,l)
);
}
);
width = 730;
}
);
metricRight = "=H";
unicode = 49;
},
{
glyphname = two;
lastChange = "2025-11-28 11:52:18 +0000";
layers = (
{
background = {
shapes = (
{
closed = 0;
nodes = (
(46,354,l)
);
}
);
};
layerId = m004;
shapes = (
{
closed = 1;
nodes = (
(844,0,l),
(844,83,l),
(184,83,l),
(206,19,l),
(608,535,ls),
(784,763,o),
(860,871,o),
(860,1101,cs),
(860,1351,o),
(686,1520,o),
(470,1520,cs),
(247,1520,o),
(65,1351,o),
(65,1032,c),
(162,1032,l),
(162,1351,o),
(328,1436,o),
(470,1436,cs),
(597,1436,o),
(766,1351,o),
(766,1101,cs),
(766,896,o),
(690,790,o),
(497,550,cs),
(93,39,l),
(93,0,l)
);
}
);
width = 950;
},
{
layerId = m005;
shapes = (
{
closed = 1;
nodes = (
(1131,0,l),
(1131,278,l),
(374,278,l),
(467,113,l),
(863,499,ls),
(1063,693,o),
(1124,837,o),
(1124,1063,cs),
(1124,1402,o),
(869,1534,o),
(612,1534,cs),
(341,1534,o),
(139,1370,o),
(136,1034,c),
(447,1034,l),
(447,1199,o),
(535,1257,o),
(624,1260,cs),
(715,1262,o),
(813,1188,o),
(813,1053,cs),
(813,915,o),
(776,822,o),
(647,708,cs),
(84,190,l),
(84,0,l)
);
}
);
width = 1215;
},
{
layerId = "1B8EDE0E-D46F-48F9-B9C6-2CD34FEA95FD";
shapes = (
{
closed = 1;
nodes = (
(1019,0,l),
(1019,170,l),
(283,170,l),
(329,96,l),
(840,657,ls),
(973,802,o),
(1019,944,o),
(1019,1106,cs),
(1019,1335,o),
(864,1527,o),
(568,1527,cs),
(286,1527,o),
(123,1370,o),
(123,1038,c),
(323,1038,l),
(323,1260,o),
(415,1351,o),
(576,1351,cs),
(718,1351,o),
(821,1272,o),
(821,1109,cs),
(821,996,o),
(767,883,o),
(653,754,cs),
(87,128,l),
(87,0,l)
);
}
);
width = 1106;
}
);
unicode = 50;
},
{
glyphname = three;
lastChange = "2025-11-28 11:52:18 +0000";
layers = (
{
background = {
shapes = (
{
closed = 0;
nodes = (
(146,14,ls),
(83,14,o),
(17,49,o),
(17,170,c),
(-16,170,l),
(-16,49,o),
(49,-14,o),
(146,-14,cs)
);
}
);
};
layerId = m004;
shapes = (
{
closed = 1;
nodes = (
(806,-35,o),
(970,133,o),
(970,393,cs),
(970,651,o),
(795,841,o),
(532,841,c),
(532,757,l),
(722,757,o),
(873,602,o),
(873,390,cs),
(873,184,o),
(737,49,o),
(521,49,cs),
(316,49,o),
(193,160,o),
(190,361,c),
(190,371,l),
(93,371,l),
(93,361,l),
(93,117,o),
(265,-35,o),
(521,-35,cs)
);
},
{
closed = 1;
nodes = (
(532,757,l),
(715,757,o),
(900,869,o),
(900,1140,cs),
(900,1409,o),
(689,1520,o),
(508,1520,cs),
(319,1520,o),
(141,1407,o),
(141,1176,cs),
(141,1159,l),
(236,1159,l),
(236,1176,l),
(236,1341,o),
(341,1437,o),
(508,1437,cs),
(692,1437,o),
(803,1322,o),
(803,1138,cs),
(803,961,o),
(695,841,o),
(532,841,c)
);
},
{
closed = 1;
nodes = (
(444,757,l),
(532,757,l),
(532,841,l),
(444,841,l)
);
}
);
width = 1103;
},
{
background = {
shapes = (
{
closed = 0;
nodes = (
(216,72,ls),
(165,73,o),
(132,99,o),
(132,173,c),
(42,173,l),
(42,27,o),
(127,-10,o),
(216,-10,cs)
);
}
);
};
layerId = m005;
shapes = (
{
closed = 1;
nodes = (
(880,-49,o),
(1169,68,o),
(1169,442,cs),
(1169,784,o),
(858,914,o),
(621,914,c),
(621,639,l),
(716,639,o),
(853,587,o),
(853,441,cs),
(853,280,o),
(738,231,o),
(634,231,cs),
(523,231,o),
(419,284,o),
(419,426,cs),
(419,470,l),
(102,470,l),
(102,423,l),
(102,73,o),
(390,-49,o),
(634,-49,cs)
);
},
{
closed = 1;
nodes = (
(621,639,l),
(857,644,o),
(1121,774,o),
(1121,1082,cs),
(1121,1404,o),
(848,1534,o),
(634,1534,cs),
(410,1534,o),
(142,1409,o),
(142,1099,c),
(142,1051,l),
(457,1051,l),
(457,1099,ls),
(457,1190,o),
(535,1254,o),
(634,1254,cs),
(719,1254,o),
(806,1209,o),
(806,1083,cs),
(806,957,o),
(705,914,o),
(621,914,c)
);
},
{
closed = 1;
nodes = (
(518,639,l),
(621,639,l),
(621,914,l),
(518,914,l)
);
}
);
width = 1341;
},
{
layerId = "1B8EDE0E-D46F-48F9-B9C6-2CD34FEA95FD";
shapes = (
{
closed = 1;
nodes = (
(892,-43,o),
(1098,129,o),
(1098,399,cs),
(1098,631,o),
(950,853,o),
(610,853,c),
(610,697,l),
(773,697,o),
(890,590,o),
(890,399,cs),
(890,183,o),
(732,135,o),
(610,135,cs),
(464,135,o),
(344,183,o),
(344,399,cs),
(344,416,l),
(138,416,l),
(138,397,l),
(138,59,o),
(357,-43,o),
(610,-43,cs)
);
},
{
closed = 1;
nodes = (
(610,722,l),
(863,722,o),
(1041,874,o),
(1041,1117,cs),
(1041,1367,o),
(850,1528,o),
(610,1528,cs),
(354,1528,o),
(184,1369,o),
(184,1125,c),
(184,1108,l),
(389,1108,l),
(389,1125,ls),
(389,1302,o),
(484,1353,o),
(609,1353,cs),
(718,1353,o),
(834,1270,o),
(834,1117,cs),
(834,941,o),
(728,876,o),
(610,876,c)
);
},
{
closed = 1;
nodes = (
(521,697,l),
(610,697,l),
(610,876,l),
(521,876,l)
);
}
);
width = 1218;
}
);
unicode = 51;
},
{
glyphname = four;
lastChange = "2025-11-28 11:52:18 +0000";
layers = (
{
layerId = m004;
shapes = (
{
closed = 1;
nodes = (
(600,708,l),
(600,0,l),
(696,0,l),
(696,708,l)
);
},
{
closed = 1;
nodes = (
(51,313,l),
(867,313,l),
(867,396,l),
(152,396,l),
(702,1485,l),
(605,1485,l),
(51,396,l)
);
}
);
width = 925;
},
{
layerId = m005;
shapes = (
{
closed = 1;
nodes = (
(682,777,l),
(682,0,l),
(987,0,l),
(987,777,l)
);
},
{
closed = 1;
nodes = (
(91,258,l),
(1135,258,l),
(1135,532,l),
(481,532,l),
(1001,1485,l),
(658,1485,l),
(91,477,l)
);
}
);
width = 1227;
},
{
layerId = "1B8EDE0E-D46F-48F9-B9C6-2CD34FEA95FD";
shapes = (
{
closed = 1;
nodes = (
(635,747,l),
(635,0,l),
(838,0,l),
(838,747,l)
);
},
{
closed = 1;
nodes = (
(68,258,l),
(1008,258,l),
(1008,432,l),
(310,432,l),
(829,1485,l),
(624,1485,l),
(68,389,l)
);
}
);
width = 1076;
}
);
unicode = 52;
},
{
glyphname = five;
lastChange = "2025-11-28 11:52:18 +0000";
layers = (
{
background = {
shapes = (
{
closed = 1;
nodes = (
(263,-10,o),
(339,32,o),
(339,139,cs),
(339,251,ls),
(339,358,o),
(263,400,o),
(200,400,cs),
(129,400,o),
(62,358,o),
(62,251,cs),
(62,139,ls),
(62,32,o),
(129,-10,o),
(200,-10,cs)
);
},
{
closed = 1;
nodes = (
(134,21,o),
(98,66,o),
(98,142,cs),
(98,248,ls),
(98,324,o),
(134,369,o),
(200,369,cs),
(257,369,o),
(302,324,o),
(302,248,cs),
(302,142,ls),
(302,66,o),
(257,21,o),
(200,21,cs)
);
}
);
};
layerId = m004;
shapes = (
{
closed = 1;
nodes = (
(697,-35,o),
(898,78,o),
(898,361,cs),
(898,682,l),
(898,963,o),
(697,1074,o),
(531,1074,cs),
(342,1074,o),
(162,963,o),
(162,682,c),
(260,682,l),
(260,873,o),
(355,995,o),
(531,995,cs),
(682,995,o),
(800,873,o),
(800,671,cs),
(800,370,ls),
(800,167,o),
(682,48,o),
(531,48,cs),
(355,48,o),
(260,167,o),
(260,370,cs),
(260,444,l),
(162,444,l),
(162,361,l),
(162,78,o),
(342,-35,o),
(531,-35,cs)
);
},
{
closed = 1;
nodes = (
(260,682,l),
(260,1402,l),
(832,1402,l),
(832,1485,l),
(161,1485,l),
(162,682,l)
);
}
);
width = 1102;
},
{
background = {
shapes = (
{
closed = 0;
nodes = (
(255,296,ls),
(216,296,o),
(181,270,o),
(181,214,cs)
);
}
);
};
layerId = m005;
shapes = (
{
closed = 1;
nodes = (
(837,-49,o),
(1147,46,o),
(1147,393,cs),
(1147,583,ls),
(1147,951,o),
(841,1048,o),
(638,1048,cs),
(400,1048,o),
(191,741,o),
(142,619,c),
(448,619,l),
(480,732,o),
(560,770,o),
(638,770,cs),
(742,770,o),
(837,700,o),
(837,550,cs),
(837,397,ls),
(837,247,o),
(742,183,o),
(638,183,cs),
(534,183,o),
(448,226,o),
(448,397,cs),
(448,419,l),
(142,419,l),
(142,394,l),
(142,46,o),
(442,-49,o),
(638,-49,cs)
);
},
{
closed = 1;
nodes = (
(458,699,l),
(458,1206,l),
(1063,1206,l),
(1063,1485,l),
(151,1485,l),
(142,619,l)
);
}
);
width = 1289;
},
{
layerId = "1B8EDE0E-D46F-48F9-B9C6-2CD34FEA95FD";
shapes = (
{
closed = 1;
nodes = (
(735,-43,o),
(995,91,o),
(995,393,cs),
(995,637,ls),
(995,937,o),
(741,1048,o),
(551,1048,cs),
(241,1048,o),
(152,790,o),
(116,699,c),
(309,699,l),
(309,822,o),
(416,873,o),
(551,873,cs),
(660,873,o),
(795,798,o),
(795,606,cs),
(795,421,ls),
(795,204,o),
(653,132,o),
(551,132,cs),
(410,132,o),
(307,183,o),
(307,421,cs),
(307,436,l),
(113,436,l),
(113,418,l),
(113,94,o),
(326,-43,o),
(551,-43,cs)
);
},
{
closed = 1;
nodes = (
(322,769,l),
(322,1311,l),
(938,1311,l),
(938,1485,l),
(120,1485,l),
(116,699,l)
);
}
);
width = 1106;
}
);
unicode = 53;
},
{
glyphname = six;
lastChange = "2025-11-28 11:52:18 +0000";
layers = (
{
background = {
shapes = (
{
closed = 1;
nodes = (
(312,179,ls),
(312,286,o),
(237,328,o),
(172,328,cs),
(102,328,o),
(35,286,o),
(35,179,cs),
(35,179,o),
(35,170,o),
(35,160,c),
(71,160,l),
(71,176,ls),
(71,252,o),
(107,297,o),
(172,297,cs),
(230,297,o),
(276,252,o),
(276,176,cs),
(276,160,l),
(312,160,l)
);
}
);
};
layerId = m004;
shapes = (
{
closed = 1;
nodes = (
(766,104,o),
(626,49,o),
(484,49,cs),
(306,49,o),
(212,158,o),
(212,423,c),
(212,692,o),
(306,799,o),
(484,799,cs),
(631,799,o),
(766,741,o),
(766,429,c)
);
},
{
closed = 1;
nodes = (
(697,-35,o),
(866,62,o),
(866,422,c),
(866,784,o),
(696,883,o),
(484,883,cs),
(297,883,o),
(248,754,o),
(160,716,c),
(210,711,l),
(777,1521,l),
(664,1521,l),
(396,1143,ls),
(254,943,o),
(115,819,o),
(115,423,c),
(115,151,o),
(222,-35,o),
(484,-35,cs)
);
}
);
width = 943;
},
{
layerId = m005;
shapes = (
{
closed = 1;
nodes = (
(909,316,o),
(809,226,o),
(683,226,cs),
(555,226,o),
(457,316,o),
(457,442,cs),
(457,644,o),
(542,713,o),
(683,713,cs),
(822,713,o),
(906,667,o),
(909,442,cs)
);
},
{
closed = 1;
nodes = (
(899,-49,o),
(1219,75,o),
(1219,439,cs),
(1219,824,o),
(960,986,o),
(683,986,cs),
(479,986,o),
(368,802,o),
(249,660,c),
(574,766,l),
(1064,1485,l),
(703,1485,l),
(373,1037,ls),
(252,876,o),
(145,693,o),
(145,439,c),
(145,46,o),
(448,-49,o),
(683,-49,cs)
);
}
);
width = 1366;
},
{
background = {
shapes = (
{
closed = 0;
nodes = (
(619,340,ls),
(619,208,o),
(538,123,o),
(412,123,cs),
(283,123,o),
(205,205,o),
(205,340,cs)
);
}
);
};
layerId = "1B8EDE0E-D46F-48F9-B9C6-2CD34FEA95FD";
shapes = (
{
closed = 1;
nodes = (
(874,248,o),
(766,135,o),
(597,135,cs),
(426,135,o),
(320,241,o),
(320,423,cs),
(320,603,o),
(425,712,o),
(597,712,cs),
(766,712,o),
(874,599,o),
(874,423,cs)
);
},
{
closed = 1;
nodes = (
(870,-43,o),
(1076,128,o),
(1076,421,cs),
(1076,738,o),
(828,887,o),
(597,887,cs),
(432,887,o),
(354,819,o),
(252,693,c),
(436,786,l),
(892,1485,l),
(663,1485,l),
(329,973,ls),
(165,719,o),
(117,570,o),
(117,422,cs),
(117,74,o),
(335,-43,o),
(597,-43,cs)
);
}
);
width = 1195;
}
);
unicode = 54;
},
{
glyphname = seven;
lastChange = "2025-11-28 11:52:18 +0000";
layers = (
{
layerId = m004;
shapes = (
{
closed = 1;
nodes = (
(325,0,l),
(813,1449,l),
(813,1485,l),
(46,1485,l),
(46,1402,l),
(750,1402,l),
(715,1440,l),
(231,0,l)
);
}
);
width = 860;
},
{
layerId = m005;
shapes = (
{
closed = 1;
nodes = (
(516,0,l),
(1028,1334,l),
(1028,1485,l),
(91,1485,l),
(91,1211,l),
(882,1211,l),
(711,1382,l),
(183,0,l)
);
}
);
width = 1211;
},
{
layerId = "1B8EDE0E-D46F-48F9-B9C6-2CD34FEA95FD";
shapes = (
{
closed = 1;
nodes = (
(465,0,l),
(992,1364,l),
(992,1485,l),
(68,1485,l),
(68,1311,l),
(880,1311,l),
(805,1414,l),
(258,0,l)
);
}
);
width = 1060;
}
);
unicode = 55;
},
{
glyphname = eight;
lastChange = "2025-11-28 11:52:18 +0000";
layers = (
{
layerId = m004;
shapes = (
{
closed = 1;
nodes = (
(674,-35,o),
(879,80,o),
(879,322,cs),
(879,463,ls),
(879,751,o),
(651,842,o),
(503,842,cs),
(334,842,o),
(126,751,o),
(126,463,c),
(126,322,l),
(126,80,o),
(310,-35,o),
(503,-35,cs)
);
},
{
closed = 1;
nodes = (
(325,49,o),
(225,171,o),
(225,331,cs),
(225,452,ls),
(225,660,o),
(348,758,o),
(503,758,cs),
(635,758,o),
(780,660,o),
(780,452,cs),
(780,331,ls),
(780,171,o),
(657,49,o),
(503,49,cs)
);
},
{
closed = 1;
nodes = (
(651,758,o),
(856,873,o),
(856,1109,cs),
(856,1170,ls),
(856,1404,o),
(651,1520,o),
(503,1520,cs),
(334,1520,o),
(151,1404,o),
(151,1170,cs),
(151,1109,ls),
(151,873,o),
(334,758,o),
(503,758,cs)
);
},
{
closed = 1;
nodes = (
(348,842,o),
(248,943,o),
(248,1118,cs),
(248,1160,ls),
(248,1337,o),
(348,1436,o),
(503,1436,cs),
(635,1436,o),
(757,1337,o),
(757,1160,cs),
(757,1118,ls),
(757,943,o),
(635,842,o),
(503,842,cs)
);
}
);
width = 1005;
},
{
layerId = m005;
shapes = (
{
closed = 1;
nodes = (
(890,-48,o),
(1183,61,o),
(1183,397,c),
(1183,431,ls),
(1183,779,o),
(892,898,o),
(661,898,cs),
(402,898,o),
(136,779,o),
(136,431,c),
(136,397,l),
(136,103,o),
(349,-48,o),
(661,-48,cs)
);
},
{
closed = 1;
nodes = (
(523,231,o),
(454,306,o),
(454,397,cs),
(454,428,ls),
(454,571,o),
(523,631,o),
(661,631,cs),
(773,631,o),
(866,568,o),
(866,428,cs),
(866,397,ls),
(866,309,o),
(776,231,o),
(661,231,cs)
);
},
{
closed = 1;
nodes = (
(847,654,o),
(1135,771,o),
(1135,1077,cs),
(1135,1114,ls),
(1135,1411,o),
(869,1534,o),
(661,1534,cs),
(426,1534,o),
(184,1409,o),
(184,1114,c),
(184,1077,l),
(184,771,o),
(451,654,o),
(661,654,cs)
);
},
{
closed = 1;
nodes = (
(570,898,o),
(500,958,o),
(500,1053,cs),
(500,1103,ls),
(500,1192,o),
(570,1254,o),
(661,1254,cs),
(750,1254,o),
(819,1192,o),
(819,1103,cs),
(819,1053,ls),
(819,958,o),
(750,898,o),
(661,898,cs)
);
}
);
width = 1320;
},
{
layerId = "1B8EDE0E-D46F-48F9-B9C6-2CD34FEA95FD";
shapes = (
{
closed = 1;
nodes = (
(789,-43,o),
(1032,59,o),
(1032,374,cs),
(1032,454,ls),
(1032,712,o),
(767,867,o),
(573,867,cs),
(354,867,o),
(112,712,o),
(112,454,c),
(112,374,l),
(112,81,o),
(354,-43,o),
(573,-43,cs)
);
},
{
closed = 1;
nodes = (
(438,133,o),
(318,219,o),
(318,377,cs),
(318,452,ls),
(318,629,o),
(438,705,o),
(573,705,cs),
(683,705,o),
(827,629,o),
(827,452,cs),
(827,377,ls),
(827,196,o),
(683,133,o),
(573,133,cs)
);
},
{
closed = 1;
nodes = (
(744,705,o),
(986,812,o),
(986,1092,cs),
(986,1127,ls),
(986,1414,o),
(767,1528,o),
(573,1528,cs),
(354,1528,o),
(158,1414,o),
(158,1127,c),
(158,1092,l),
(158,812,o),
(377,705,o),
(573,705,cs)
);
},
{
closed = 1;
nodes = (
(438,867,o),
(363,943,o),
(363,1093,cs),
(363,1124,ls),
(363,1276,o),
(438,1350,o),
(573,1350,cs),
(683,1350,o),
(780,1276,o),
(780,1124,cs),
(780,1093,ls),
(780,943,o),
(683,867,o),
(573,867,cs)
);
}
);
width = 1144;
}
);
unicode = 56;
},
{
glyphname = nine;
lastChange = "2025-11-28 11:52:18 +0000";
layers = (
{
layerId = m004;
shapes = (
{
closed = 1;
nodes = (
(216,1315,o),
(338,1437,o),
(494,1437,cs),
(667,1437,o),
(763,1315,o),
(763,1112,cs),
(763,1021,ls),
(763,818,o),
(667,697,o),
(494,697,cs),
(338,697,o),
(216,818,o),
(216,1012,cs),
(216,1112,ls)
);
},
{
closed = 1;
nodes = (
(320,1520,o),
(119,1407,o),
(119,1121,cs),
(119,1016,ls),
(119,726,o),
(320,613,o),
(494,613,cs),
(680,613,o),
(728,741,o),
(816,777,c),
(766,786,l),
(207,-14,l),
(319,-14,l),
(668,479,ls),
(812,682,o),
(861,845,o),
(861,1012,c),
(861,1012,o),
(861,1121,o),
(861,1121,cs),
(861,1407,o),
(680,1520,o),
(494,1520,cs)
);
}
);
width = 943;
},
{
layerId = m005;
shapes = (
{
closed = 1;
nodes = (
(457,1167,o),
(555,1259,o),
(682,1259,cs),
(809,1259,o),
(909,1167,o),
(909,1043,cs),
(909,1011,ls),
(909,831,o),
(800,771,o),
(682,771,cs),
(561,771,o),
(458,851,o),
(457,1008,cs),
(457,1043,ls)
);
},
{
closed = 1;
nodes = (
(464,1534,o),
(145,1409,o),
(145,1045,cs),
(145,1012,ls),
(145,610,o),
(487,499,o),
(682,499,cs),
(886,499,o),
(996,682,o),
(1117,825,c),
(789,718,l),
(302,0,l),
(661,0,l),
(992,447,ls),
(1085,573,o),
(1219,786,o),
(1219,1012,c),
(1219,1012,o),
(1219,1045,o),
(1219,1045,cs),
(1219,1438,o),
(915,1534,o),
(682,1534,cs)
);
}
);
width = 1366;
},
{
layerId = "1B8EDE0E-D46F-48F9-B9C6-2CD34FEA95FD";
shapes = (
{
closed = 1;
nodes = (
(322,1259,o),
(464,1353,o),
(596,1353,cs),
(753,1353,o),
(873,1259,o),
(873,1090,c),
(873,1035,l),
(873,861,o),
(735,774,o),
(596,774,cs),
(471,774,o),
(323,861,o),
(322,1032,c),
(322,1090,l)
);
},
{
closed = 1;
nodes = (
(381,1528,o),
(119,1392,o),
(119,1092,c),
(119,1038,l),
(119,726,o),
(396,600,o),
(596,600,cs),
(763,600,o),
(840,667,o),
(943,793,c),
(757,700,l),
(303,0,l),
(531,0,l),
(863,513,ls),
(1012,751,o),
(1074,911,o),
(1074,1051,cs),
(1074,1051,o),
(1074,1092,o),
(1074,1092,cs),
(1074,1415,o),
(835,1528,o),
(596,1528,cs)
);
}
);
width = 1195;
}
);
unicode = 57;
},
{
glyphname = period;
lastChange = "2025-11-28 20:07:16 +0000";
layers = (
{
layerId = m004;
shapes = (
{
closed = 1;
nodes = (
(220,-30,o),
(258,7,o),
(258,70,cs),
(258,129,o),
(220,167,o),
(158,167,cs),
(97,167,o),
(59,129,o),
(59,70,cs),
(59,7,o),
(97,-30,o),
(158,-30,cs)
);
}
);
width = 317;
},
{
layerId = m005;
shapes = (
{
closed = 1;
nodes = (
(309,-30,o),
(374,42,o),
(374,151,cs),
(374,254,o),
(309,325,o),
(199,325,cs),
(88,325,o),
(23,254,o),
(23,151,cs),
(23,42,o),
(88,-30,o),
(199,-30,cs)
);
}
);
width = 397;
},
{
layerId = "1B8EDE0E-D46F-48F9-B9C6-2CD34FEA95FD";
shapes = (
{
closed = 1;
nodes = (
(265,-30,o),
(313,23,o),
(313,113,cs),
(313,199,o),
(265,249,o),
(173,249,cs),
(80,249,o),
(32,199,o),
(32,113,cs),
(32,23,o),
(80,-30,o),
(173,-30,cs)
);
}
);
width = 345;
}
);
metricRight = "=|";
unicode = 46;
},
{
glyphname = comma;
lastChange = "2025-11-28 11:52:18 +0000";
layers = (
{
layerId = m004;
shapes = (
{
closed = 1;
nodes = (
(122,-229,l),
(232,229,l),
(103,229,l),
(35,-229,l)
);
}
);
width = 273;
},
{
layerId = m005;
shapes = (
{
closed = 1;
nodes = (
(225,-297,l),
(415,274,l),
(103,274,l),
(23,-297,l)
);
}
);
width = 206;
},
{
layerId = "1B8EDE0E-D46F-48F9-B9C6-2CD34FEA95FD";
shapes = (
{
closed = 1;
nodes = (
(213,-262,l),
(358,251,l),
(103,251,l),
(23,-262,l)
);
}
);
width = 381;
}
);
unicode = 44;
},
{
glyphname = colon;
lastChange = "2025-11-28 20:07:16 +0000";
layers = (
{
layerId = m004;
shapes = (
{
closed = 1;
nodes = (
(220,-30,o),
(258,7,o),
(258,70,cs),
(258,129,o),
(220,167,o),
(158,167,cs),
(97,167,o),
(59,129,o),
(59,70,cs),
(59,7,o),
(97,-30,o),
(158,-30,cs)
);
},
{
closed = 1;
nodes = (
(220,774,o),
(258,812,o),
(258,873,cs),
(258,934,o),
(220,972,o),
(158,972,cs),
(97,972,o),
(59,934,o),
(59,873,cs),
(59,812,o),
(97,774,o),
(158,774,cs)
);
}
);
width = 317;
},
{
layerId = m005;
shapes = (
{
closed = 1;
nodes = (
(300,699,o),
(365,771,o),
(365,880,cs),
(365,983,o),
(300,1053,o),
(190,1053,cs),
(80,1053,o),
(15,983,o),
(15,880,cs),
(15,771,o),
(80,699,o),
(190,699,cs)
);
},
{
closed = 1;
nodes = (
(303,-30,o),
(368,42,o),
(368,151,cs),
(368,254,o),
(303,325,o),
(193,325,cs),
(81,325,o),
(16,254,o),
(16,151,cs),
(16,42,o),
(81,-30,o),
(193,-30,cs)
);
}
);
width = 383;
},
{
layerId = "1B8EDE0E-D46F-48F9-B9C6-2CD34FEA95FD";
shapes = (
{
closed = 1;
nodes = (
(265,-30,o),
(313,23,o),
(313,113,cs),
(313,199,o),
(265,249,o),
(173,249,cs),
(80,249,o),
(32,199,o),
(32,113,cs),
(32,23,o),
(80,-30,o),
(173,-30,cs)
);
},
{
closed = 1;
nodes = (
(265,738,o),
(313,790,o),
(313,880,cs),
(313,966,o),
(265,1016,o),
(173,1016,cs),
(80,1016,o),
(32,966,o),
(32,880,cs),
(32,790,o),
(80,738,o),
(173,738,cs)
);
}
);
width = 345;
}
);
metricRight = "=|";
unicode = 58;
},
{
glyphname = semicolon;
lastChange = "2025-11-28 11:52:18 +0000";
layers = (
{
layerId = m004;
shapes = (
{
closed = 1;
nodes = (
(200,700,o),
(233,735,o),
(233,790,cs),
(233,845,o),
(200,880,o),
(144,880,cs),
(88,880,o),
(54,845,o),
(54,790,cs),
(54,735,o),
(88,700,o),
(144,700,cs)
);
},
{
closed = 1;
nodes = (
(122,-239,l),
(232,218,l),
(103,218,l),
(35,-239,l)
);
}
);
width = 268;
},
{
layerId = m005;
shapes = (
{
closed = 1;
nodes = (
(361,632,o),
(421,699,o),
(421,798,cs),
(421,890,o),
(361,956,o),
(261,956,cs),
(160,956,o),
(100,890,o),
(100,798,cs),
(100,699,o),
(160,632,o),
(261,632,cs)
);
},
{
closed = 1;
nodes = (
(225,-297,l),
(415,274,l),
(103,274,l),
(23,-297,l)
);
}
);
width = 444;
},
{
layerId = "1B8EDE0E-D46F-48F9-B9C6-2CD34FEA95FD";
shapes = (
{
closed = 1;
nodes = (
(241,670,o),
(284,718,o),
(284,799,cs),
(284,877,o),
(241,924,o),
(157,924,cs),
(73,924,o),
(29,877,o),
(29,799,cs),
(29,718,o),
(73,670,o),
(157,670,cs)
);
},
{
closed = 1;
nodes = (
(213,-262,l),
(358,251,l),
(103,251,l),
(23,-262,l)
);
}
);
width = 381;
}
);
metricRight = "=|";
unicode = 59;
},
{
glyphname = exclam;
lastChange = "2025-11-28 12:19:03 +0000";
layers = (
{
layerId = m004;
shapes = (
{
closed = 1;
nodes = (
(213,361,l),
(231,1147,l),
(231,1649,l),
(138,1649,l),
(138,1147,l),
(155,361,l)
);
},
{
closed = 1;
nodes = (
(242,-14,o),
(261,0,o),
(261,58,cs),
(261,113,o),
(242,131,o),
(189,131,cs),
(133,131,o),
(116,113,o),
(116,58,cs),
(116,0,o),
(133,-14,o),
(189,-14,cs)
);
}
);
width = 377;
},
{
layerId = m005;
shapes = (
{
closed = 1;
nodes = (
(380,428,l),
(410,982,l),
(410,1650,l),
(128,1650,l),
(128,982,l),
(158,428,l)
);
},
{
closed = 1;
nodes = (
(381,-16,o),
(415,19,o),
(415,129,cs),
(415,241,o),
(381,273,o),
(270,273,cs),
(157,273,o),
(123,241,o),
(123,129,cs),
(123,19,o),
(157,-16,o),
(270,-16,cs)
);
}
);
width = 538;
},
{
layerId = "1B8EDE0E-D46F-48F9-B9C6-2CD34FEA95FD";
shapes = (
{
closed = 1;
nodes = (
(368,410,l),
(394,1024,l),
(394,1650,l),
(160,1650,l),
(160,1024,l),
(188,410,l)
);
},
{
closed = 1;
nodes = (
(376,-16,o),
(405,15,o),
(405,112,cs),
(405,210,o),
(376,238,o),
(278,238,cs),
(179,238,o),
(150,210,o),
(150,112,cs),
(150,15,o),
(179,-16,o),
(278,-16,cs)
);
}
);
width = 555;
}
);
metricLeft = "=H";
metricRight = "=|";
unicode = 33;
},
{
glyphname = exclamdown;
lastChange = "2025-11-28 12:19:03 +0000";
layers = (
{
layerId = m004;
shapes = (
{
closed = 1;
nodes = (
(164,1035,l),
(146,251,l),
(146,-251,l),
(238,-251,l),
(238,251,l),
(220,1035,l)
);
},
{
closed = 1;
nodes = (
(133,1412,o),
(116,1398,o),
(116,1340,cs),
(116,1285,o),
(133,1267,o),
(189,1267,cs),
(242,1267,o),
(261,1285,o),
(261,1340,cs),
(261,1398,o),
(242,1412,o),
(189,1412,cs)
);
}
);
width = 377;
},
{
layerId = m005;
shapes = (
{
closed = 1;
nodes = (
(158,970,l),
(128,418,l),
(128,-251,l),
(410,-251,l),
(410,418,l),
(380,970,l)
);
},
{
closed = 1;
nodes = (
(157,1415,o),
(123,1379,o),
(123,1269,cs),
(123,1159,o),
(157,1125,o),
(270,1125,cs),
(381,1125,o),
(415,1159,o),
(415,1269,cs),
(415,1379,o),
(381,1415,o),
(270,1415,cs)
);
}
);
width = 538;
},
{
layerId = "1B8EDE0E-D46F-48F9-B9C6-2CD34FEA95FD";
shapes = (
{
closed = 1;
nodes = (
(188,987,l),
(162,374,l),
(162,-251,l),
(395,-251,l),
(395,374,l),
(368,987,l)
);
},
{
closed = 1;
nodes = (
(179,1415,o),
(150,1385,o),
(150,1286,cs),
(150,1190,o),
(179,1161,o),
(278,1161,cs),
(376,1161,o),
(405,1190,o),
(405,1286,cs),
(405,1385,o),
(376,1415,o),
(278,1415,cs)
);
}
);
width = 555;
}
);
metricLeft = "=H";
metricRight = "=H";
unicode = 161;
},
{
glyphname = question;
lastChange = "2025-11-28 11:52:18 +0000";
layers = (
{
layerId = m004;
shapes = (
{
closed = 1;
nodes = (
(510,-13,o),
(526,0,o),
(526,52,cs),
(526,103,o),
(510,119,o),
(460,119,cs),
(410,119,o),
(394,103,o),
(394,52,cs),
(394,0,o),
(410,-13,o),
(460,-13,cs)
);
},
{
closed = 1;
nodes = (
(502,329,l),
(502,421,ls),
(502,555,o),
(609,642,o),
(660,686,cs),
(724,740,o),
(883,874,o),
(883,1064,cs),
(883,1359,o),
(729,1525,o),
(481,1525,cs),
(225,1525,o),
(57,1359,o),
(57,1041,c),
(142,1041,l),
(142,1359,o),
(316,1453,o),
(481,1453,cs),
(632,1453,o),
(799,1359,o),
(799,1064,cs),
(799,909,o),
(654,789,o),
(597,735,cs),
(542,686,o),
(423,596,o),
(423,464,cs),
(423,329,l)
);
}
);
width = 525;
},
{
layerId = m005;
shapes = (
{
closed = 1;
nodes = (
(510,-13,o),
(541,16,o),
(541,126,cs),
(541,235,o),
(510,265,o),
(402,265,cs),
(291,265,o),
(261,235,o),
(261,126,cs),
(261,16,o),
(291,-13,o),
(402,-13,cs)
);
},
{
closed = 1;
nodes = (
(513,352,l),
(513,421,ls),
(513,512,o),
(697,648,o),
(748,692,cs),
(812,747,o),
(950,825,o),
(950,1072,cs),
(950,1412,o),
(728,1525,o),
(479,1525,cs),
(223,1525,o),
(22,1412,o),
(22,1041,c),
(257,1041,l),
(257,1211,o),
(320,1317,o),
(479,1318,cs),
(629,1321,o),
(696,1211,o),
(696,1063,cs),
(696,964,o),
(589,857,o),
(538,811,cs),
(483,761,o),
(276,615,o),
(276,464,cs),
(276,352,l)
);
}
);
width = 508;
},
{
layerId = "1B8EDE0E-D46F-48F9-B9C6-2CD34FEA95FD";
shapes = (
{
closed = 1;
nodes = (
(503,-13,o),
(531,12,o),
(531,107,cs),
(531,203,o),
(503,229,o),
(409,229,cs),
(313,229,o),
(289,203,o),
(289,107,cs),
(289,12,o),
(313,-13,o),
(409,-13,cs)
);
},
{
closed = 1;
nodes = (
(503,347,l),
(503,421,ls),
(503,523,o),
(670,647,o),
(719,690,cs),
(783,745,o),
(925,838,o),
(925,1069,cs),
(925,1398,o),
(722,1525,o),
(473,1525,cs),
(218,1525,o),
(23,1398,o),
(23,1041,c),
(222,1041,l),
(222,1247,o),
(313,1350,o),
(473,1353,cs),
(619,1353,o),
(715,1247,o),
(715,1063,cs),
(715,950,o),
(599,841,o),
(547,793,cs),
(492,742,o),
(306,610,o),
(306,464,cs),
(306,347,l)
);
}
);
width = 948;
}
);
unicode = 63;
},
{
glyphname = questiondown;
lastChange = "2025-11-28 11:52:18 +0000";
layers = (
{
layerId = m004;
shapes = (
{
closed = 1;
nodes = (
(428,1298,o),
(412,1283,o),
(412,1231,cs),
(412,1182,o),
(428,1166,o),
(479,1166,cs),
(529,1166,o),
(545,1182,o),
(545,1231,cs),
(545,1283,o),
(529,1298,o),
(479,1298,cs)
);
},
{
closed = 1;
nodes = (
(438,956,l),
(438,864,ls),
(438,729,o),
(331,642,o),
(280,599,cs),
(216,544,o),
(57,409,o),
(57,219,cs),
(57,-75,o),
(209,-242,o),
(458,-242,cs),
(713,-242,o),
(883,-75,o),
(883,242,c),
(796,242,l),
(796,-75,o),
(622,-170,o),
(458,-170,cs),
(307,-170,o),
(141,-75,o),
(141,219,cs),
(141,374,o),
(284,496,o),
(342,548,cs),
(396,599,o),
(515,687,o),
(515,821,cs),
(515,956,l)
);
}
);
width = 525;
},
{
layerId = m005;
shapes = (
{
closed = 1;
nodes = (
(460,1299,o),
(431,1269,o),
(431,1160,cs),
(431,1050,o),
(460,1019,o),
(570,1019,cs),
(680,1019,o),
(709,1050,o),
(709,1160,cs),
(709,1269,o),
(680,1299,o),
(570,1299,cs)
);
},
{
closed = 1;
nodes = (
(463,934,l),
(463,864,ls),
(463,773,o),
(267,637,o),
(223,593,cs),
(164,534,o),
(22,412,o),
(22,213,cs),
(22,-126,o),
(244,-241,o),
(493,-241,cs),
(748,-241,o),
(950,-126,o),
(950,244,c),
(713,244,l),
(713,51,o),
(626,-30,o),
(493,-33,cs),
(342,-35,o),
(276,51,o),
(276,223,cs),
(276,320,o),
(383,428,o),
(434,474,cs),
(487,525,o),
(696,670,o),
(696,821,cs),
(696,934,l)
);
}
);
width = 508;
},
{
layerId = "1B8EDE0E-D46F-48F9-B9C6-2CD34FEA95FD";
shapes = (
{
closed = 1;
nodes = (
(444,1299,o),
(418,1273,o),
(418,1177,cs),
(418,1082,o),
(444,1057,o),
(538,1057,cs),
(634,1057,o),
(660,1082,o),
(660,1177,cs),
(660,1273,o),
(634,1299,o),
(538,1299,cs)
);
},
{
closed = 1;
nodes = (
(447,938,l),
(447,864,ls),
(447,761,o),
(273,637,o),
(229,595,cs),
(168,535,o),
(22,410,o),
(22,216,cs),
(22,-113,o),
(228,-241,o),
(476,-241,cs),
(732,-241,o),
(924,-113,o),
(924,244,c),
(725,244,l),
(725,19,o),
(618,-65,o),
(476,-67,cs),
(323,-70,o),
(233,19,o),
(233,220,cs),
(233,335,o),
(348,444,o),
(402,493,cs),
(455,542,o),
(644,676,o),
(644,821,cs),
(644,938,l)
);
}
);
width = 494;
}
);
unicode = 191;
},
{
glyphname = periodcentered;
lastChange = "2025-11-28 11:52:18 +0000";
layers = (
{
layerId = m004;
shapes = (
{
closed = 1;
nodes = (
(186,342,o),
(202,355,o),
(202,407,cs),
(202,458,o),
(186,474,o),
(135,474,cs),
(84,474,o),
(68,458,o),
(68,407,cs),
(68,355,o),
(84,342,o),
(135,342,cs)
);
}
);
width = 270;
},
{
layerId = m005;
shapes = (
{
closed = 1;
nodes = (
(291,315,o),
(323,351,o),
(323,465,cs),
(323,574,o),
(291,609,o),
(175,609,cs),
(58,609,o),
(26,574,o),
(26,465,cs),
(26,351,o),
(58,315,o),
(175,315,cs)
);
}
);
width = 349;
},
{
layerId = "1B8EDE0E-D46F-48F9-B9C6-2CD34FEA95FD";
shapes = (
{
closed = 1;
nodes = (
(233,320,o),
(284,374,o),
(284,451,cs),
(284,522,o),
(233,574,o),
(157,574,cs),
(78,574,o),
(29,522,o),
(29,451,cs),
(29,374,o),
(78,320,o),
(157,320,cs)
);
}
);
width = 313;
}
);
metricRight = "=|";
unicode = 183;
},
{
glyphname = bullet;
lastChange = "2025-11-28 11:52:18 +0000";
layers = (
{
layerId = m004;
shapes = (
{
closed = 1;
nodes = (
(334,336,o),
(377,381,o),
(377,477,cs),
(377,566,o),
(334,610,o),
(239,610,cs),
(141,610,o),
(100,566,o),
(100,477,cs),
(100,381,o),
(141,336,o),
(239,336,cs)
);
}
);
width = 477;
},
{
layerId = m005;
shapes = (
{
closed = 1;
nodes = (
(589,252,o),
(679,352,o),
(679,564,cs),
(679,767,o),
(589,863,o),
(371,863,cs),
(154,863,o),
(62,767,o),
(62,564,cs),
(62,352,o),
(154,252,o),
(371,252,cs)
);
}
);
width = 741;
},
{
layerId = "1B8EDE0E-D46F-48F9-B9C6-2CD34FEA95FD";
shapes = (
{
closed = 1;
nodes = (
(490,274,o),
(593,384,o),
(593,542,cs),
(593,702,o),
(490,812,o),
(329,812,cs),
(165,812,o),
(62,702,o),
(62,542,cs),
(62,384,o),
(165,274,o),
(329,274,cs)
);
}
);
width = 655;
}
);
metricRight = "=|";
unicode = 8226;
},
{
glyphname = asterisk;
lastChange = "2025-11-28 12:19:03 +0000";
layers = (
{
layerId = m004;
shapes = (
{
closed = 1;
nodes = (
(492,1147,l),
(378,1147,l),
(406,841,l),
(119,964,l),
(87,858,l),
(386,787,l),
(183,554,l),
(270,486,l),
(431,753,l),
(589,486,l),
(680,551,l),
(479,783,l),
(780,853,l),
(748,958,l),
(464,838,l)
);
}
);
width = 867;
},
{
layerId = m005;
shapes = (
{
closed = 1;
nodes = (
(481,1170,l),
(307,1170,l),
(334,896,l),
(80,1003,l),
(23,835,l),
(296,777,l),
(112,567,l),
(255,465,l),
(396,702,l),
(537,464,l),
(680,567,l),
(496,776,l),
(766,835,l),
(712,1003,l),
(458,893,l)
);
}
);
width = 789;
},
{
layerId = "1B8EDE0E-D46F-48F9-B9C6-2CD34FEA95FD";
shapes = (
{
closed = 1;
nodes = (
(476,1164,l),
(316,1164,l),
(342,883,l),
(80,993,l),
(30,841,l),
(309,780,l),
(120,564,l),
(249,471,l),
(394,715,l),
(541,468,l),
(671,564,l),
(483,777,l),
(758,841,l),
(711,993,l),
(450,880,l)
);
}
);
width = 788;
}
);
metricRight = "=|";
unicode = 42;
},
{
glyphname = numbersign;
lastChange = "2025-11-28 20:07:49 +0000";
layers = (
{
layerId = m004;
shapes = (
{
closed = 1;
nodes = (
(142,0,l),
(229,0,l),
(526,1633,l),
(437,1633,l)
);
},
{
closed = 1;
nodes = (
(745,0,l),
(832,0,l),
(1128,1633,l),
(1041,1633,l)
);
},
{
closed = 1;
nodes = (
(115,1088,l),
(1244,1088,l),
(1244,1173,l),
(115,1173,l)
);
},
{
closed = 1;
nodes = (
(40,510,l),
(1170,510,l),
(1170,593,l),
(40,593,l)
);
}
);
width = 1284;
},
{
layerId = m005;
shapes = (
{
closed = 1;
nodes = (
(142,0,l),
(372,0,l),
(668,1633,l),
(437,1633,l)
);
},
{
closed = 1;
nodes = (
(745,0,l),
(975,0,l),
(1273,1633,l),
(1041,1633,l)
);
},
{
closed = 1;
nodes = (
(115,1035,l),
(1370,1035,l),
(1370,1225,l),
(115,1225,l)
);
},
{
closed = 1;
nodes = (
(40,457,l),
(1294,457,l),
(1294,648,l),
(40,648,l)
);
}
);
width = 1410;
},
{
layerId = "1B8EDE0E-D46F-48F9-B9C6-2CD34FEA95FD";
shapes = (
{
closed = 1;
nodes = (
(142,0,l),
(336,0,l),
(633,1633,l),
(437,1633,l)
);
},
{
closed = 1;
nodes = (
(745,0,l),
(940,0,l),
(1236,1633,l),
(1041,1633,l)
);
},
{
closed = 1;
nodes = (
(115,1048,l),
(1339,1048,l),
(1339,1214,l),
(115,1214,l)
);
},
{
closed = 1;
nodes = (
(40,470,l),
(1264,470,l),
(1264,632,l),
(40,632,l)
);
}
);
width = 1379;
}
);
metricLeft = "=40";
metricRight = "=|";
unicode = 35;
},
{
glyphname = slash;
lastChange = "2025-11-28 11:52:18 +0000";
layers = (
{
layerId = m004;
shapes = (
{
closed = 1;
nodes = (
(57,3,l),
(132,3,l),
(722,1596,l),
(647,1596,l)
);
}
);
width = 780;
},
{
layerId = m005;
shapes = (
{
closed = 1;
nodes = (
(23,-32,l),
(210,-32,l),
(799,1585,l),
(612,1585,l)
);
}
);
width = 822;
},
{
layerId = "1B8EDE0E-D46F-48F9-B9C6-2CD34FEA95FD";
shapes = (
{
closed = 1;
nodes = (
(12,-457,l),
(229,-457,l),
(966,1553,l),
(748,1553,l)
);
}
);
width = 1011;
}
);
unicode = 47;
},
{
glyphname = backslash;
lastChange = "2025-11-28 12:19:03 +0000";
layers = (
{
layerId = m004;
shapes = (
{
closed = 1;
nodes = (
(62,1756,l),
(711,3,l),
(795,3,l),
(146,1756,l)
);
}
);
width = 857;
},
{
layerId = m005;
shapes = (
{
closed = 1;
nodes = (
(25,1744,l),
(673,-35,l),
(880,-35,l),
(231,1744,l)
);
}
);
width = 905;
},
{
layerId = "1B8EDE0E-D46F-48F9-B9C6-2CD34FEA95FD";
shapes = (
{
closed = 1;
nodes = (
(25,1746,l),
(673,-25,l),
(850,-25,l),
(202,1746,l)
);
}
);
width = 875;
}
);
metricRight = "=|";
unicode = 92;
},
{
glyphname = hyphen;
lastChange = "2025-11-28 11:52:18 +0000";
layers = (
{
layerId = m004;
shapes = (
{
closed = 1;
nodes = (
(62,515,l),
(844,515,l),
(844,606,l),
(62,606,l)
);
}
);
width = 906;
},
{
layerId = m005;
shapes = (
{
closed = 1;
nodes = (
(42,306,l),
(824,306,l),
(824,522,l),
(42,522,l)
);
}
);
width = 866;
},
{
layerId = "1B8EDE0E-D46F-48F9-B9C6-2CD34FEA95FD";
shapes = (
{
closed = 1;
nodes = (
(39,480,l),
(821,480,l),
(821,661,l),
(39,661,l)
);
}
);
width = 860;
}
);
metricRight = "=|";
unicode = 45;
},
{
glyphname = endash;
lastChange = "2025-11-28 12:19:03 +0000";
layers = (
{
layerId = m004;
shapes = (
{
closed = 1;
nodes = (
(62,342,l),
(970,342,l),
(970,418,l),
(62,418,l)
);
}
);
width = 1032;
},
{
layerId = m005;
shapes = (
{
closed = 1;
nodes = (
(42,306,l),
(1166,306,l),
(1166,522,l),
(42,522,l)
);
}
);
width = 1208;
},
{
layerId = "1B8EDE0E-D46F-48F9-B9C6-2CD34FEA95FD";
shapes = (
{
closed = 1;
nodes = (
(39,315,l),
(1106,315,l),
(1106,494,l),
(39,494,l)
);
}
);
width = 1145;
}
);
metricRight = "=|";
unicode = 8211;
},
{
glyphname = emdash;
lastChange = "2025-11-28 20:07:16 +0000";
layers = (
{
layerId = m004;
shapes = (
{
closed = 1;
nodes = (
(62,342,l),
(1721,342,l),
(1721,418,l),
(62,418,l)
);
}
);
width = 1783;
},
{
layerId = m005;
shapes = (
{
closed = 1;
nodes = (
(42,306,l),
(1840,306,l),
(1840,522,l),
(42,522,l)
);
}
);
width = 1882;
},
{
layerId = "1B8EDE0E-D46F-48F9-B9C6-2CD34FEA95FD";
shapes = (
{
closed = 1;
nodes = (
(62,628,l),
(1824,628,l),
(1824,809,l),
(62,809,l)
);
}
);
width = 1886;
}
);
metricRight = "=|";
unicode = 8212;
},
{
glyphname = underscore;
lastChange = "2025-11-28 11:52:18 +0000";
layers = (
{
layerId = m004;
shapes = (
{
closed = 1;
nodes = (
(62,-251,l),
(970,-251,l),
(970,-175,l),
(62,-175,l)
);
}
);
width = 1032;
},
{
layerId = m005;
shapes = (
{
closed = 1;
nodes = (
(-3,-251,l),
(1121,-251,l),
(1121,-35,l),
(-3,-35,l)
);
}
);
width = 1118;
},
{
layerId = "1B8EDE0E-D46F-48F9-B9C6-2CD34FEA95FD";
shapes = (
{
closed = 1;
nodes = (
(4,-251,l),
(1073,-251,l),
(1073,-71,l),
(4,-71,l)
);
}
);
width = 1077;
}
);
metricRight = "=|";
unicode = 95;
},
{
glyphname = parenleft;
lastChange = "2025-11-28 11:52:18 +0000";
layers = (
{
layerId = m004;
shapes = (
{
closed = 1;
nodes = (
(229,358,o),
(432,23,o),
(573,-203,c),
(632,-154,l),
(500,39,o),
(310,400,o),
(310,831,cs),
(310,1263,o),
(500,1624,o),
(632,1817,c),
(573,1866,l),
(432,1640,o),
(229,1305,o),
(229,831,cs)
);
}
);
width = 528;
},
{
layerId = m005;
shapes = (
{
closed = 1;
nodes = (
(80,358,o),
(283,23,o),
(425,-203,c),
(628,-72,l),
(492,138,o),
(322,400,o),
(322,831,cs),
(322,1263,o),
(492,1525,o),
(628,1736,c),
(425,1866,l),
(283,1640,o),
(80,1305,o),
(80,831,cs)
);
}
);
width = 708;
},
{
layerId = "1B8EDE0E-D46F-48F9-B9C6-2CD34FEA95FD";
shapes = (
{
closed = 1;
nodes = (
(206,104,o),
(397,-231,o),
(551,-457,c),
(719,-347,l),
(584,-144,o),
(418,146,o),
(418,579,cs),
(418,1009,o),
(584,1299,o),
(719,1504,c),
(551,1612,l),
(397,1386,o),
(206,1051,o),
(206,579,cs)
);
}
);
width = 834;
}
);
unicode = 40;
},
{
glyphname = parenright;
lastChange = "2025-11-28 11:52:18 +0000";
layers = (
{
layerId = m004;
shapes = (
{
closed = 1;
nodes = (
(516,1305,o),
(313,1640,o),
(171,1866,c),
(112,1817,l),
(245,1624,o),
(434,1263,o),
(434,831,cs),
(434,400,o),
(245,39,o),
(112,-154,c),
(171,-203,l),
(313,23,o),
(516,358,o),
(516,831,cs)
);
}
);
width = 744;
},
{
layerId = m005;
shapes = (
{
closed = 1;
nodes = (
(628,1305,o),
(425,1640,o),
(283,1866,c),
(80,1736,l),
(218,1525,o),
(386,1263,o),
(386,831,cs),
(386,400,o),
(218,138,o),
(80,-72,c),
(283,-203,l),
(425,23,o),
(628,358,o),
(628,831,cs)
);
}
);
width = 708;
},
{
layerId = "1B8EDE0E-D46F-48F9-B9C6-2CD34FEA95FD";
shapes = (
{
closed = 1;
nodes = (
(671,1051,o),
(480,1386,o),
(326,1612,c),
(158,1504,l),
(293,1299,o),
(460,1009,o),
(460,579,cs),
(460,146,o),
(293,-144,o),
(158,-347,c),
(326,-457,l),
(480,-231,o),
(671,104,o),
(671,579,cs)
);
}
);
width = 877;
}
);
unicode = 41;
},
{
glyphname = braceleft;
lastChange = "2025-11-28 11:52:18 +0000";
layers = (
{
layerId = m004;
shapes = (
{
closed = 1;
nodes = (
(557,-158,l),
(557,-88,l),
(523,-88,ls),
(455,-88,o),
(412,-75,o),
(412,55,cs),
(412,626,ls),
(412,770,o),
(352,815,o),
(222,815,cs),
(187,815,l),
(187,747,l),
(222,747,ls),
(290,747,o),
(334,734,o),
(334,603,cs),
(334,32,ls),
(334,-112,o),
(393,-158,o),
(523,-158,cs)
);
},
{
closed = 1;
nodes = (
(393,1782,o),
(334,1736,o),
(334,1592,cs),
(334,960,ls),
(334,829,o),
(290,815,o),
(222,815,cs),
(187,815,l),
(187,747,l),
(222,747,ls),
(349,747,o),
(412,793,o),
(412,937,cs),
(412,1569,ls),
(412,1699,o),
(455,1714,o),
(523,1714,cs),
(557,1714,l),
(557,1782,l),
(523,1782,ls)
);
}
);
width = 754;
},
{
layerId = m005;
shapes = (
{
closed = 1;
nodes = (
(795,-170,l),
(795,32,l),
(628,32,ls),
(552,32,o),
(531,67,o),
(531,126,cs),
(531,616,ls),
(531,815,o),
(349,873,o),
(258,873,cs),
(23,873,l),
(23,703,l),
(190,703,ls),
(265,703,o),
(289,654,o),
(289,595,cs),
(289,103,ls),
(289,-96,o),
(393,-170,o),
(560,-170,cs)
);
},
{
closed = 1;
nodes = (
(393,1770,o),
(289,1698,o),
(289,1499,cs),
(289,1005,ls),
(289,945,o),
(265,896,o),
(190,896,cs),
(23,896,l),
(23,726,l),
(258,726,ls),
(349,726,o),
(531,783,o),
(531,982,cs),
(531,1476,ls),
(531,1536,o),
(552,1569,o),
(628,1569,cs),
(795,1569,l),
(795,1770,l),
(560,1770,ls)
);
}
);
width = 444;
},
{
layerId = "1B8EDE0E-D46F-48F9-B9C6-2CD34FEA95FD";
shapes = (
{
closed = 1;
nodes = (
(726,-165,l),
(726,1,l),
(595,1,ls),
(521,1,o),
(493,30,o),
(493,106,cs),
(493,618,ls),
(493,803,o),
(342,858,o),
(242,858,cs),
(55,858,l),
(55,713,l),
(190,713,ls),
(262,713,o),
(293,673,o),
(293,595,cs),
(293,84,ls),
(293,-101,o),
(386,-165,o),
(544,-165,cs)
);
},
{
closed = 1;
nodes = (
(386,1773,o),
(293,1708,o),
(293,1523,cs),
(293,993,ls),
(293,915,o),
(262,876,o),
(190,876,cs),
(55,876,l),
(55,729,l),
(242,729,ls),
(342,729,o),
(493,784,o),
(493,970,cs),
(493,1499,ls),
(493,1575,o),
(521,1605,o),
(595,1605,cs),
(726,1605,l),
(726,1773,l),
(544,1773,ls)
);
}
);
width = 505;
}
);
unicode = 123;
},
{
glyphname = braceright;
lastChange = "2025-11-28 11:52:18 +0000";
layers = (
{
layerId = m004;
shapes = (
{
closed = 1;
nodes = (
(352,-170,o),
(412,-123,o),
(412,20,cs),
(412,615,ls),
(412,745,o),
(455,758,o),
(523,758,cs),
(557,758,l),
(557,827,l),
(523,827,ls),
(393,827,o),
(334,782,o),
(334,638,cs),
(334,44,ls),
(334,-87,o),
(290,-100,o),
(222,-100,cs),
(187,-100,l),
(187,-170,l),
(222,-170,ls)
);
},
{
closed = 1;
nodes = (
(187,1794,l),
(187,1726,l),
(222,1726,ls),
(290,1726,o),
(334,1711,o),
(334,1581,cs),
(334,948,ls),
(334,805,o),
(396,758,o),
(523,758,cs),
(557,758,l),
(557,827,l),
(523,827,ls),
(455,827,o),
(412,841,o),
(412,972,cs),
(412,1604,ls),
(412,1747,o),
(352,1794,o),
(222,1794,cs)
);
}
);
width = 754;
},
{
layerId = m005;
shapes = (
{
closed = 1;
nodes = (
(436,-170,o),
(541,-96,o),
(541,103,cs),
(541,595,ls),
(541,654,o),
(564,703,o),
(639,703,cs),
(806,703,l),
(806,873,l),
(571,873,ls),
(480,873,o),
(299,815,o),
(299,616,cs),
(299,126,ls),
(299,67,o),
(277,32,o),
(202,32,cs),
(35,32,l),
(35,-170,l),
(270,-170,ls)
);
},
{
closed = 1;
nodes = (
(35,1770,l),
(35,1569,l),
(202,1569,ls),
(277,1569,o),
(299,1536,o),
(299,1476,cs),
(299,982,ls),
(299,783,o),
(480,726,o),
(571,726,cs),
(806,726,l),
(806,896,l),
(639,896,ls),
(564,896,o),
(541,945,o),
(541,1005,cs),
(541,1499,ls),
(541,1698,o),
(436,1770,o),
(270,1770,cs)
);
}
);
width = 444;
},
{
layerId = "1B8EDE0E-D46F-48F9-B9C6-2CD34FEA95FD";
shapes = (
{
closed = 1;
nodes = (
(406,-170,o),
(500,-103,o),
(500,83,cs),
(500,599,ls),
(500,676,o),
(528,718,o),
(603,718,cs),
(735,718,l),
(735,861,l),
(551,861,ls),
(450,861,o),
(299,806,o),
(299,622,cs),
(299,104,ls),
(299,28,o),
(271,0,o),
(199,0,cs),
(64,0,l),
(64,-170,l),
(249,-170,ls)
);
},
{
closed = 1;
nodes = (
(64,1778,l),
(64,1608,l),
(199,1608,ls),
(271,1608,o),
(299,1579,o),
(299,1504,cs),
(299,973,ls),
(299,789,o),
(450,734,o),
(551,734,cs),
(735,734,l),
(735,880,l),
(603,880,ls),
(528,880,o),
(500,918,o),
(500,996,cs),
(500,1525,ls),
(500,1711,o),
(406,1778,o),
(249,1778,cs)
);
}
);
width = 505;
}
);
unicode = 125;
},
{
glyphname = bracketleft;
lastChange = "2025-11-28 12:19:03 +0000";
layers = (
{
background = {
shapes = (
{
closed = 1;
nodes = (
(133,-117,l),
(133,-47,l),
(83,-47,ls),
(58,-47,o),
(50,-35,o),
(50,-15,cs),
(50,450,ls),
(50,471,o),
(58,483,o),
(83,483,cs),
(133,483,l),
(133,552,l),
(60,552,ls),
(3,552,o),
(-34,527,o),
(-34,458,cs),
(-34,-23,ls),
(-34,-92,o),
(3,-117,o),
(60,-117,cs)
);
}
);
};
layerId = m004;
shapes = (
{
closed = 1;
nodes = (
(339,-170,l),
(339,-101,l),
(305,-101,ls),
(236,-101,o),
(193,-87,o),
(193,44,cs),
(193,1557,ls),
(193,1689,o),
(236,1702,o),
(305,1702,cs),
(339,1702,l),
(339,1770,l),
(305,1770,ls),
(175,1770,o),
(116,1724,o),
(116,1581,cs),
(116,20,ls),
(116,-123,o),
(175,-170,o),
(305,-170,cs)
);
}
);
width = 273;
},
{
layerId = m005;
shapes = (
{
closed = 1;
nodes = (
(608,-170,l),
(608,32,l),
(463,32,ls),
(387,32,o),
(365,67,o),
(365,126,cs),
(365,1476,ls),
(365,1536,o),
(387,1569,o),
(463,1569,cs),
(608,1569,l),
(608,1770,l),
(394,1770,ls),
(228,1770,o),
(123,1698,o),
(123,1499,cs),
(123,103,ls),
(123,-96,o),
(228,-170,o),
(394,-170,cs)
);
}
);
width = 376;
},
{
layerId = "1B8EDE0E-D46F-48F9-B9C6-2CD34FEA95FD";
shapes = (
{
closed = 1;
nodes = (
(571,-215,l),
(571,-46,l),
(455,-46,ls),
(381,-46,o),
(352,-19,o),
(352,59,cs),
(352,1496,ls),
(352,1575,o),
(381,1601,o),
(455,1601,cs),
(571,1601,l),
(571,1770,l),
(401,1770,ls),
(245,1770,o),
(150,1704,o),
(150,1520,cs),
(150,36,ls),
(150,-148,o),
(245,-215,o),
(401,-215,cs)
);
}
);
width = 685;
}
);
metricLeft = "=H";
unicode = 91;
},
{
glyphname = bracketright;
lastChange = "2025-11-28 12:19:03 +0000";
layers = (
{
layerId = m004;
shapes = (
{
closed = 1;
nodes = (
(210,-170,o),
(270,-123,o),
(270,20,cs),
(270,1581,ls),
(270,1726,o),
(210,1770,o),
(80,1770,cs),
(46,1770,l),
(46,1702,l),
(80,1702,ls),
(148,1702,o),
(191,1688,o),
(191,1559,cs),
(191,44,ls),
(191,-87,o),
(148,-100,o),
(80,-100,cs),
(46,-100,l),
(46,-170,l),
(80,-170,ls)
);
}
);
width = 386;
},
{
layerId = m005;
shapes = (
{
closed = 1;
nodes = (
(390,-170,o),
(496,-96,o),
(496,103,cs),
(496,1499,ls),
(496,1698,o),
(390,1770,o),
(223,1770,cs),
(12,1770,l),
(12,1569,l),
(155,1569,ls),
(231,1569,o),
(254,1536,o),
(254,1476,cs),
(254,126,ls),
(254,67,o),
(231,32,o),
(155,32,cs),
(12,32,l),
(12,-170,l),
(223,-170,ls)
);
}
);
width = 619;
},
{
layerId = "1B8EDE0E-D46F-48F9-B9C6-2CD34FEA95FD";
shapes = (
{
closed = 1;
nodes = (
(441,-215,o),
(535,-148,o),
(535,36,cs),
(535,1520,ls),
(535,1704,o),
(441,1770,o),
(283,1770,cs),
(115,1770,l),
(115,1601,l),
(231,1601,ls),
(305,1601,o),
(331,1575,o),
(331,1496,cs),
(331,59,ls),
(331,-19,o),
(305,-46,o),
(231,-46,cs),
(115,-46,l),
(115,-215,l),
(283,-215,ls)
);
}
);
width = 685;
}
);
metricRight = "=H";
unicode = 93;
},
{
glyphname = quotesinglbase;
lastChange = "2025-11-28 11:52:18 +0000";
layers = (
{
layerId = m004;
shapes = (
{
closed = 1;
nodes = (
(178,-35,o),
(202,-4,o),
(202,83,cs),
(202,148,o),
(186,164,o),
(135,164,cs),
(84,164,o),
(68,148,o),
(68,99,cs),
(68,39,o),
(94,35,o),
(119,35,cs),
(128,35,o),
(135,36,o),
(142,39,c),
(142,16,o),
(135,-23,o),
(115,-55,c),
(164,-55,l)
);
}
);
width = 203;
},
{
layerId = m005;
shapes = (
{
closed = 1;
nodes = (
(273,-29,o),
(332,62,o),
(332,220,cs),
(332,378,o),
(299,412,o),
(180,412,cs),
(61,412,o),
(26,378,o),
(26,260,cs),
(26,117,o),
(84,106,o),
(142,106,cs),
(158,106,o),
(180,110,o),
(197,117,c),
(186,41,o),
(148,-6,o),
(102,-54,c),
(170,-133,l)
);
}
);
width = 213;
},
{
layerId = "1B8EDE0E-D46F-48F9-B9C6-2CD34FEA95FD";
shapes = (
{
closed = 1;
nodes = (
(244,-28,o),
(291,46,o),
(291,186,cs),
(291,320,o),
(261,352,o),
(158,352,cs),
(58,352,o),
(29,320,o),
(29,219,cs),
(29,99,o),
(77,88,o),
(126,88,cs),
(142,88,o),
(164,94,o),
(175,99,c),
(165,32,o),
(136,-9,o),
(94,-55,c),
(161,-115,l)
);
}
);
width = 194;
}
);
unicode = 8218;
},
{
glyphname = quoteleft;
lastChange = "2025-11-28 20:07:49 +0000";
layers = (
{
layerId = m004;
shapes = (
{
closed = 1;
nodes = (
(161,1633,l),
(55,1219,l),
(206,1219,l),
(264,1633,l)
);
}
);
width = 344;
},
{
layerId = m005;
shapes = (
{
closed = 1;
nodes = (
(236,1633,l),
(55,1219,l),
(356,1219,l),
(454,1633,l)
);
}
);
width = 534;
},
{
layerId = "1B8EDE0E-D46F-48F9-B9C6-2CD34FEA95FD";
shapes = (
{
closed = 1;
nodes = (
(320,1633,l),
(55,1633,l),
(236,1219,l),
(416,1219,l)
);
}
);
width = 496;
}
);
metricLeft = "=55";
metricRight = "=80";
unicode = 8216;
},
{
glyphname = quoteright;
lastChange = "2025-11-28 20:07:49 +0000";
layers = (
{
layerId = m004;
shapes = (
{
closed = 1;
nodes = (
(123,1219,l),
(227,1633,l),
(77,1633,l),
(20,1219,l)
);
}
);
width = 282;
},
{
layerId = m005;
shapes = (
{
closed = 1;
nodes = (
(236,1219,l),
(416,1633,l),
(116,1633,l),
(20,1219,l)
);
}
);
width = 471;
},
{
layerId = "1B8EDE0E-D46F-48F9-B9C6-2CD34FEA95FD";
shapes = (
{
closed = 1;
nodes = (
(197,1219,l),
(378,1633,l),
(116,1633,l),
(20,1219,l)
);
}
);
width = 433;
}
);
metricLeft = "=+20";
metricRight = "=55";
unicode = 8217;
},
{
glyphname = guillemetleft;
lastChange = "2025-11-28 11:52:18 +0000";
layers = (
{
layerId = m004;
shapes = (
{
closed = 1;
nodes = (
(270,767,l),
(80,428,l),
(270,88,l),
(365,88,l),
(183,423,l),
(364,767,l)
);
},
{
closed = 1;
nodes = (
(508,767,l),
(318,428,l),
(508,88,l),
(603,88,l),
(421,423,l),
(600,767,l)
);
}
);
width = 421;
},
{
layerId = m005;
shapes = (
{
closed = 1;
nodes = (
(235,767,l),
(46,428,l),
(235,88,l),
(434,88,l),
(251,423,l),
(432,767,l)
);
},
{
closed = 1;
nodes = (
(624,767,l),
(434,428,l),
(624,88,l),
(822,88,l),
(639,423,l),
(821,767,l)
);
}
);
width = 480;
},
{
layerId = "1B8EDE0E-D46F-48F9-B9C6-2CD34FEA95FD";
shapes = (
{
closed = 1;
nodes = (
(235,767,l),
(46,428,l),
(235,88,l),
(409,88,l),
(226,423,l),
(406,767,l)
);
},
{
closed = 1;
nodes = (
(584,767,l),
(396,428,l),
(584,88,l),
(758,88,l),
(576,423,l),
(755,767,l)
);
}
);
width = 448;
}
);
unicode = 171;
},
{
glyphname = guillemetright;
lastChange = "2025-11-28 11:52:18 +0000";
layers = (
{
layerId = m004;
shapes = (
{
closed = 1;
nodes = (
(500,423,l),
(318,88,l),
(413,88,l),
(603,428,l),
(413,767,l),
(320,767,l)
);
},
{
closed = 1;
nodes = (
(262,423,l),
(80,88,l),
(175,88,l),
(365,428,l),
(175,767,l),
(83,767,l)
);
}
);
width = 421;
},
{
layerId = m005;
shapes = (
{
closed = 1;
nodes = (
(616,423,l),
(434,88,l),
(632,88,l),
(822,428,l),
(632,767,l),
(436,767,l)
);
},
{
closed = 1;
nodes = (
(229,423,l),
(46,88,l),
(245,88,l),
(434,428,l),
(245,767,l),
(48,767,l)
);
}
);
width = 480;
},
{
layerId = "1B8EDE0E-D46F-48F9-B9C6-2CD34FEA95FD";
shapes = (
{
closed = 1;
nodes = (
(579,423,l),
(396,88,l),
(568,88,l),
(758,428,l),
(568,767,l),
(397,767,l)
);
},
{
closed = 1;
nodes = (
(229,423,l),
(46,88,l),
(219,88,l),
(409,428,l),
(219,767,l),
(48,767,l)
);
}
);
width = 448;
}
);
unicode = 187;
},
{
glyphname = guilsinglleft;
lastChange = "2025-11-28 11:52:18 +0000";
layers = (
{
layerId = m004;
shapes = (
{
closed = 1;
nodes = (
(270,767,l),
(80,428,l),
(270,88,l),
(365,88,l),
(183,423,l),
(364,767,l)
);
}
);
width = 303;
},
{
layerId = m005;
shapes = (
{
closed = 1;
nodes = (
(235,767,l),
(46,428,l),
(235,88,l),
(434,88,l),
(251,423,l),
(432,767,l)
);
}
);
width = 286;
},
{
layerId = "1B8EDE0E-D46F-48F9-B9C6-2CD34FEA95FD";
shapes = (
{
closed = 1;
nodes = (
(235,767,l),
(46,428,l),
(235,88,l),
(409,88,l),
(226,423,l),
(406,767,l)
);
}
);
width = 273;
}
);
unicode = 8249;
},
{
glyphname = guilsinglright;
lastChange = "2025-11-28 11:52:18 +0000";
layers = (
{
layerId = m004;
shapes = (
{
closed = 1;
nodes = (
(262,423,l),
(80,88,l),
(175,88,l),
(365,428,l),
(175,767,l),
(83,767,l)
);
}
);
width = 303;
},
{
layerId = m005;
shapes = (
{
closed = 1;
nodes = (
(229,423,l),
(46,88,l),
(245,88,l),
(434,428,l),
(245,767,l),
(48,767,l)
);
}
);
width = 286;
},
{
layerId = "1B8EDE0E-D46F-48F9-B9C6-2CD34FEA95FD";
shapes = (
{
closed = 1;
nodes = (
(229,423,l),
(46,88,l),
(219,88,l),
(409,428,l),
(219,767,l),
(48,767,l)
);
}
);
width = 273;
}
);
unicode = 8250;
},
{
glyphname = quotedbl;
lastChange = "2025-11-28 20:07:49 +0000";
layers = (
{
layerId = m004;
shapes = (
{
closed = 1;
nodes = (
(207,595,l),
(235,960,l),
(116,960,l),
(144,595,l)
);
},
{
closed = 1;
nodes = (
(468,595,l),
(496,960,l),
(377,960,l),
(405,595,l)
);
}
);
width = 612;
},
{
layerId = m005;
shapes = (
{
closed = 1;
nodes = (
(289,525,l),
(315,1028,l),
(83,1028,l),
(110,525,l)
);
},
{
closed = 1;
nodes = (
(616,525,l),
(644,1028,l),
(412,1028,l),
(439,525,l)
);
}
);
width = 727;
},
{
layerId = "1B8EDE0E-D46F-48F9-B9C6-2CD34FEA95FD";
shapes = (
{
closed = 1;
nodes = (
(261,542,l),
(289,1011,l),
(83,1011,l),
(110,542,l)
);
},
{
closed = 1;
nodes = (
(571,542,l),
(599,1011,l),
(396,1011,l),
(422,542,l)
);
}
);
width = 682;
}
);
metricRight = "=|";
unicode = 34;
},
{
glyphname = quotesingle;
lastChange = "2025-11-28 20:07:49 +0000";
layers = (
{
layerId = m004;
shapes = (
{
closed = 1;
nodes = (
(184,1108,l),
(207,1485,l),
(94,1485,l),
(117,1108,l)
);
}
);
width = 301;
},
{
layerId = m005;
shapes = (
{
closed = 1;
nodes = (
(364,972,l),
(402,1485,l),
(83,1485,l),
(122,972,l)
);
}
);
width = 485;
},
{
layerId = "1B8EDE0E-D46F-48F9-B9C6-2CD34FEA95FD";
shapes = (
{
closed = 1;
nodes = (
(261,1108,l),
(299,1485,l),
(83,1485,l),
(122,1108,l)
);
}
);
width = 382;
}
);
metricRight = "=|";
unicode = 39;
},
{
glyphname = at;
lastChange = "2025-11-28 20:07:16 +0000";
layers = (
{
layerId = m004;
shapes = (
{
closed = 1;
nodes = (
(1392,283,o),
(1308,213,o),
(1230,213,cs),
(1121,213,o),
(1027,283,o),
(1047,442,cs),
(1130,1093,l),
(1059,1093,l),
(1045,993,l),
(979,1098,o),
(906,1114,o),
(831,1114,cs),
(645,1114,o),
(479,1041,o),
(438,700,cs),
(399,376,o),
(525,293,o),
(728,293,cs),
(827,293,o),
(908,320,o),
(970,434,c),
(970,434,l),
(954,268,o),
(1066,141,o),
(1219,141,cs),
(1328,141,o),
(1483,225,o),
(1550,396,cs),
(1586,487,o),
(1607,590,o),
(1607,705,cs),
(1607,1176,o),
(1333,1472,o),
(840,1472,cs),
(344,1472,o),
(70,1176,o),
(70,705,cs),
(70,232,o),
(344,-65,o),
(934,-65,c),
(934,6,l),
(412,6,o),
(148,277,o),
(148,705,cs),
(148,1130,o),
(412,1402,o),
(840,1402,cs),
(1264,1402,o),
(1530,1106,o),
(1530,705,cs),
(1530,589,o),
(1504,467,o),
(1451,380,cs)
);
},
{
closed = 1;
nodes = (
(570,371,o),
(471,418,o),
(509,700,cs),
(547,999,o),
(654,1050,o),
(793,1050,cs),
(922,1050,o),
(1027,1022,o),
(986,700,cs),
(950,418,o),
(837,371,o),
(709,371,cs)
);
}
);
width = 1677;
},
{
layerId = m005;
shapes = (
{
closed = 1;
nodes = (
(1331,293,o),
(1257,248,o),
(1198,248,cs),
(1134,248,o),
(1063,300,o),
(1074,387,cs),
(1164,1093,l),
(1025,1093,l),
(998,1050,l),
(944,1098,o),
(871,1114,o),
(796,1114,cs),
(610,1114,o),
(444,1041,o),
(403,700,cs),
(364,376,o),
(490,293,o),
(693,293,cs),
(792,293,o),
(874,320,o),
(935,387,c),
(938,387,l),
(922,223,o),
(1031,141,o),
(1185,141,cs),
(1295,141,o),
(1450,225,o),
(1515,396,cs),
(1553,487,o),
(1573,590,o),
(1573,705,cs),
(1573,1176,o),
(1276,1472,o),
(805,1472,cs),
(332,1472,o),
(35,1176,o),
(35,705,cs),
(35,232,o),
(332,-65,o),
(899,-65,c),
(899,35,l),
(402,35,o),
(158,300,o),
(158,705,cs),
(158,1106,o),
(402,1349,o),
(805,1349,cs),
(1208,1349,o),
(1450,1106,o),
(1450,705,cs),
(1450,589,o),
(1424,483,o),
(1380,396,cs)
);
},
{
closed = 1;
nodes = (
(634,442,o),
(557,479,o),
(586,700,cs),
(616,935,o),
(700,966,o),
(811,966,cs),
(911,966,o),
(993,935,o),
(961,700,cs),
(935,515,o),
(844,442,o),
(744,442,cs)
);
}
);
width = 1608;
},
{
layerId = "1B8EDE0E-D46F-48F9-B9C6-2CD34FEA95FD";
shapes = (
{
closed = 1;
nodes = (
(1337,291,o),
(1262,239,o),
(1198,239,cs),
(1122,239,o),
(1045,299,o),
(1059,402,cs),
(1148,1093,l),
(1025,1093,l),
(1002,1035,l),
(944,1098,o),
(871,1114,o),
(796,1114,cs),
(610,1114,o),
(444,1041,o),
(403,700,cs),
(364,376,o),
(490,293,o),
(693,293,cs),
(792,293,o),
(874,320,o),
(935,399,c),
(938,399,l),
(922,233,o),
(1031,141,o),
(1185,141,cs),
(1295,141,o),
(1450,225,o),
(1515,396,cs),
(1553,487,o),
(1573,590,o),
(1573,705,cs),
(1573,1176,o),
(1283,1472,o),
(805,1472,cs),
(328,1472,o),
(35,1176,o),
(35,705,cs),
(35,232,o),
(328,-65,o),
(899,-65,c),
(899,29,l),
(396,29,o),
(148,296,o),
(148,705,cs),
(148,1114,o),
(396,1363,o),
(805,1363,cs),
(1214,1363,o),
(1462,1106,o),
(1462,705,cs),
(1462,589,o),
(1436,479,o),
(1391,392,cs)
);
},
{
closed = 1;
nodes = (
(609,423,o),
(526,463,o),
(558,700,cs),
(590,950,o),
(680,986,o),
(796,986,cs),
(906,986,o),
(993,958,o),
(958,700,cs),
(931,493,o),
(835,423,o),
(728,423,cs)
);
}
);
width = 1608;
}
);
metricRight = "=|";
unicode = 64;
},
{
glyphname = ampersand;
lastChange = "2025-11-28 11:52:18 +0000";
layers = (
{
layerId = m004;
shapes = (
{
closed = 1;
nodes = (
(977,-20,o),
(1199,123,o),
(1201,477,cs),
(1201,877,l),
(1269,877,l),
(1269,957,l),
(654,957,ls),
(384,957,o),
(294,1086,o),
(294,1275,cs),
(294,1460,o),
(381,1614,o),
(654,1614,cs),
(925,1614,o),
(1012,1460,o),
(1012,1275,c),
(1103,1275,l),
(1103,1533,o),
(928,1694,o),
(654,1694,cs),
(380,1694,o),
(203,1533,o),
(203,1279,cs),
(203,1111,o),
(264,980,o),
(415,918,c),
(244,850,o),
(151,696,o),
(151,457,cs),
(151,126,o),
(357,-20,o),
(654,-20,cs)
);
},
{
closed = 1;
nodes = (
(371,61,o),
(241,191,o),
(241,452,cs),
(241,713,o),
(347,874,o),
(651,877,cs),
(1111,877,l),
(1111,477,ls),
(1111,191,o),
(950,61,o),
(654,61,cs)
);
}
);
width = 1420;
},
{
layerId = m005;
shapes = (
{
closed = 1;
nodes = (
(1048,-14,o),
(1259,158,o),
(1259,513,cs),
(1259,805,l),
(1362,805,l),
(1362,1032,l),
(635,1032,ls),
(497,1032,o),
(418,1121,o),
(418,1234,cs),
(418,1357,o),
(473,1457,o),
(635,1457,cs),
(799,1457,o),
(854,1357,o),
(854,1234,cs),
(1134,1231,l),
(1134,1533,o),
(932,1686,o),
(635,1686,cs),
(339,1686,o),
(138,1525,o),
(138,1247,cs),
(138,1114,o),
(189,1008,o),
(271,932,c),
(144,844,o),
(62,699,o),
(62,500,cs),
(62,146,o),
(289,-14,o),
(635,-14,cs)
);
},
{
closed = 1;
nodes = (
(447,213,o),
(342,326,o),
(342,513,cs),
(342,693,o),
(422,805,o),
(635,805,cs),
(980,805,l),
(980,513,ls),
(980,326,o),
(890,213,o),
(635,213,cs)
);
}
);
width = 1424;
},
{
layerId = "1B8EDE0E-D46F-48F9-B9C6-2CD34FEA95FD";
shapes = (
{
closed = 1;
nodes = (
(953,-35,o),
(1115,119,o),
(1115,442,cs),
(1115,728,l),
(1280,728,l),
(1280,900,l),
(641,900,ls),
(481,900,o),
(396,992,o),
(396,1112,cs),
(396,1241,o),
(465,1347,o),
(641,1347,cs),
(813,1347,o),
(882,1241,o),
(882,1112,c),
(1085,1112,l),
(1085,1378,o),
(906,1520,o),
(641,1520,cs),
(373,1520,o),
(193,1372,o),
(193,1122,cs),
(193,992,o),
(242,890,o),
(334,824,c),
(207,748,o),
(139,621,o),
(139,429,cs),
(139,110,o),
(334,-35,o),
(641,-35,cs)
);
},
{
closed = 1;
nodes = (
(444,138,o),
(342,248,o),
(342,436,cs),
(342,622,o),
(423,728,o),
(638,728,cs),
(912,728,l),
(912,442,ls),
(912,248,o),
(813,138,o),
(641,138,cs)
);
}
);
width = 1396;
}
);
unicode = 38;
},
{
glyphname = copyright;
lastChange = "2025-11-28 20:07:16 +0000";
layers = (
{
layerId = m004;
shapes = (
{
closed = 1;
nodes = (
(1264,-13,o),
(1607,331,o),
(1607,757,cs),
(1607,1182,o),
(1264,1525,o),
(840,1525,cs),
(412,1525,o),
(70,1182,o),
(70,757,cs),
(70,331,o),
(412,-13,o),
(840,-13,cs)
);
},
{
closed = 1;
nodes = (
(454,65,o),
(148,371,o),
(148,757,cs),
(148,1141,o),
(454,1447,o),
(840,1447,cs),
(1224,1447,o),
(1530,1141,o),
(1530,757,cs),
(1530,371,o),
(1224,65,o),
(840,65,cs)
);
},
{
closed = 1;
nodes = (
(1025,339,o),
(1157,431,o),
(1161,600,c),
(1093,600,l),
(1086,471,o),
(993,407,o),
(837,407,cs),
(705,407,o),
(568,510,o),
(568,755,cs),
(568,1006,o),
(705,1102,o),
(837,1102,cs),
(993,1102,o),
(1086,1038,o),
(1093,911,c),
(1161,911,l),
(1157,1079,o),
(1025,1170,o),
(837,1170,cs),
(660,1170,o),
(493,1053,o),
(493,755,cs),
(493,465,o),
(657,339,o),
(837,339,cs)
);
}
);
width = 1677;
},
{
layerId = m005;
shapes = (
{
closed = 1;
nodes = (
(1230,-13,o),
(1573,331,o),
(1573,757,cs),
(1573,1182,o),
(1230,1525,o),
(805,1525,cs),
(378,1525,o),
(35,1182,o),
(35,757,cs),
(35,331,o),
(378,-13,o),
(805,-13,cs)
);
},
{
closed = 1;
nodes = (
(463,138,o),
(186,415,o),
(186,757,cs),
(186,1098,o),
(463,1375,o),
(805,1375,cs),
(1146,1375,o),
(1422,1098,o),
(1422,757,cs),
(1422,415,o),
(1146,138,o),
(805,138,cs)
);
},
{
closed = 1;
nodes = (
(956,309,o),
(1160,364,o),
(1160,613,c),
(979,613,l),
(979,497,o),
(903,474,o),
(805,474,cs),
(677,474,o),
(610,558,o),
(610,755,cs),
(610,954,o),
(677,1034,o),
(805,1034,cs),
(903,1034,o),
(979,995,o),
(979,899,c),
(1160,899,l),
(1160,1128,o),
(956,1204,o),
(805,1204,cs),
(574,1196,o),
(410,1073,o),
(410,755,cs),
(410,438,o),
(574,309,o),
(805,309,cs)
);
}
);
width = 1608;
},
{
layerId = "1B8EDE0E-D46F-48F9-B9C6-2CD34FEA95FD";
shapes = (
{
closed = 1;
nodes = (
(1230,-13,o),
(1573,331,o),
(1573,757,cs),
(1573,1182,o),
(1230,1525,o),
(805,1525,cs),
(378,1525,o),
(35,1182,o),
(35,757,cs),
(35,331,o),
(378,-13,o),
(805,-13,cs)
);
},
{
closed = 1;
nodes = (
(451,120,o),
(168,403,o),
(168,757,cs),
(168,1109,o),
(451,1392,o),
(805,1392,cs),
(1157,1392,o),
(1440,1109,o),
(1440,757,cs),
(1440,403,o),
(1157,120,o),
(805,120,cs)
);
},
{
closed = 1;
nodes = (
(966,316,o),
(1150,378,o),
(1153,609,c),
(999,609,l),
(998,490,o),
(918,458,o),
(805,458,cs),
(676,458,o),
(593,547,o),
(593,755,cs),
(593,967,o),
(676,1053,o),
(805,1053,cs),
(918,1053,o),
(998,1003,o),
(999,902,c),
(1153,902,l),
(1150,1118,o),
(966,1196,o),
(805,1196,cs),
(584,1189,o),
(422,1069,o),
(422,755,cs),
(422,444,o),
(586,316,o),
(805,316,cs)
);
}
);
width = 1608;
}
);
metricRight = "=|";
unicode = 169;
},
{
glyphname = registered;
lastChange = "2025-11-28 20:07:16 +0000";
layers = (
{
layerId = m004;
shapes = (
{
closed = 1;
nodes = (
(851,334,o),
(1072,555,o),
(1072,832,cs),
(1072,1108,o),
(851,1330,o),
(574,1330,cs),
(297,1330,o),
(77,1108,o),
(77,832,cs),
(77,555,o),
(297,334,o),
(574,334,cs)
);
},
{
closed = 1;
nodes = (
(334,397,o),
(136,590,o),
(136,832,cs),
(136,1073,o),
(334,1269,o),
(574,1269,cs),
(815,1269,o),
(1009,1073,o),
(1009,832,cs),
(1009,590,o),
(815,397,o),
(574,397,cs)
);
},
{
closed = 1;
nodes = (
(476,621,l),
(476,815,l),
(589,815,l),
(680,621,l),
(738,621,l),
(645,819,l),
(697,829,o),
(728,867,o),
(728,943,cs),
(728,1048,o),
(677,1073,o),
(605,1073,cs),
(423,1073,l),
(423,621,l)
);
},
{
closed = 1;
nodes = (
(476,1025,l),
(609,1025,ls),
(650,1025,o),
(680,1008,o),
(680,943,cs),
(680,880,o),
(650,861,o),
(609,861,cs),
(476,861,l)
);
}
);
width = 1149;
},
{
layerId = m005;
shapes = (
{
closed = 1;
nodes = (
(813,334,o),
(1034,555,o),
(1034,832,cs),
(1034,1108,o),
(813,1330,o),
(537,1330,cs),
(260,1330,o),
(39,1108,o),
(39,832,cs),
(39,555,o),
(260,334,o),
(537,334,cs)
);
},
{
closed = 1;
nodes = (
(313,429,o),
(132,608,o),
(132,832,cs),
(132,1056,o),
(313,1237,o),
(537,1237,cs),
(760,1237,o),
(938,1056,o),
(938,832,cs),
(938,608,o),
(760,429,o),
(537,429,cs)
);
},
{
closed = 1;
nodes = (
(465,621,l),
(465,802,l),
(537,802,l),
(625,621,l),
(721,621,l),
(629,809,l),
(677,824,o),
(715,861,o),
(715,943,cs),
(715,1066,o),
(635,1088,o),
(561,1088,cs),
(381,1088,l),
(381,621,l)
);
},
{
closed = 1;
nodes = (
(465,1015,l),
(561,1015,ls),
(597,1015,o),
(625,1002,o),
(625,943,cs),
(625,885,o),
(597,871,o),
(561,871,cs),
(465,871,l)
);
}
);
width = 1073;
},
{
layerId = "1B8EDE0E-D46F-48F9-B9C6-2CD34FEA95FD";
shapes = (
{
closed = 1;
nodes = (
(813,334,o),
(1034,555,o),
(1034,832,cs),
(1034,1108,o),
(813,1330,o),
(537,1330,cs),
(260,1330,o),
(39,1108,o),
(39,832,cs),
(39,555,o),
(260,334,o),
(537,334,cs)
);
},
{
closed = 1;
nodes = (
(307,422,o),
(125,603,o),
(125,832,cs),
(125,1060,o),
(307,1244,o),
(537,1244,cs),
(766,1244,o),
(947,1060,o),
(947,832,cs),
(947,603,o),
(766,422,o),
(537,422,cs)
);
},
{
closed = 1;
nodes = (
(458,621,l),
(458,805,l),
(541,805,l),
(629,621,l),
(715,621,l),
(625,812,l),
(673,824,o),
(711,864,o),
(711,943,cs),
(711,1060,o),
(637,1083,o),
(564,1083,cs),
(383,1083,l),
(383,621,l)
);
},
{
closed = 1;
nodes = (
(458,1018,l),
(564,1018,ls),
(602,1018,o),
(629,1005,o),
(629,943,cs),
(629,882,o),
(602,870,o),
(564,870,cs),
(458,870,l)
);
}
);
width = 1073;
}
);
metricRight = "=|";
unicode = 174;
},
{
glyphname = trademark;
lastChange = "2025-11-28 11:52:18 +0000";
layers = (
{
layerId = m004;
shapes = (
{
closed = 1;
nodes = (
(323,384,l),
(323,1044,l),
(531,1044,l),
(531,1103,l),
(46,1103,l),
(46,1044,l),
(260,1044,l),
(260,384,l)
);
},
{
closed = 1;
nodes = (
(684,381,l),
(684,1073,l),
(638,1072,l),
(947,381,l),
(961,381,l),
(1269,1072,l),
(1224,1073,l),
(1224,381,l),
(1285,381,l),
(1285,1103,l),
(1224,1103,l),
(919,425,l),
(987,425,l),
(684,1103,l),
(625,1103,l),
(625,381,l)
);
}
);
width = 941;
},
{
layerId = m005;
shapes = (
{
closed = 1;
nodes = (
(384,392,l),
(384,958,l),
(571,958,l),
(571,1095,l),
(35,1095,l),
(35,958,l),
(222,958,l),
(222,392,l)
);
},
{
closed = 1;
nodes = (
(821,390,l),
(821,940,l),
(755,863,l),
(989,390,l),
(1106,390,l),
(1337,863,l),
(1273,940,l),
(1273,390,l),
(1412,390,l),
(1412,1095,l),
(1286,1095,l),
(987,460,l),
(1112,460,l),
(806,1095,l),
(682,1095,l),
(682,390,l)
);
}
);
width = 925;
},
{
layerId = "1B8EDE0E-D46F-48F9-B9C6-2CD34FEA95FD";
shapes = (
{
closed = 1;
nodes = (
(360,390,l),
(360,979,l),
(551,979,l),
(551,1098,l),
(29,1098,l),
(29,979,l),
(223,979,l),
(223,390,l)
);
},
{
closed = 1;
nodes = (
(777,387,l),
(777,974,l),
(719,915,l),
(970,387,l),
(1061,387,l),
(1312,915,l),
(1251,974,l),
(1251,387,l),
(1372,387,l),
(1372,1098,l),
(1262,1098,l),
(963,451,l),
(1073,451,l),
(769,1098,l),
(660,1098,l),
(660,387,l)
);
}
);
width = 911;
}
);
unicode = 8482;
},
{
glyphname = second;
lastChange = "2025-11-28 12:19:03 +0000";
layers = (
{
layerId = m004;
shapes = (
{
closed = 1;
nodes = (
(264,579,l),
(419,1131,l),
(239,1131,l),
(144,579,l)
);
},
{
closed = 1;
nodes = (
(551,579,l),
(706,1131,l),
(525,1131,l),
(429,579,l)
);
}
);
width = 850;
},
{
layerId = m005;
shapes = (
{
closed = 1;
nodes = (
(302,579,l),
(457,1131,l),
(202,1131,l),
(106,579,l)
);
},
{
closed = 1;
nodes = (
(664,579,l),
(819,1131,l),
(563,1131,l),
(467,579,l)
);
}
);
width = 925;
},
{
layerId = "1B8EDE0E-D46F-48F9-B9C6-2CD34FEA95FD";
shapes = (
{
closed = 1;
nodes = (
(284,579,l),
(439,1131,l),
(202,1131,l),
(106,579,l)
);
},
{
closed = 1;
nodes = (
(626,579,l),
(782,1131,l),
(545,1131,l),
(450,579,l)
);
}
);
width = 888;
}
);
metricRight = "=|";
unicode = 8243;
},
{
glyphname = bar;
lastChange = "2025-11-28 20:07:49 +0000";
layers = (
{
layerId = m004;
shapes = (
{
closed = 1;
nodes = (
(144,1859,l),
(144,-151,l),
(233,-151,l),
(233,1859,l)
);
}
);
width = 377;
},
{
layerId = m005;
shapes = (
{
closed = 1;
nodes = (
(25,1857,l),
(25,-148,l),
(231,-148,l),
(231,1857,l)
);
}
);
width = 256;
},
{
layerId = "1B8EDE0E-D46F-48F9-B9C6-2CD34FEA95FD";
shapes = (
{
closed = 1;
nodes = (
(45,1859,l),
(45,-149,l),
(222,-149,l),
(222,1859,l)
);
}
);
width = 267;
}
);
metricRight = "=|";
unicode = 124;
},
{
glyphname = dollar;
lastChange = "2025-11-28 11:52:18 +0000";
layers = (
{
layerId = m004;
shapes = (
{
closed = 1;
nodes = (
(696,-103,l),
(696,1943,l),
(603,1943,l),
(603,-103,l)
);
},
{
ref = S;
}
);
width = 1143;
},
{
background = {
shapes = (
{
closed = 1;
nodes = (
(348,-10,o),
(415,42,o),
(415,143,cs),
(415,232,o),
(368,269,o),
(252,330,cs),
(169,373,o),
(151,373,o),
(151,429,cs),
(151,478,o),
(172,491,o),
(226,491,cs),
(259,491,o),
(322,486,o),
(366,477,c),
(366,560,l),
(322,568,o),
(267,574,o),
(227,574,cs),
(143,574,o),
(64,541,o),
(64,430,cs),
(64,338,o),
(122,302,o),
(211,252,cs),
(315,195,o),
(328,191,o),
(328,143,cs),
(328,85,o),
(308,72,o),
(223,72,cs),
(191,72,o),
(127,74,o),
(84,82,c),
(84,0,l),
(127,-8,o),
(183,-10,o),
(223,-10,cs)
);
}
);
};
layerId = m005;
shapes = (
{
closed = 1;
nodes = (
(679,-103,l),
(679,1943,l),
(532,1943,l),
(532,-103,l)
);
},
{
ref = S;
}
);
width = 1208;
},
{
layerId = "1B8EDE0E-D46F-48F9-B9C6-2CD34FEA95FD";
shapes = (
{
closed = 1;
nodes = (
(673,-103,l),
(673,1943,l),
(541,1943,l),
(541,-103,l)
);
},
{
ref = S;
}
);
width = 1206;
}
);
metricLeft = "=S";
metricRight = "=S";
unicode = 36;
},
{
glyphname = euro;
lastChange = "2025-11-28 11:52:18 +0000";
layers = (
{
layerId = m004;
shapes = (
{
closed = 1;
nodes = (
(960,-13,o),
(1172,180,o),
(1172,471,c),
(1090,471,l),
(1090,239,o),
(932,59,o),
(683,59,cs),
(429,59,o),
(226,299,o),
(226,755,cs),
(226,1214,o),
(429,1453,o),
(683,1453,cs),
(929,1453,o),
(1090,1273,o),
(1090,1041,c),
(1172,1041,l),
(1172,1333,o),
(960,1525,o),
(683,1525,cs),
(400,1525,o),
(138,1309,o),
(138,755,cs),
(138,203,o),
(400,-13,o),
(683,-13,cs)
);
},
{
closed = 1;
nodes = (
(68,825,l),
(857,825,l),
(857,898,l),
(68,898,l)
);
},
{
closed = 1;
nodes = (
(68,622,l),
(857,622,l),
(857,695,l),
(68,695,l)
);
}
);
width = 754;
},
{
layerId = m005;
shapes = (
{
closed = 1;
nodes = (
(1025,-12,o),
(1338,112,o),
(1338,476,c),
(1103,476,l),
(1103,261,o),
(960,190,o),
(798,190,cs),
(535,190,o),
(409,384,o),
(409,755,cs),
(409,1128,o),
(535,1322,o),
(798,1322,cs),
(956,1322,o),
(1103,1254,o),
(1103,1037,c),
(1338,1037,l),
(1338,1414,o),
(1021,1524,o),
(774,1524,cs),
(421,1524,o),
(180,1298,o),
(180,755,cs),
(180,226,o),
(421,-12,o),
(774,-12,cs)
);
},
{
closed = 1;
nodes = (
(23,831,l),
(925,831,l),
(925,980,l),
(23,980,l)
);
},
{
closed = 1;
nodes = (
(23,535,l),
(925,535,l),
(925,683,l),
(23,683,l)
);
}
);
width = 748;
},
{
layerId = "1B8EDE0E-D46F-48F9-B9C6-2CD34FEA95FD";
shapes = (
{
closed = 1;
nodes = (
(999,-13,o),
(1288,129,o),
(1288,474,c),
(1090,474,l),
(1090,257,o),
(943,158,o),
(760,158,cs),
(499,158,o),
(355,364,o),
(355,757,cs),
(355,1150,o),
(499,1356,o),
(760,1356,cs),
(940,1356,o),
(1090,1260,o),
(1090,1038,c),
(1288,1038,l),
(1288,1395,o),
(998,1525,o),
(744,1525,cs),
(406,1525,o),
(161,1301,o),
(161,757,cs),
(161,220,o),
(406,-13,o),
(744,-13,cs)
);
},
{
closed = 1;
nodes = (
(26,831,l),
(899,831,l),
(899,961,l),
(26,961,l)
);
},
{
closed = 1;
nodes = (
(26,557,l),
(899,557,l),
(899,686,l),
(26,686,l)
);
}
);
width = 732;
}
);
unicode = 8364;
},
{
glyphname = sterling;
lastChange = "2025-11-28 11:52:18 +0000";
layers = (
{
layerId = m004;
shapes = (
{
closed = 1;
nodes = (
(902,0,l),
(902,73,l),
(200,73,l),
(296,206,o),
(384,297,o),
(316,487,cs),
(264,632,o),
(181,825,o),
(181,1051,cs),
(181,1369,o),
(355,1440,o),
(483,1440,cs),
(625,1440,o),
(799,1369,o),
(799,1028,c),
(886,1028,l),
(886,1369,o),
(716,1512,o),
(483,1512,cs),
(257,1512,o),
(104,1369,o),
(104,1051,cs),
(104,790,o),
(225,508,o),
(248,441,cs),
(293,320,o),
(186,190,o),
(62,39,c),
(62,0,l)
);
},
{
closed = 1;
nodes = (
(62,708,l),
(827,708,l),
(827,782,l),
(62,782,l)
);
}
);
width = 563;
},
{
layerId = m005;
shapes = (
{
closed = 1;
nodes = (
(1056,0,l),
(1056,218,l),
(487,218,l),
(584,310,o),
(798,436,o),
(532,706,cs),
(422,818,o),
(374,914,o),
(374,1019,cs),
(374,1202,o),
(441,1298,o),
(592,1295,cs),
(726,1293,o),
(813,1202,o),
(813,1028,c),
(1048,1028,l),
(1048,1391,o),
(848,1512,o),
(592,1512,cs),
(342,1512,o),
(122,1391,o),
(122,1028,cs),
(122,818,o),
(203,706,o),
(322,580,cs),
(525,364,o),
(222,290,o),
(80,151,c),
(80,0,l)
);
},
{
closed = 1;
nodes = (
(23,651,l),
(890,651,l),
(890,841,l),
(23,841,l)
);
}
);
width = 563;
},
{
layerId = "1B8EDE0E-D46F-48F9-B9C6-2CD34FEA95FD";
shapes = (
{
closed = 1;
nodes = (
(1009,0,l),
(1009,180,l),
(407,180,l),
(506,286,o),
(686,400,o),
(470,651,cs),
(374,773,o),
(319,890,o),
(319,1025,cs),
(319,1243,o),
(410,1334,o),
(557,1333,cs),
(693,1330,o),
(800,1243,o),
(800,1028,c),
(999,1028,l),
(999,1386,o),
(808,1512,o),
(557,1512,cs),
(315,1512,o),
(109,1386,o),
(109,1035,cs),
(109,811,o),
(200,658,o),
(296,547,cs),
(458,354,o),
(204,265,o),
(67,123,c),
(67,0,l)
);
},
{
closed = 1;
nodes = (
(25,664,l),
(867,664,l),
(867,825,l),
(25,825,l)
);
}
);
width = 544;
}
);
unicode = 163;
},
{
glyphname = plus;
lastChange = "2025-11-28 20:07:16 +0000";
layers = (
{
layerId = m004;
shapes = (
{
closed = 1;
nodes = (
(157,613,l),
(1088,613,l),
(1088,703,l),
(157,703,l)
);
},
{
closed = 1;
nodes = (
(577,1124,l),
(577,193,l),
(667,193,l),
(667,1124,l)
);
}
);
width = 1245;
},
{
layerId = m005;
shapes = (
{
closed = 1;
nodes = (
(81,576,l),
(1112,576,l),
(1112,792,l),
(81,792,l)
);
},
{
closed = 1;
nodes = (
(489,1199,l),
(489,168,l),
(705,168,l),
(705,1199,l)
);
}
);
width = 1193;
},
{
layerId = "1B8EDE0E-D46F-48F9-B9C6-2CD34FEA95FD";
shapes = (
{
closed = 1;
nodes = (
(91,584,l),
(1096,584,l),
(1096,770,l),
(91,770,l)
);
},
{
closed = 1;
nodes = (
(502,1180,l),
(502,174,l),
(684,174,l),
(684,1180,l)
);
}
);
width = 1187;
}
);
metricRight = "=|";
unicode = 43;
},
{
glyphname = minus;
lastChange = "2025-11-28 20:07:16 +0000";
layers = (
{
layerId = m004;
shapes = (
{
closed = 1;
nodes = (
(157,403,l),
(1088,403,l),
(1088,494,l),
(157,494,l)
);
}
);
width = 1245;
},
{
layerId = m005;
shapes = (
{
closed = 1;
nodes = (
(81,371,l),
(1112,371,l),
(1112,589,l),
(81,589,l)
);
}
);
width = 1193;
},
{
layerId = "1B8EDE0E-D46F-48F9-B9C6-2CD34FEA95FD";
shapes = (
{
closed = 1;
nodes = (
(91,380,l),
(1096,380,l),
(1096,566,l),
(91,566,l)
);
}
);
width = 1187;
}
);
metricRight = "=|";
unicode = 8722;
},
{
glyphname = multiply;
lastChange = "2025-11-28 11:52:18 +0000";
layers = (
{
layerId = m004;
shapes = (
{
closed = 1;
nodes = (
(932,310,l),
(274,969,l),
(209,903,l),
(867,245,l)
);
},
{
closed = 1;
nodes = (
(932,903,l),
(867,969,l),
(209,310,l),
(274,245,l)
);
}
);
width = 1141;
},
{
layerId = m005;
shapes = (
{
closed = 1;
nodes = (
(995,352,l),
(267,1082,l),
(120,937,l),
(850,207,l)
);
},
{
closed = 1;
nodes = (
(995,937,l),
(850,1082,l),
(120,352,l),
(267,207,l)
);
}
);
width = 1115;
},
{
layerId = "1B8EDE0E-D46F-48F9-B9C6-2CD34FEA95FD";
shapes = (
{
closed = 1;
nodes = (
(970,341,l),
(260,1054,l),
(133,928,l),
(844,218,l)
);
},
{
closed = 1;
nodes = (
(970,928,l),
(844,1054,l),
(133,341,l),
(260,218,l)
);
}
);
width = 1103;
}
);
metricRight = "=|";
unicode = 215;
},
{
glyphname = divide;
lastChange = "2025-11-28 20:07:16 +0000";
layers = (
{
layerId = m004;
shapes = (
{
closed = 1;
nodes = (
(1088,586,l),
(1088,676,l),
(157,676,l),
(157,586,l)
);
},
{
closed = 1;
nodes = (
(654,929,l),
(654,1040,l),
(539,1040,l),
(539,929,l)
);
},
{
closed = 1;
nodes = (
(654,222,l),
(654,332,l),
(539,332,l),
(539,222,l)
);
}
);
width = 1245;
},
{
layerId = m005;
shapes = (
{
closed = 1;
nodes = (
(1112,576,l),
(1112,792,l),
(81,792,l),
(81,576,l)
);
},
{
closed = 1;
nodes = (
(705,983,l),
(705,1199,l),
(489,1199,l),
(489,983,l)
);
},
{
closed = 1;
nodes = (
(705,168,l),
(705,384,l),
(489,384,l),
(489,168,l)
);
}
);
width = 1193;
},
{
layerId = "1B8EDE0E-D46F-48F9-B9C6-2CD34FEA95FD";
shapes = (
{
closed = 1;
nodes = (
(1096,577,l),
(1096,763,l),
(91,763,l),
(91,577,l)
);
},
{
closed = 1;
nodes = (
(683,969,l),
(683,1157,l),
(492,1157,l),
(492,969,l)
);
},
{
closed = 1;
nodes = (
(683,183,l),
(683,371,l),
(492,371,l),
(492,183,l)
);
}
);
width = 1187;
}
);
metricRight = "=|";
unicode = 247;
},
{
glyphname = equal;
lastChange = "2025-11-28 20:07:16 +0000";
layers = (
{
layerId = m004;
shapes = (
{
closed = 1;
nodes = (
(142,676,l),
(987,676,l),
(987,757,l),
(142,757,l)
);
},
{
closed = 1;
nodes = (
(142,264,l),
(987,264,l),
(987,347,l),
(142,347,l)
);
}
);
width = 1129;
},
{
layerId = m005;
shapes = (
{
closed = 1;
nodes = (
(109,647,l),
(954,647,l),
(954,842,l),
(109,842,l)
);
},
{
closed = 1;
nodes = (
(109,235,l),
(954,235,l),
(954,432,l),
(109,432,l)
);
}
);
width = 1063;
},
{
layerId = "1B8EDE0E-D46F-48F9-B9C6-2CD34FEA95FD";
shapes = (
{
closed = 1;
nodes = (
(109,654,l),
(954,654,l),
(954,822,l),
(109,822,l)
);
},
{
closed = 1;
nodes = (
(109,242,l),
(954,242,l),
(954,412,l),
(109,412,l)
);
}
);
width = 1063;
}
);
metricRight = "=|";
unicode = 61;
},
{
glyphname = greater;
lastChange = "2025-11-28 11:52:18 +0000";
layers = (
{
layerId = m004;
shapes = (
{
closed = 1;
nodes = (
(194,1151,l),
(1108,616,l),
(1108,699,l),
(194,1235,l)
);
},
{
closed = 1;
nodes = (
(194,126,l),
(1108,616,l),
(1108,699,l),
(194,210,l)
);
}
);
width = 719;
},
{
layerId = m005;
shapes = (
{
closed = 1;
nodes = (
(80,1001,l),
(1063,567,l),
(1063,763,l),
(80,1219,l)
);
},
{
closed = 1;
nodes = (
(80,110,l),
(1063,567,l),
(1063,763,l),
(80,329,l)
);
}
);
width = 605;
},
{
layerId = "1B8EDE0E-D46F-48F9-B9C6-2CD34FEA95FD";
shapes = (
{
closed = 1;
nodes = (
(100,1038,l),
(1064,579,l),
(1064,748,l),
(100,1224,l)
);
},
{
closed = 1;
nodes = (
(100,113,l),
(1064,579,l),
(1064,748,l),
(100,300,l)
);
}
);
width = 616;
}
);
unicode = 62;
},
{
glyphname = less;
lastChange = "2025-11-28 11:52:18 +0000";
layers = (
{
layerId = m004;
shapes = (
{
closed = 1;
nodes = (
(68,711,l),
(68,628,l),
(982,1163,l),
(982,1247,l)
);
},
{
closed = 1;
nodes = (
(68,711,l),
(68,628,l),
(982,138,l),
(982,222,l)
);
}
);
width = 719;
},
{
layerId = m005;
shapes = (
{
closed = 1;
nodes = (
(35,763,l),
(35,567,l),
(1016,1001,l),
(1016,1219,l)
);
},
{
closed = 1;
nodes = (
(35,763,l),
(35,567,l),
(1016,110,l),
(1016,329,l)
);
}
);
width = 605;
},
{
layerId = "1B8EDE0E-D46F-48F9-B9C6-2CD34FEA95FD";
shapes = (
{
closed = 1;
nodes = (
(35,750,l),
(35,583,l),
(1001,1041,l),
(1001,1227,l)
);
},
{
closed = 1;
nodes = (
(35,750,l),
(35,583,l),
(1001,116,l),
(1001,302,l)
);
}
);
width = 616;
}
);
unicode = 60;
},
{
glyphname = percent;
lastChange = "2025-11-28 11:52:18 +0000";
layers = (
{
layerId = m004;
shapes = (
{
closed = 1;
nodes = (
(80,15,l),
(190,15,l),
(1383,1643,l),
(1273,1643,l)
);
},
{
closed = 1;
nodes = (
(951,600,o),
(1027,648,o),
(1119,648,cs),
(1198,648,o),
(1273,600,o),
(1273,367,cs),
(1273,131,o),
(1198,83,o),
(1119,83,cs),
(1027,83,o),
(951,131,o),
(951,367,cs)
);
},
{
closed = 1;
nodes = (
(204,1502,o),
(280,1550,o),
(373,1550,cs),
(451,1550,o),
(526,1502,o),
(526,1269,cs),
(526,1032,o),
(451,985,o),
(373,985,cs),
(280,985,o),
(204,1032,o),
(204,1269,cs)
);
},
{
closed = 1;
nodes = (
(107,967,o),
(231,892,o),
(371,892,cs),
(502,892,o),
(622,967,o),
(622,1269,cs),
(622,1567,o),
(502,1643,o),
(371,1643,cs),
(231,1643,o),
(107,1567,o),
(107,1269,cs)
);
},
{
closed = 1;
nodes = (
(853,65,o),
(976,-10,o),
(1117,-10,cs),
(1247,-10,o),
(1369,65,o),
(1369,367,cs),
(1369,666,o),
(1247,741,o),
(1117,741,cs),
(976,741,o),
(853,666,o),
(853,367,cs)
);
}
);
width = 1463;
},
{
layerId = m005;
shapes = (
{
closed = 1;
nodes = (
(25,15,l),
(294,15,l),
(1395,1643,l),
(1125,1643,l)
);
},
{
closed = 1;
nodes = (
(977,552,o),
(1028,590,o),
(1096,590,cs),
(1153,590,o),
(1204,552,o),
(1204,367,cs),
(1204,178,o),
(1153,141,o),
(1096,141,cs),
(1028,141,o),
(977,178,o),
(977,367,cs)
);
},
{
closed = 1;
nodes = (
(239,1440,o),
(284,1478,o),
(349,1478,cs),
(405,1478,o),
(450,1440,o),
(450,1269,cs),
(450,1096,o),
(405,1059,o),
(349,1059,cs),
(284,1059,o),
(239,1096,o),
(239,1269,cs)
);
},
{
closed = 1;
nodes = (
(61,967,o),
(209,892,o),
(349,892,cs),
(480,892,o),
(626,967,o),
(626,1269,cs),
(626,1567,o),
(480,1643,o),
(349,1643,cs),
(209,1643,o),
(61,1567,o),
(61,1269,cs)
);
},
{
closed = 1;
nodes = (
(806,65,o),
(956,-10,o),
(1096,-10,cs),
(1227,-10,o),
(1372,65,o),
(1372,367,cs),
(1372,666,o),
(1227,741,o),
(1096,741,cs),
(956,741,o),
(806,666,o),
(806,367,cs)
);
}
);
width = 1420;
},
{
layerId = "1B8EDE0E-D46F-48F9-B9C6-2CD34FEA95FD";
shapes = (
{
closed = 1;
nodes = (
(29,15,l),
(260,15,l),
(1383,1643,l),
(1154,1643,l)
);
},
{
closed = 1;
nodes = (
(961,566,o),
(1019,606,o),
(1092,606,cs),
(1154,606,o),
(1212,566,o),
(1212,367,cs),
(1212,165,o),
(1154,126,o),
(1092,126,cs),
(1019,126,o),
(961,165,o),
(961,367,cs)
);
},
{
closed = 1;
nodes = (
(220,1454,o),
(276,1495,o),
(345,1495,cs),
(409,1495,o),
(461,1454,o),
(461,1269,cs),
(461,1080,o),
(409,1040,o),
(345,1040,cs),
(276,1040,o),
(220,1080,o),
(220,1269,cs)
);
},
{
closed = 1;
nodes = (
(64,967,o),
(204,892,o),
(345,892,cs),
(476,892,o),
(616,967,o),
(616,1269,cs),
(616,1567,o),
(476,1643,o),
(345,1643,cs),
(204,1643,o),
(64,1567,o),
(64,1269,cs)
);
},
{
closed = 1;
nodes = (
(811,65,o),
(951,-10,o),
(1092,-10,cs),
(1222,-10,o),
(1363,65,o),
(1363,367,cs),
(1363,666,o),
(1222,741,o),
(1092,741,cs),
(951,741,o),
(811,666,o),
(811,367,cs)
);
}
);
width = 1412;
}
);
metricRight = "=|";
unicode = 37;
},
{
glyphname = upArrow;
lastChange = "2025-11-28 11:52:18 +0000";
layers = (
{
layerId = m004;
shapes = (
{
closed = 1;
nodes = (
(644,1224,l),
(564,1193,l),
(564,-58,l),
(639,-58,l),
(639,1193,l),
(560,1224,l),
(1115,780,l),
(1115,879,l),
(603,1273,l),
(91,879,l),
(91,780,l)
);
}
);
width = 695;
},
{
layerId = m005;
shapes = (
{
closed = 1;
nodes = (
(580,1015,l),
(452,1101,l),
(452,-80,l),
(686,-80,l),
(686,1101,l),
(557,1015,l),
(1080,619,l),
(1080,880,l),
(568,1275,l),
(57,880,l),
(57,619,l)
);
}
);
width = 626;
},
{
layerId = "1B8EDE0E-D46F-48F9-B9C6-2CD34FEA95FD";
shapes = (
{
closed = 1;
nodes = (
(587,1066,l),
(471,1125,l),
(471,-74,l),
(664,-74,l),
(664,1125,l),
(551,1066,l),
(1080,660,l),
(1080,879,l),
(568,1273,l),
(57,879,l),
(57,660,l)
);
}
);
width = 626;
}
);
unicode = 8593;
},
{
glyphname = rightArrow;
lastChange = "2025-11-28 11:52:18 +0000";
layers = (
{
layerId = m004;
shapes = (
{
closed = 1;
nodes = (
(1375,471,l),
(1344,551,l),
(93,551,l),
(93,476,l),
(1344,476,l),
(1375,555,l),
(931,0,l),
(1030,0,l),
(1424,512,l),
(1030,1024,l),
(931,1024,l)
);
}
);
width = 848;
},
{
layerId = m005;
shapes = (
{
closed = 1;
nodes = (
(1146,503,l),
(1233,632,l),
(51,632,l),
(51,399,l),
(1233,399,l),
(1146,526,l),
(751,3,l),
(1011,3,l),
(1407,515,l),
(1011,1027,l),
(751,1027,l)
);
}
);
width = 780;
},
{
layerId = "1B8EDE0E-D46F-48F9-B9C6-2CD34FEA95FD";
shapes = (
{
closed = 1;
nodes = (
(1193,496,l),
(1251,612,l),
(54,612,l),
(54,418,l),
(1251,418,l),
(1193,535,l),
(787,3,l),
(1006,3,l),
(1402,513,l),
(1006,1025,l),
(787,1025,l)
);
}
);
width = 780;
}
);
unicode = 8594;
},
{
glyphname = downArrow;
lastChange = "2025-11-28 11:52:18 +0000";
layers = (
{
layerId = m004;
shapes = (
{
closed = 1;
nodes = (
(560,-20,l),
(639,9,l),
(639,1262,l),
(564,1262,l),
(564,9,l),
(644,-20,l),
(88,422,l),
(88,325,l),
(600,-71,l),
(1112,325,l),
(1112,422,l)
);
}
);
width = 695;
},
{
layerId = m005;
shapes = (
{
closed = 1;
nodes = (
(557,181,l),
(686,94,l),
(686,1276,l),
(452,1276,l),
(452,94,l),
(580,181,l),
(57,577,l),
(57,316,l),
(568,-78,l),
(1080,316,l),
(1080,577,l)
);
}
);
width = 626;
},
{
layerId = "1B8EDE0E-D46F-48F9-B9C6-2CD34FEA95FD";
shapes = (
{
closed = 1;
nodes = (
(550,132,l),
(666,74,l),
(666,1272,l),
(471,1272,l),
(471,74,l),
(589,132,l),
(57,538,l),
(57,319,l),
(568,-77,l),
(1079,319,l),
(1079,538,l)
);
}
);
width = 626;
}
);
unicode = 8595;
},
{
glyphname = leftArrow;
lastChange = "2025-11-28 11:52:18 +0000";
layers = (
{
layerId = m004;
shapes = (
{
closed = 1;
nodes = (
(142,555,l),
(171,476,l),
(1424,476,l),
(1424,551,l),
(171,551,l),
(142,471,l),
(584,1025,l),
(487,1025,l),
(91,513,l),
(487,3,l),
(584,3,l)
);
}
);
width = 848;
},
{
layerId = m005;
shapes = (
{
closed = 1;
nodes = (
(306,525,l),
(219,397,l),
(1401,397,l),
(1401,631,l),
(219,631,l),
(306,503,l),
(702,1025,l),
(441,1025,l),
(46,513,l),
(441,3,l),
(702,3,l)
);
}
);
width = 780;
},
{
layerId = "1B8EDE0E-D46F-48F9-B9C6-2CD34FEA95FD";
shapes = (
{
closed = 1;
nodes = (
(255,532,l),
(197,416,l),
(1396,416,l),
(1396,610,l),
(197,610,l),
(255,496,l),
(664,1025,l),
(444,1025,l),
(49,513,l),
(444,3,l),
(664,3,l)
);
}
);
width = 780;
}
);
unicode = 8592;
},
{
glyphname = dieresiscomb;
lastChange = "2025-11-28 11:52:18 +0000";
layers = (
{
anchors = (
{
name = _top;
pos = (293,1028);
},
{
name = top;
pos = (293,1320);
}
);
layerId = m004;
shapes = (
{
closed = 1;
nodes = (
(180,1119,o),
(218,1159,o),
(218,1214,cs),
(218,1266,o),
(180,1302,o),
(126,1302,cs),
(71,1302,o),
(35,1266,o),
(35,1214,cs),
(35,1159,o),
(71,1119,o),
(126,1119,cs)
);
},
{
closed = 1;
nodes = (
(523,1127,o),
(552,1159,o),
(552,1214,cs),
(552,1263,o),
(523,1295,o),
(468,1295,cs),
(413,1295,o),
(384,1263,o),
(384,1214,cs),
(384,1159,o),
(413,1127,o),
(468,1127,cs)
);
}
);
width = 587;
},
{
anchors = (
{
name = _top;
pos = (352,1063);
},
{
name = top;
pos = (352,1553);
}
);
layerId = m005;
shapes = (
{
closed = 1;
nodes = (
(245,1283,o),
(293,1337,o),
(293,1421,cs),
(293,1504,o),
(245,1553,o),
(158,1553,cs),
(73,1553,o),
(23,1504,o),
(23,1421,cs),
(23,1337,o),
(73,1283,o),
(158,1283,cs)
);
},
{
closed = 1;
nodes = (
(635,1283,o),
(682,1337,o),
(682,1421,cs),
(682,1504,o),
(635,1553,o),
(547,1553,cs),
(461,1553,o),
(412,1504,o),
(412,1421,cs),
(412,1337,o),
(461,1283,o),
(547,1283,cs)
);
}
);
width = 703;
},
{
anchors = (
{
name = _top;
pos = (336,1063);
},
{
name = top;
pos = (342,1485);
}
);
layerId = "1B8EDE0E-D46F-48F9-B9C6-2CD34FEA95FD";
shapes = (
{
closed = 1;
nodes = (
(216,1198,o),
(255,1244,o),
(255,1321,cs),
(255,1391,o),
(216,1434,o),
(139,1434,cs),
(64,1434,o),
(23,1391,o),
(23,1321,cs),
(23,1244,o),
(64,1198,o),
(139,1198,cs)
);
},
{
closed = 1;
nodes = (
(609,1198,o),
(648,1244,o),
(648,1321,cs),
(648,1391,o),
(609,1434,o),
(532,1434,cs),
(457,1434,o),
(416,1391,o),
(416,1321,cs),
(416,1244,o),
(457,1198,o),
(532,1198,cs)
);
}
);
width = 671;
}
);
unicode = 776;
},
{
glyphname = dotaccentcomb;
lastChange = "2025-11-28 11:52:18 +0000";
layers = (
{
anchors = (
{
name = _top;
pos = (119,1028);
},
{
name = top;
pos = (119,1347);
}
);
layerId = m004;
shapes = (
{
closed = 1;
nodes = (
(174,1131,o),
(203,1163,o),
(203,1218,cs),
(203,1267,o),
(174,1299,o),
(119,1299,cs),
(64,1299,o),
(35,1267,o),
(35,1218,cs),
(35,1163,o),
(64,1131,o),
(119,1131,cs)
);
}
);
width = 238;
},
{
anchors = (
{
name = _top;
pos = (135,396);
},
{
name = top;
pos = (135,902);
}
);
layerId = m005;
shapes = (
{
closed = 1;
nodes = (
(223,632,o),
(270,686,o),
(270,770,cs),
(270,853,o),
(223,902,o),
(135,902,cs),
(51,902,o),
(0,853,o),
(0,770,cs),
(0,686,o),
(51,632,o),
(135,632,cs)
);
}
);
width = 135;
},
{
anchors = (
{
name = _top;
pos = (128,1063);
},
{
name = top;
pos = (128,1489);
}
);
layerId = "1B8EDE0E-D46F-48F9-B9C6-2CD34FEA95FD";
shapes = (
{
closed = 1;
nodes = (
(200,1222,o),
(244,1270,o),
(244,1343,cs),
(244,1409,o),
(200,1456,o),
(128,1456,cs),
(57,1456,o),
(13,1409,o),
(13,1343,cs),
(13,1270,o),
(57,1222,o),
(128,1222,cs)
);
}
);
width = 257;
}
);
unicode = 775;
},
{
glyphname = gravecomb;
lastChange = "2025-11-28 11:52:18 +0000";
layers = (
{
anchors = (
{
name = _top;
pos = (191,1028);
},
{
name = top;
pos = (191,1446);
}
);
layerId = m004;
shapes = (
{
closed = 1;
nodes = (
(35,1446,l),
(265,1127,l),
(347,1127,l),
(183,1446,l)
);
}
);
width = 381;
},
{
anchors = (
{
name = _top;
pos = (374,1063);
},
{
name = top;
pos = (249,1553);
}
);
layerId = m005;
shapes = (
{
closed = 1;
nodes = (
(25,1485,l),
(233,1166,l),
(421,1166,l),
(313,1485,l)
);
}
);
width = 497;
},
{
anchors = (
{
name = _top;
pos = (281,1063);
},
{
name = top;
pos = (367,1553);
}
);
layerId = "1B8EDE0E-D46F-48F9-B9C6-2CD34FEA95FD";
shapes = (
{
closed = 1;
nodes = (
(12,1520,l),
(187,1199,l),
(352,1199,l),
(219,1520,l)
);
}
);
width = 386;
}
);
unicode = 768;
},
{
glyphname = acutecomb;
lastChange = "2025-11-28 11:52:18 +0000";
layers = (
{
anchors = (
{
name = _top;
pos = (296,1028);
},
{
name = top;
pos = (296,1446);
}
);
layerId = m004;
shapes = (
{
closed = 1;
nodes = (
(139,1127,l),
(222,1127,l),
(452,1446,l),
(305,1446,l)
);
}
);
width = 412;
},
{
anchors = (
{
name = _top;
pos = (203,1063);
},
{
name = top;
pos = (283,1553);
}
);
layerId = m005;
shapes = (
{
closed = 1;
nodes = (
(57,1166,l),
(245,1166,l),
(452,1485,l),
(164,1485,l)
);
}
);
width = 497;
},
{
anchors = (
{
name = _top;
pos = (142,1063);
},
{
name = top;
pos = (228,1553);
}
);
layerId = "1B8EDE0E-D46F-48F9-B9C6-2CD34FEA95FD";
shapes = (
{
closed = 1;
nodes = (
(55,1199,l),
(219,1199,l),
(396,1520,l),
(187,1520,l)
);
}
);
width = 418;
}
);
unicode = 769;
},
{
glyphname = hungarumlautcomb;
lastChange = "2025-11-28 11:52:18 +0000";
layers = (
{
anchors = (
{
name = _top;
pos = (320,1028);
},
{
name = top;
pos = (320,1444);
}
);
layerId = m004;
shapes = (
{
closed = 1;
nodes = (
(293,1124,l),
(374,1124,l),
(606,1444,l),
(457,1444,l)
);
},
{
closed = 1;
nodes = (
(35,1124,l),
(116,1124,l),
(347,1444,l),
(199,1444,l)
);
}
);
width = 639;
},
{
anchors = (
{
name = _top;
pos = (352,1063);
},
{
name = top;
pos = (434,1553);
}
);
layerId = m005;
shapes = (
{
closed = 1;
nodes = (
(35,1166,l),
(222,1166,l),
(429,1485,l),
(142,1485,l)
);
},
{
closed = 1;
nodes = (
(402,1166,l),
(589,1166,l),
(798,1485,l),
(509,1485,l)
);
}
);
width = 857;
},
{
anchors = (
{
name = _top;
pos = (238,1063);
},
{
name = top;
pos = (342,1553);
}
);
layerId = "1B8EDE0E-D46F-48F9-B9C6-2CD34FEA95FD";
shapes = (
{
closed = 1;
nodes = (
(-3,1199,l),
(151,1199,l),
(338,1520,l),
(131,1520,l)
);
},
{
closed = 1;
nodes = (
(261,1199,l),
(413,1199,l),
(600,1520,l),
(393,1520,l)
);
}
);
width = 711;
}
);
unicode = 779;
},
{
glyphname = circumflexcomb;
lastChange = "2025-11-28 11:52:18 +0000";
layers = (
{
anchors = (
{
name = _top;
pos = (319,1028);
},
{
name = top;
pos = (319,1446);
}
);
layerId = m004;
shapes = (
{
closed = 1;
nodes = (
(255,1446,l),
(521,1127,l),
(603,1127,l),
(370,1446,l)
);
},
{
closed = 1;
nodes = (
(35,1127,l),
(116,1127,l),
(370,1446,l),
(255,1446,l)
);
}
);
width = 637;
},
{
anchors = (
{
name = _top;
pos = (445,1063);
},
{
name = top;
pos = (445,1553);
}
);
layerId = m005;
shapes = (
{
closed = 1;
nodes = (
(45,1119,l),
(267,1119,l),
(577,1485,l),
(289,1485,l)
);
},
{
closed = 1;
nodes = (
(312,1485,l),
(622,1119,l),
(844,1119,l),
(600,1485,l)
);
}
);
width = 892;
},
{
anchors = (
{
name = _top;
pos = (367,1063);
},
{
name = top;
pos = (361,1520);
}
);
layerId = "1B8EDE0E-D46F-48F9-B9C6-2CD34FEA95FD";
shapes = (
{
closed = 1;
nodes = (
(274,1520,l),
(541,1199,l),
(718,1199,l),
(481,1520,l)
);
},
{
closed = 1;
nodes = (
(23,1199,l),
(199,1199,l),
(455,1520,l),
(247,1520,l)
);
}
);
width = 695;
}
);
unicode = 770;
},
{
glyphname = caroncomb;
lastChange = "2025-11-28 11:52:18 +0000";
layers = (
{
anchors = (
{
name = _top;
pos = (319,1028);
},
{
name = top;
pos = (319,1446);
}
);
layerId = m004;
shapes = (
{
closed = 1;
nodes = (
(603,1446,l),
(521,1446,l),
(255,1127,l),
(370,1127,l)
);
},
{
closed = 1;
nodes = (
(370,1127,l),
(116,1446,l),
(35,1446,l),
(255,1127,l)
);
}
);
width = 637;
},
{
anchors = (
{
name = _top;
pos = (400,1063);
},
{
name = top;
pos = (400,1553);
}
);
layerId = m005;
shapes = (
{
closed = 1;
nodes = (
(799,1485,l),
(579,1485,l),
(267,1119,l),
(555,1119,l)
);
},
{
closed = 1;
nodes = (
(532,1119,l),
(222,1485,l),
(0,1485,l),
(245,1119,l)
);
}
);
width = 799;
},
{
anchors = (
{
name = _top;
pos = (378,1063);
},
{
name = top;
pos = (361,1520);
}
);
layerId = "1B8EDE0E-D46F-48F9-B9C6-2CD34FEA95FD";
shapes = (
{
closed = 1;
nodes = (
(718,1520,l),
(541,1520,l),
(274,1199,l),
(481,1199,l)
);
},
{
closed = 1;
nodes = (
(455,1199,l),
(199,1520,l),
(23,1520,l),
(247,1199,l)
);
}
);
width = 719;
}
);
unicode = 780;
},
{
glyphname = ringcomb;
lastChange = "2025-11-28 11:52:18 +0000";
layers = (
{
anchors = (
{
name = _top;
pos = (213,1028);
},
{
name = top;
pos = (213,1315);
}
);
layerId = m004;
shapes = (
{
closed = 1;
nodes = (
(281,1127,o),
(326,1172,o),
(326,1241,cs),
(326,1309,o),
(281,1354,o),
(213,1354,cs),
(135,1354,o),
(99,1309,o),
(99,1241,cs),
(99,1172,o),
(144,1127,o),
(213,1127,cs)
);
},
{
closed = 1;
nodes = (
(178,1188,o),
(160,1206,o),
(160,1241,cs),
(160,1275,o),
(178,1293,o),
(213,1293,cs),
(247,1293,o),
(265,1275,o),
(265,1241,cs),
(265,1206,o),
(247,1188,o),
(213,1188,cs)
);
}
);
width = 412;
},
{
anchors = (
{
name = _top;
pos = (219,1063);
},
{
name = top;
pos = (219,1485);
}
);
layerId = m005;
shapes = (
{
closed = 1;
nodes = (
(336,1092,o),
(416,1172,o),
(416,1289,cs),
(416,1405,o),
(336,1485,o),
(219,1485,cs),
(103,1485,o),
(23,1405,o),
(23,1289,cs),
(23,1172,o),
(103,1092,o),
(219,1092,cs)
);
},
{
closed = 1;
nodes = (
(178,1222,o),
(154,1247,o),
(154,1289,cs),
(154,1330,o),
(178,1354,o),
(219,1354,cs),
(261,1354,o),
(286,1330,o),
(286,1289,cs),
(286,1247,o),
(261,1222,o),
(219,1222,cs)
);
}
);
width = 439;
},
{
anchors = (
{
name = _top;
pos = (178,1063);
},
{
name = top;
pos = (178,1505);
}
);
layerId = "1B8EDE0E-D46F-48F9-B9C6-2CD34FEA95FD";
shapes = (
{
closed = 1;
nodes = (
(276,1192,o),
(334,1248,o),
(334,1346,cs),
(334,1443,o),
(276,1504,o),
(178,1504,cs),
(81,1504,o),
(23,1446,o),
(23,1349,cs),
(23,1251,o),
(81,1192,o),
(178,1192,cs)
);
},
{
closed = 1;
nodes = (
(146,1299,o),
(131,1317,o),
(131,1349,cs),
(131,1375,o),
(146,1396,o),
(178,1396,cs),
(210,1396,o),
(226,1375,o),
(226,1349,cs),
(226,1317,o),
(210,1299,o),
(178,1299,cs)
);
}
);
width = 357;
}
);
unicode = 778;
},
{
glyphname = tildecomb;
lastChange = "2025-11-28 11:52:18 +0000";
layers = (
{
anchors = (
{
name = _top;
pos = (283,1063);
},
{
name = top;
pos = (283,1279);
}
);
layerId = m004;
shapes = (
{
closed = 1;
nodes = (
(100,1127,l),
(100,1182,o),
(116,1211,o),
(170,1211,cs),
(249,1211,o),
(310,1127,o),
(396,1127,cs),
(460,1127,o),
(531,1166,o),
(531,1279,c),
(464,1279,l),
(464,1224,o),
(448,1195,o),
(396,1195,cs),
(315,1195,o),
(254,1279,o),
(170,1279,cs),
(104,1279,o),
(35,1241,o),
(35,1127,c)
);
}
);
width = 564;
},
{
anchors = (
{
name = _top;
pos = (158,1063);
},
{
name = top;
pos = (158,1488);
}
);
layerId = m005;
shapes = (
{
closed = 1;
nodes = (
(-1,1208,l),
(1,1251,o),
(33,1283,o),
(74,1283,cs),
(126,1283,o),
(158,1208,o),
(257,1208,cs),
(406,1208,o),
(476,1341,o),
(476,1488,c),
(323,1488,l),
(323,1446,o),
(287,1408,o),
(245,1408,cs),
(193,1408,o),
(164,1485,o),
(65,1485,cs),
(-86,1485,o),
(-158,1350,o),
(-158,1208,c)
);
}
);
width = 318;
},
{
anchors = (
{
name = _top;
pos = (313,1063);
},
{
name = top;
pos = (332,1553);
}
);
layerId = "1B8EDE0E-D46F-48F9-B9C6-2CD34FEA95FD";
shapes = (
{
closed = 1;
nodes = (
(142,1257,l),
(151,1317,o),
(180,1337,o),
(215,1337,cs),
(281,1337,o),
(325,1257,o),
(416,1257,cs),
(532,1257,o),
(603,1353,o),
(603,1485,c),
(487,1485,l),
(477,1428,o),
(445,1405,o),
(413,1405,cs),
(347,1405,o),
(305,1485,o),
(210,1485,cs),
(96,1485,o),
(23,1389,o),
(23,1257,c)
);
}
);
width = 626;
}
);
unicode = 771;
},
{
glyphname = cedillacomb;
lastChange = "2025-11-28 11:52:18 +0000";
layers = (
{
anchors = (
{
name = _bottom;
pos = (213,0);
},
{
name = bottom;
pos = (213,-418);
}
);
layerId = m004;
shapes = (
{
closed = 1;
nodes = (
(91,-83,l),
(174,-83,l),
(229,12,l),
(146,12,l)
);
},
{
closed = 1;
nodes = (
(294,-418,o),
(380,-368,o),
(380,-238,cs),
(380,-110,o),
(281,-59,o),
(191,-59,cs),
(146,-59,o),
(126,-72,o),
(91,-83,c),
(116,-144,l),
(154,-135,o),
(186,-135,o),
(203,-135,cs),
(249,-138,o),
(297,-164,o),
(297,-238,cs),
(297,-310,o),
(249,-342,o),
(203,-342,cs),
(154,-342,o),
(128,-320,o),
(123,-277,c),
(46,-277,l),
(46,-370,o),
(123,-418,o),
(206,-418,cs)
);
}
);
width = 425;
},
{
anchors = (
{
name = _bottom;
pos = (228,0);
},
{
name = bottom;
pos = (228,-457);
}
);
layerId = m005;
shapes = (
{
closed = 1;
nodes = (
(87,-57,l),
(274,-57,l),
(294,0,l),
(119,0,l)
);
},
{
closed = 1;
nodes = (
(329,-457,o),
(432,-397,o),
(432,-242,cs),
(432,-99,o),
(313,-39,o),
(207,-39,cs),
(155,-39,o),
(128,-46,o),
(87,-57,c),
(164,-186,l),
(164,-186,o),
(187,-178,o),
(210,-178,cs),
(247,-178,o),
(283,-202,o),
(283,-254,cs),
(283,-309,o),
(247,-331,o),
(210,-331,cs),
(174,-331,o),
(151,-297,o),
(151,-254,c),
(23,-254,l),
(23,-396,o),
(116,-457,o),
(223,-457,cs)
);
}
);
width = 455;
},
{
anchors = (
{
name = _bottom;
pos = (190,0);
},
{
name = bottom;
pos = (190,-441);
}
);
layerId = "1B8EDE0E-D46F-48F9-B9C6-2CD34FEA95FD";
shapes = (
{
closed = 1;
nodes = (
(68,-104,l),
(186,-104,l),
(239,4,l),
(123,4,l)
);
},
{
closed = 1;
nodes = (
(271,-441,o),
(357,-390,o),
(357,-261,cs),
(357,-132,o),
(258,-83,o),
(170,-83,cs),
(123,-83,o),
(103,-96,o),
(68,-104,c),
(119,-194,l),
(146,-187,o),
(170,-187,o),
(180,-187,cs),
(215,-187,o),
(249,-207,o),
(249,-261,cs),
(249,-313,o),
(215,-336,o),
(180,-336,cs),
(146,-336,o),
(128,-320,o),
(123,-289,c),
(23,-299,l),
(23,-393,o),
(100,-441,o),
(183,-441,cs)
);
}
);
width = 380;
}
);
unicode = 807;
},
{
glyphname = dotaccentcomb.001;
lastChange = "2025-11-28 11:52:18 +0000";
layers = (
{
anchors = (
{
name = _top;
pos = (100,1028);
},
{
name = top;
pos = (100,1259);
}
);
layerId = m004;
shapes = (
{
closed = 1;
nodes = (
(142,1127,o),
(167,1154,o),
(167,1195,cs),
(167,1231,o),
(142,1259,o),
(100,1259,cs),
(59,1259,o),
(35,1231,o),
(35,1195,cs),
(35,1154,o),
(59,1127,o),
(100,1127,cs)
);
}
);
width = 202;
},
{
anchors = (
{
name = _top;
pos = (135,393);
},
{
name = top;
pos = (135,896);
}
);
layerId = m005;
shapes = (
{
closed = 1;
nodes = (
(238,635,o),
(265,667,o),
(265,767,cs),
(265,866,o),
(238,896,o),
(135,896,cs),
(32,896,o),
(4,866,o),
(4,767,cs),
(4,667,o),
(32,635,o),
(135,635,cs)
);
}
);
width = 342;
},
{
anchors = (
{
name = _top;
pos = (138,400);
},
{
name = top;
pos = (138,858);
}
);
layerId = "1B8EDE0E-D46F-48F9-B9C6-2CD34FEA95FD";
shapes = (
{
closed = 1;
nodes = (
(226,628,o),
(251,658,o),
(251,747,cs),
(251,831,o),
(226,858,o),
(138,858,cs),
(48,858,o),
(23,831,o),
(23,747,cs),
(23,658,o),
(48,628,o),
(138,628,cs)
);
}
);
width = 274;
}
);
},
